<svg xmlns="http://www.w3.org/2000/svg" xmlns:xlink="http://www.w3.org/1999/xlink" width="100" zoomAndPan="magnify" viewBox="0 0 75 74.999997" height="100" preserveAspectRatio="xMidYMid meet" version="1.0"><defs><clipPath id="1ef1e7d3d8"><path d="M 2.699219 1.484375 L 72.449219 1.484375 L 72.449219 73.484375 L 2.699219 73.484375 Z M 2.699219 1.484375 " clip-rule="nonzero"/></clipPath><clipPath id="3d811408a0"><path d="M 30.34375 31.484375 C 28.359375 31.484375 26.734375 33.105469 26.734375 35.082031 L 26.734375 42.28125 C 26.734375 42.941406 27.277344 43.480469 27.9375 43.480469 C 28.597656 43.480469 29.140625 42.941406 29.140625 42.28125 L 29.140625 38.683594 L 31.546875 38.683594 L 31.546875 42.28125 C 31.546875 42.941406 32.085938 43.480469 32.75 43.480469 C 33.410156 43.480469 33.949219 42.941406 33.949219 42.28125 L 33.949219 35.082031 C 33.949219 33.105469 32.328125 31.484375 30.34375 31.484375 Z M 31.546875 36.285156 L 29.140625 36.285156 L 29.140625 35.082031 C 29.140625 34.425781 29.679688 33.882812 30.34375 33.882812 C 31.003906 33.882812 31.546875 34.425781 31.546875 35.082031 Z M 39.964844 31.484375 L 37.558594 31.484375 C 36.898438 31.484375 36.355469 32.023438 36.355469 32.683594 L 36.355469 42.28125 C 36.355469 42.941406 36.898438 43.480469 37.558594 43.480469 C 38.21875 43.480469 38.761719 42.941406 38.761719 42.28125 L 38.761719 38.683594 L 39.964844 38.683594 C 41.949219 38.683594 43.570312 37.0625 43.570312 35.082031 C 43.570312 33.105469 41.949219 31.484375 39.964844 31.484375 Z M 39.964844 36.285156 L 38.761719 36.285156 L 38.761719 33.882812 L 39.964844 33.882812 C 40.625 33.882812 41.167969 34.425781 41.167969 35.082031 C 41.167969 35.742188 40.625 36.285156 39.964844 36.285156 Z M 68.824219 44.679688 C 67.261719 44.679688 65.925781 45.683594 65.429688 47.078125 L 58.289062 47.078125 C 59.007812 45.550781 59.550781 43.929688 59.910156 42.28125 L 64.015625 42.28125 C 64.675781 42.28125 65.21875 41.742188 65.21875 41.082031 L 65.21875 33.882812 C 65.21875 33.222656 64.675781 32.683594 64.015625 32.683594 L 59.894531 32.683594 C 59.308594 29.941406 58.199219 27.300781 56.632812 24.949219 L 58.84375 22.742188 C 59.308594 22.277344 59.308594 21.511719 58.84375 21.046875 L 54.035156 16.25 C 53.566406 15.785156 52.800781 15.785156 52.335938 16.25 L 50.125 18.453125 C 49.3125 17.929688 48.472656 17.449219 47.613281 17.015625 L 53.882812 6.292969 L 58.210938 6.292969 C 58.707031 7.6875 60.046875 8.691406 61.609375 8.691406 C 63.59375 8.691406 65.21875 7.074219 65.21875 5.09375 C 65.21875 3.113281 63.59375 1.496094 61.609375 1.496094 C 60.046875 1.496094 58.707031 2.5 58.210938 3.894531 L 53.191406 3.894531 C 52.769531 3.894531 52.367188 4.121094 52.15625 4.496094 L 45.390625 16.070312 C 44.414062 15.710938 43.40625 15.425781 42.382812 15.199219 L 42.382812 11.09375 C 42.382812 10.433594 41.84375 9.894531 41.179688 9.894531 L 33.964844 9.894531 C 33.304688 9.894531 32.761719 10.433594 32.761719 11.09375 L 32.761719 15.199219 C 30.011719 15.785156 27.367188 16.894531 25.007812 18.453125 L 22.796875 16.25 C 22.332031 15.785156 21.5625 15.785156 21.097656 16.25 L 19.371094 17.945312 L 13.507812 14.046875 L 13.507812 8.484375 C 14.90625 7.988281 15.910156 6.652344 15.910156 5.09375 C 15.910156 3.113281 14.289062 1.496094 12.304688 1.496094 C 10.320312 1.496094 8.695312 3.113281 8.695312 5.09375 C 8.695312 6.652344 9.703125 7.988281 11.101562 8.484375 L 11.101562 14.691406 C 11.101562 15.097656 11.296875 15.472656 11.644531 15.695312 L 17.640625 19.683594 L 16.273438 21.046875 C 15.808594 21.511719 15.808594 22.277344 16.273438 22.742188 L 18.480469 24.949219 C 16.933594 27.300781 15.820312 29.941406 15.21875 32.683594 L 11.101562 32.683594 C 10.441406 32.683594 9.898438 33.222656 9.898438 33.882812 L 9.898438 41.082031 C 9.898438 41.742188 10.441406 42.28125 11.101562 42.28125 L 15.21875 42.28125 C 15.355469 42.882812 15.507812 43.464844 15.6875 44.050781 L 5.554688 52.148438 C 5.269531 52.371094 5.105469 52.71875 5.105469 53.078125 L 5.105469 56.886719 C 3.707031 57.378906 2.699219 58.714844 2.699219 60.273438 C 2.699219 62.253906 4.320312 63.875 6.304688 63.875 C 8.289062 63.875 9.914062 62.253906 9.914062 60.273438 C 9.914062 58.714844 8.90625 57.378906 7.507812 56.886719 L 7.507812 53.660156 L 16.558594 46.433594 C 17.097656 47.679688 17.746094 48.894531 18.496094 50.019531 L 16.289062 52.222656 C 15.820312 52.6875 15.820312 53.453125 16.289062 53.917969 L 21.097656 58.714844 C 21.5625 59.179688 22.332031 59.179688 22.796875 58.714844 L 25.007812 56.511719 C 27.367188 58.054688 30.011719 59.164062 32.761719 59.765625 L 32.761719 63.875 C 32.761719 64.53125 33.304688 65.074219 33.964844 65.074219 L 41.179688 65.074219 C 41.84375 65.074219 42.382812 64.53125 42.382812 63.875 L 42.382812 59.765625 C 43.390625 59.554688 44.382812 59.269531 45.34375 58.910156 L 47.210938 70.066406 C 47.300781 70.652344 47.808594 71.070312 48.398438 71.070312 L 52.214844 71.070312 C 52.710938 72.464844 54.050781 73.46875 55.613281 73.46875 C 57.597656 73.46875 59.21875 71.851562 59.21875 69.871094 C 59.21875 67.890625 57.597656 66.273438 55.613281 66.273438 C 54.050781 66.273438 52.710938 67.277344 52.214844 68.671875 L 49.417969 68.671875 L 47.628906 57.949219 C 48.5 57.53125 49.34375 57.050781 50.15625 56.511719 L 52.367188 58.714844 C 52.832031 59.179688 53.597656 59.179688 54.0625 58.714844 L 58.875 53.917969 C 59.339844 53.453125 59.339844 52.6875 58.875 52.222656 L 56.664062 50.019531 C 56.785156 49.839844 56.90625 49.660156 57.011719 49.480469 L 65.445312 49.480469 C 65.9375 50.875 67.277344 51.878906 68.839844 51.878906 C 70.824219 51.878906 72.449219 50.257812 72.449219 48.277344 C 72.449219 46.300781 70.808594 44.679688 68.824219 44.679688 Z M 61.609375 3.894531 C 62.273438 3.894531 62.8125 4.433594 62.8125 5.09375 C 62.8125 5.753906 62.273438 6.292969 61.609375 6.292969 C 60.949219 6.292969 60.40625 5.753906 60.40625 5.09375 C 60.40625 4.433594 60.949219 3.894531 61.609375 3.894531 Z M 12.304688 6.292969 C 11.644531 6.292969 11.101562 5.753906 11.101562 5.09375 C 11.101562 4.433594 11.644531 3.894531 12.304688 3.894531 C 12.964844 3.894531 13.507812 4.433594 13.507812 5.09375 C 13.507812 5.753906 12.964844 6.292969 12.304688 6.292969 Z M 6.292969 61.472656 C 5.628906 61.472656 5.089844 60.933594 5.089844 60.273438 C 5.089844 59.613281 5.628906 59.074219 6.292969 59.074219 C 6.953125 59.074219 7.492188 59.613281 7.492188 60.273438 C 7.492188 60.933594 6.953125 61.472656 6.292969 61.472656 Z M 55.597656 68.671875 C 56.257812 68.671875 56.800781 69.210938 56.800781 69.871094 C 56.800781 70.53125 56.257812 71.070312 55.597656 71.070312 C 54.9375 71.070312 54.394531 70.53125 54.394531 69.871094 C 54.394531 69.210938 54.9375 68.671875 55.597656 68.671875 Z M 57.714844 40.886719 C 57.207031 43.960938 55.941406 46.929688 54.109375 49.464844 C 53.761719 49.945312 53.808594 50.601562 54.230469 51.023438 L 56.304688 53.09375 L 53.191406 56.179688 L 51.117188 54.113281 C 50.695312 53.691406 50.035156 53.648438 49.554688 53.992188 C 47.015625 55.835938 44.039062 57.082031 40.957031 57.589844 C 40.371094 57.679688 39.949219 58.191406 39.949219 58.773438 L 39.949219 62.671875 L 35.136719 62.671875 L 35.136719 58.773438 C 35.136719 58.191406 34.71875 57.695312 34.132812 57.589844 C 31.050781 57.082031 28.074219 55.835938 25.53125 53.992188 C 25.050781 53.648438 24.390625 53.691406 23.96875 54.113281 L 21.925781 56.179688 L 18.8125 53.078125 L 20.886719 51.007812 C 21.308594 50.589844 21.355469 49.929688 21.007812 49.449219 C 19.160156 46.914062 17.910156 43.945312 17.398438 40.871094 C 17.308594 40.285156 16.796875 39.867188 16.210938 39.867188 L 12.304688 39.867188 L 12.304688 35.070312 L 16.210938 35.070312 C 16.796875 35.070312 17.292969 34.648438 17.398438 34.0625 C 17.910156 30.988281 19.175781 28.019531 21.007812 25.488281 C 21.355469 25.007812 21.308594 24.347656 20.886719 23.929688 L 18.8125 21.886719 L 21.925781 18.785156 L 24 20.855469 C 24.421875 21.273438 25.082031 21.320312 25.5625 20.972656 C 28.101562 19.128906 31.078125 17.886719 34.160156 17.375 C 34.746094 17.285156 35.167969 16.773438 35.167969 16.191406 L 35.167969 12.292969 L 39.980469 12.292969 L 39.980469 16.191406 C 39.980469 16.773438 40.398438 17.269531 40.984375 17.375 C 44.066406 17.886719 47.042969 19.144531 49.585938 20.972656 C 50.066406 21.320312 50.726562 21.273438 51.148438 20.855469 L 53.222656 18.785156 L 56.332031 21.886719 L 54.257812 23.957031 C 53.839844 24.378906 53.792969 25.039062 54.140625 25.515625 C 55.988281 28.050781 57.234375 31.019531 57.746094 34.09375 C 57.835938 34.679688 58.347656 35.097656 58.933594 35.097656 L 62.84375 35.097656 L 62.84375 39.898438 L 58.933594 39.898438 C 58.316406 39.882812 57.820312 40.300781 57.714844 40.886719 Z M 68.824219 49.480469 C 68.164062 49.480469 67.625 48.9375 67.625 48.277344 C 67.625 47.621094 68.164062 47.078125 68.824219 47.078125 C 69.488281 47.078125 70.027344 47.621094 70.027344 48.277344 C 70.027344 48.9375 69.488281 49.480469 68.824219 49.480469 Z M 37.558594 19.488281 C 27.605469 19.488281 19.519531 27.554688 19.519531 37.484375 C 19.519531 47.410156 27.605469 55.476562 37.558594 55.476562 C 47.511719 55.476562 55.597656 47.410156 55.597656 37.484375 C 55.597656 27.554688 47.511719 19.488281 37.558594 19.488281 Z M 37.558594 53.078125 C 28.945312 53.078125 21.925781 46.074219 21.925781 37.484375 C 21.925781 28.890625 28.945312 21.886719 37.558594 21.886719 C 46.171875 21.886719 53.191406 28.890625 53.191406 37.484375 C 53.191406 46.074219 46.171875 53.078125 37.558594 53.078125 Z M 48.382812 32.683594 L 48.382812 42.28125 C 48.382812 42.941406 47.839844 43.480469 47.179688 43.480469 C 46.519531 43.480469 45.976562 42.941406 45.976562 42.28125 L 45.976562 32.683594 C 45.976562 32.023438 46.519531 31.484375 47.179688 31.484375 C 47.839844 31.484375 48.382812 32.023438 48.382812 32.683594 Z M 48.382812 32.683594 " clip-rule="nonzero"/></clipPath><linearGradient x1="256" gradientTransform="matrix(0.150323, 0, 0, 0.149946, -0.924339, -0.903336)" y1="495.999964" x2="256" gradientUnits="userSpaceOnUse" y2="15.999973" id="4ba9fc52e8"><stop stop-opacity="1" stop-color="rgb(7.099915%, 74.499512%, 89.7995%)" offset="0"/><stop stop-opacity="1" stop-color="rgb(7.632446%, 74.263%, 89.811707%)" offset="0.00390625"/><stop stop-opacity="1" stop-color="rgb(8.164978%, 74.028015%, 89.823914%)" offset="0.0078125"/><stop stop-opacity="1" stop-color="rgb(8.69751%, 73.791504%, 89.836121%)" offset="0.0117188"/><stop stop-opacity="1" stop-color="rgb(9.230042%, 73.554993%, 89.849854%)" offset="0.015625"/><stop stop-opacity="1" stop-color="rgb(9.762573%, 73.318481%, 89.862061%)" offset="0.0195312"/><stop stop-opacity="1" stop-color="rgb(10.296631%, 73.083496%, 89.874268%)" offset="0.0234375"/><stop stop-opacity="1" stop-color="rgb(10.829163%, 72.846985%, 89.886475%)" offset="0.0273438"/><stop stop-opacity="1" stop-color="rgb(11.361694%, 72.612%, 89.898682%)" offset="0.03125"/><stop stop-opacity="1" stop-color="rgb(11.894226%, 72.375488%, 89.910889%)" offset="0.0351562"/><stop stop-opacity="1" stop-color="rgb(12.426758%, 72.140503%, 89.924622%)" offset="0.0390625"/><stop stop-opacity="1" stop-color="rgb(12.95929%, 71.903992%, 89.936829%)" offset="0.0429688"/><stop stop-opacity="1" stop-color="rgb(13.493347%, 71.66748%, 89.949036%)" offset="0.046875"/><stop stop-opacity="1" stop-color="rgb(14.025879%, 71.430969%, 89.961243%)" offset="0.0507813"/><stop stop-opacity="1" stop-color="rgb(14.558411%, 71.195984%, 89.974976%)" offset="0.0546875"/><stop stop-opacity="1" stop-color="rgb(15.090942%, 70.959473%, 89.987183%)" offset="0.0585938"/><stop stop-opacity="1" stop-color="rgb(15.625%, 70.724487%, 89.99939%)" offset="0.0625"/><stop stop-opacity="1" stop-color="rgb(16.157532%, 70.487976%, 90.011597%)" offset="0.0664062"/><stop stop-opacity="1" stop-color="rgb(16.690063%, 70.252991%, 90.023804%)" offset="0.0703125"/><stop stop-opacity="1" stop-color="rgb(17.222595%, 70.016479%, 90.036011%)" offset="0.0742188"/><stop stop-opacity="1" stop-color="rgb(17.755127%, 69.779968%, 90.049744%)" offset="0.078125"/><stop stop-opacity="1" stop-color="rgb(18.287659%, 69.543457%, 90.061951%)" offset="0.0820313"/><stop stop-opacity="1" stop-color="rgb(18.821716%, 69.308472%, 90.074158%)" offset="0.0859375"/><stop stop-opacity="1" stop-color="rgb(19.354248%, 69.07196%, 90.086365%)" offset="0.0898438"/><stop stop-opacity="1" stop-color="rgb(19.88678%, 68.836975%, 90.098572%)" offset="0.09375"/><stop stop-opacity="1" stop-color="rgb(20.419312%, 68.600464%, 90.110779%)" offset="0.0976563"/><stop stop-opacity="1" stop-color="rgb(20.951843%, 68.365479%, 90.124512%)" offset="0.101563"/><stop stop-opacity="1" stop-color="rgb(21.484375%, 68.128967%, 90.136719%)" offset="0.105469"/><stop stop-opacity="1" stop-color="rgb(22.018433%, 67.892456%, 90.148926%)" offset="0.109375"/><stop stop-opacity="1" stop-color="rgb(22.550964%, 67.655945%, 90.161133%)" offset="0.113281"/><stop stop-opacity="1" stop-color="rgb(23.083496%, 67.420959%, 90.174866%)" offset="0.117188"/><stop stop-opacity="1" stop-color="rgb(23.616028%, 67.184448%, 90.187073%)" offset="0.121094"/><stop stop-opacity="1" stop-color="rgb(24.14856%, 66.949463%, 90.19928%)" offset="0.125"/><stop stop-opacity="1" stop-color="rgb(24.681091%, 66.712952%, 90.211487%)" offset="0.128906"/><stop stop-opacity="1" stop-color="rgb(25.215149%, 66.477966%, 90.223694%)" offset="0.132812"/><stop stop-opacity="1" stop-color="rgb(25.747681%, 66.241455%, 90.235901%)" offset="0.136719"/><stop stop-opacity="1" stop-color="rgb(26.280212%, 66.004944%, 90.249634%)" offset="0.140625"/><stop stop-opacity="1" stop-color="rgb(26.812744%, 65.768433%, 90.261841%)" offset="0.144531"/><stop stop-opacity="1" stop-color="rgb(27.346802%, 65.533447%, 90.274048%)" offset="0.148438"/><stop stop-opacity="1" stop-color="rgb(27.879333%, 65.296936%, 90.286255%)" offset="0.152344"/><stop stop-opacity="1" stop-color="rgb(28.411865%, 65.061951%, 90.299988%)" offset="0.15625"/><stop stop-opacity="1" stop-color="rgb(28.944397%, 64.825439%, 90.312195%)" offset="0.160156"/><stop stop-opacity="1" stop-color="rgb(29.476929%, 64.590454%, 90.324402%)" offset="0.164063"/><stop stop-opacity="1" stop-color="rgb(30.00946%, 64.353943%, 90.336609%)" offset="0.167969"/><stop stop-opacity="1" stop-color="rgb(30.543518%, 64.117432%, 90.348816%)" offset="0.171875"/><stop stop-opacity="1" stop-color="rgb(31.07605%, 63.88092%, 90.361023%)" offset="0.175781"/><stop stop-opacity="1" stop-color="rgb(31.608582%, 63.645935%, 90.374756%)" offset="0.179688"/><stop stop-opacity="1" stop-color="rgb(32.141113%, 63.409424%, 90.386963%)" offset="0.183594"/><stop stop-opacity="1" stop-color="rgb(32.673645%, 63.174438%, 90.39917%)" offset="0.1875"/><stop stop-opacity="1" stop-color="rgb(33.206177%, 62.937927%, 90.411377%)" offset="0.191406"/><stop stop-opacity="1" stop-color="rgb(33.740234%, 62.702942%, 90.423584%)" offset="0.195313"/><stop stop-opacity="1" stop-color="rgb(34.272766%, 62.466431%, 90.435791%)" offset="0.199219"/><stop stop-opacity="1" stop-color="rgb(34.805298%, 62.229919%, 90.449524%)" offset="0.203125"/><stop stop-opacity="1" stop-color="rgb(35.33783%, 61.993408%, 90.461731%)" offset="0.207031"/><stop stop-opacity="1" stop-color="rgb(35.870361%, 61.758423%, 90.473938%)" offset="0.210938"/><stop stop-opacity="1" stop-color="rgb(36.402893%, 61.521912%, 90.486145%)" offset="0.214844"/><stop stop-opacity="1" stop-color="rgb(36.936951%, 61.286926%, 90.499878%)" offset="0.21875"/><stop stop-opacity="1" stop-color="rgb(37.469482%, 61.050415%, 90.512085%)" offset="0.222656"/><stop stop-opacity="1" stop-color="rgb(38.002014%, 60.81543%, 90.524292%)" offset="0.226562"/><stop stop-opacity="1" stop-color="rgb(38.534546%, 60.578918%, 90.536499%)" offset="0.230469"/><stop stop-opacity="1" stop-color="rgb(39.068604%, 60.342407%, 90.548706%)" offset="0.234375"/><stop stop-opacity="1" stop-color="rgb(39.601135%, 60.105896%, 90.560913%)" offset="0.238281"/><stop stop-opacity="1" stop-color="rgb(40.133667%, 59.870911%, 90.574646%)" offset="0.242188"/><stop stop-opacity="1" stop-color="rgb(40.666199%, 59.634399%, 90.586853%)" offset="0.246094"/><stop stop-opacity="1" stop-color="rgb(41.19873%, 59.399414%, 90.59906%)" offset="0.25"/><stop stop-opacity="1" stop-color="rgb(41.731262%, 59.162903%, 90.611267%)" offset="0.253906"/><stop stop-opacity="1" stop-color="rgb(42.26532%, 58.927917%, 90.625%)" offset="0.257813"/><stop stop-opacity="1" stop-color="rgb(42.797852%, 58.691406%, 90.637207%)" offset="0.261719"/><stop stop-opacity="1" stop-color="rgb(43.330383%, 58.454895%, 90.649414%)" offset="0.265625"/><stop stop-opacity="1" stop-color="rgb(43.862915%, 58.218384%, 90.661621%)" offset="0.269531"/><stop stop-opacity="1" stop-color="rgb(44.395447%, 57.983398%, 90.673828%)" offset="0.273438"/><stop stop-opacity="1" stop-color="rgb(44.927979%, 57.746887%, 90.686035%)" offset="0.277344"/><stop stop-opacity="1" stop-color="rgb(45.462036%, 57.511902%, 90.699768%)" offset="0.28125"/><stop stop-opacity="1" stop-color="rgb(45.994568%, 57.275391%, 90.711975%)" offset="0.285156"/><stop stop-opacity="1" stop-color="rgb(46.5271%, 57.040405%, 90.724182%)" offset="0.289063"/><stop stop-opacity="1" stop-color="rgb(47.059631%, 56.803894%, 90.736389%)" offset="0.292969"/><stop stop-opacity="1" stop-color="rgb(47.593689%, 56.567383%, 90.748596%)" offset="0.296875"/><stop stop-opacity="1" stop-color="rgb(48.126221%, 56.330872%, 90.760803%)" offset="0.300781"/><stop stop-opacity="1" stop-color="rgb(48.658752%, 56.095886%, 90.774536%)" offset="0.304688"/><stop stop-opacity="1" stop-color="rgb(49.191284%, 55.859375%, 90.786743%)" offset="0.308594"/><stop stop-opacity="1" stop-color="rgb(49.723816%, 55.62439%, 90.79895%)" offset="0.3125"/><stop stop-opacity="1" stop-color="rgb(50.256348%, 55.387878%, 90.811157%)" offset="0.316406"/><stop stop-opacity="1" stop-color="rgb(50.790405%, 55.152893%, 90.82489%)" offset="0.320312"/><stop stop-opacity="1" stop-color="rgb(51.322937%, 54.916382%, 90.837097%)" offset="0.324219"/><stop stop-opacity="1" stop-color="rgb(51.855469%, 54.679871%, 90.849304%)" offset="0.328125"/><stop stop-opacity="1" stop-color="rgb(52.388%, 54.443359%, 90.861511%)" offset="0.332031"/><stop stop-opacity="1" stop-color="rgb(52.920532%, 54.208374%, 90.873718%)" offset="0.335938"/><stop stop-opacity="1" stop-color="rgb(53.453064%, 53.971863%, 90.885925%)" offset="0.339844"/><stop stop-opacity="1" stop-color="rgb(53.987122%, 53.736877%, 90.899658%)" offset="0.34375"/><stop stop-opacity="1" stop-color="rgb(54.519653%, 53.500366%, 90.911865%)" offset="0.347656"/><stop stop-opacity="1" stop-color="rgb(55.052185%, 53.265381%, 90.924072%)" offset="0.351562"/><stop stop-opacity="1" stop-color="rgb(55.584717%, 53.02887%, 90.936279%)" offset="0.355469"/><stop stop-opacity="1" stop-color="rgb(56.117249%, 52.792358%, 90.948486%)" offset="0.359375"/><stop stop-opacity="1" stop-color="rgb(56.64978%, 52.555847%, 90.960693%)" offset="0.363281"/><stop stop-opacity="1" stop-color="rgb(57.183838%, 52.320862%, 90.974426%)" offset="0.367188"/><stop stop-opacity="1" stop-color="rgb(57.71637%, 52.084351%, 90.986633%)" offset="0.371094"/><stop stop-opacity="1" stop-color="rgb(58.248901%, 51.849365%, 90.99884%)" offset="0.375"/><stop stop-opacity="1" stop-color="rgb(58.781433%, 51.612854%, 91.011047%)" offset="0.378906"/><stop stop-opacity="1" stop-color="rgb(59.315491%, 51.377869%, 91.02478%)" offset="0.382812"/><stop stop-opacity="1" stop-color="rgb(59.848022%, 51.141357%, 91.036987%)" offset="0.386719"/><stop stop-opacity="1" stop-color="rgb(60.380554%, 50.904846%, 91.049194%)" offset="0.390625"/><stop stop-opacity="1" stop-color="rgb(60.913086%, 50.668335%, 91.061401%)" offset="0.394531"/><stop stop-opacity="1" stop-color="rgb(61.445618%, 50.43335%, 91.073608%)" offset="0.398438"/><stop stop-opacity="1" stop-color="rgb(61.978149%, 50.196838%, 91.085815%)" offset="0.402344"/><stop stop-opacity="1" stop-color="rgb(62.512207%, 49.961853%, 91.099548%)" offset="0.40625"/><stop stop-opacity="1" stop-color="rgb(63.044739%, 49.725342%, 91.111755%)" offset="0.410156"/><stop stop-opacity="1" stop-color="rgb(63.577271%, 49.490356%, 91.123962%)" offset="0.414063"/><stop stop-opacity="1" stop-color="rgb(64.109802%, 49.253845%, 91.136169%)" offset="0.417969"/><stop stop-opacity="1" stop-color="rgb(64.642334%, 49.017334%, 91.149902%)" offset="0.421875"/><stop stop-opacity="1" stop-color="rgb(65.174866%, 48.780823%, 91.162109%)" offset="0.425781"/><stop stop-opacity="1" stop-color="rgb(65.708923%, 48.545837%, 91.174316%)" offset="0.429688"/><stop stop-opacity="1" stop-color="rgb(66.241455%, 48.309326%, 91.186523%)" offset="0.433594"/><stop stop-opacity="1" stop-color="rgb(66.773987%, 48.074341%, 91.19873%)" offset="0.4375"/><stop stop-opacity="1" stop-color="rgb(67.306519%, 47.83783%, 91.210938%)" offset="0.441406"/><stop stop-opacity="1" stop-color="rgb(67.840576%, 47.602844%, 91.22467%)" offset="0.445312"/><stop stop-opacity="1" stop-color="rgb(68.373108%, 47.366333%, 91.236877%)" offset="0.449219"/><stop stop-opacity="1" stop-color="rgb(68.90564%, 47.129822%, 91.249084%)" offset="0.453125"/><stop stop-opacity="1" stop-color="rgb(69.438171%, 46.893311%, 91.261292%)" offset="0.457031"/><stop stop-opacity="1" stop-color="rgb(69.970703%, 46.658325%, 91.273499%)" offset="0.460937"/><stop stop-opacity="1" stop-color="rgb(70.503235%, 46.421814%, 91.285706%)" offset="0.464844"/><stop stop-opacity="1" stop-color="rgb(71.037292%, 46.186829%, 91.299438%)" offset="0.46875"/><stop stop-opacity="1" stop-color="rgb(71.569824%, 45.950317%, 91.311646%)" offset="0.472656"/><stop stop-opacity="1" stop-color="rgb(72.102356%, 45.715332%, 91.323853%)" offset="0.476562"/><stop stop-opacity="1" stop-color="rgb(72.634888%, 45.478821%, 91.33606%)" offset="0.480469"/><stop stop-opacity="1" stop-color="rgb(73.167419%, 45.24231%, 91.349792%)" offset="0.484375"/><stop stop-opacity="1" stop-color="rgb(73.699951%, 45.005798%, 91.362%)" offset="0.488281"/><stop stop-opacity="1" stop-color="rgb(74.234009%, 44.770813%, 91.374207%)" offset="0.492188"/><stop stop-opacity="1" stop-color="rgb(74.766541%, 44.534302%, 91.386414%)" offset="0.496094"/><stop stop-opacity="1" stop-color="rgb(75.299072%, 44.299316%, 91.398621%)" offset="0.5"/><stop stop-opacity="1" stop-color="rgb(75.45166%, 44.195557%, 90.960693%)" offset="0.503906"/><stop stop-opacity="1" stop-color="rgb(75.605774%, 44.091797%, 90.522766%)" offset="0.507812"/><stop stop-opacity="1" stop-color="rgb(75.758362%, 43.988037%, 90.083313%)" offset="0.511719"/><stop stop-opacity="1" stop-color="rgb(75.912476%, 43.884277%, 89.645386%)" offset="0.515625"/><stop stop-opacity="1" stop-color="rgb(76.065063%, 43.778992%, 89.207458%)" offset="0.519531"/><stop stop-opacity="1" stop-color="rgb(76.217651%, 43.675232%, 88.769531%)" offset="0.523437"/><stop stop-opacity="1" stop-color="rgb(76.370239%, 43.571472%, 88.331604%)" offset="0.527344"/><stop stop-opacity="1" stop-color="rgb(76.524353%, 43.467712%, 87.893677%)" offset="0.53125"/><stop stop-opacity="1" stop-color="rgb(76.676941%, 43.363953%, 87.454224%)" offset="0.535156"/><stop stop-opacity="1" stop-color="rgb(76.831055%, 43.260193%, 87.016296%)" offset="0.539062"/><stop stop-opacity="1" stop-color="rgb(76.983643%, 43.156433%, 86.578369%)" offset="0.542969"/><stop stop-opacity="1" stop-color="rgb(77.13623%, 43.052673%, 86.140442%)" offset="0.546875"/><stop stop-opacity="1" stop-color="rgb(77.288818%, 42.948914%, 85.700989%)" offset="0.550781"/><stop stop-opacity="1" stop-color="rgb(77.442932%, 42.845154%, 85.263062%)" offset="0.554687"/><stop stop-opacity="1" stop-color="rgb(77.59552%, 42.739868%, 84.825134%)" offset="0.558594"/><stop stop-opacity="1" stop-color="rgb(77.749634%, 42.636108%, 84.387207%)" offset="0.5625"/><stop stop-opacity="1" stop-color="rgb(77.902222%, 42.532349%, 83.947754%)" offset="0.566406"/><stop stop-opacity="1" stop-color="rgb(78.05481%, 42.428589%, 83.509827%)" offset="0.570312"/><stop stop-opacity="1" stop-color="rgb(78.207397%, 42.324829%, 83.071899%)" offset="0.574219"/><stop stop-opacity="1" stop-color="rgb(78.361511%, 42.221069%, 82.633972%)" offset="0.578125"/><stop stop-opacity="1" stop-color="rgb(78.514099%, 42.11731%, 82.194519%)" offset="0.582031"/><stop stop-opacity="1" stop-color="rgb(78.668213%, 42.01355%, 81.756592%)" offset="0.585937"/><stop stop-opacity="1" stop-color="rgb(78.820801%, 41.90979%, 81.318665%)" offset="0.589844"/><stop stop-opacity="1" stop-color="rgb(78.974915%, 41.80603%, 80.880737%)" offset="0.59375"/><stop stop-opacity="1" stop-color="rgb(79.127502%, 41.700745%, 80.441284%)" offset="0.597656"/><stop stop-opacity="1" stop-color="rgb(79.28009%, 41.596985%, 80.003357%)" offset="0.601562"/><stop stop-opacity="1" stop-color="rgb(79.432678%, 41.493225%, 79.56543%)" offset="0.605469"/><stop stop-opacity="1" stop-color="rgb(79.586792%, 41.389465%, 79.127502%)" offset="0.609375"/><stop stop-opacity="1" stop-color="rgb(79.73938%, 41.285706%, 78.688049%)" offset="0.613281"/><stop stop-opacity="1" stop-color="rgb(79.893494%, 41.181946%, 78.250122%)" offset="0.617187"/><stop stop-opacity="1" stop-color="rgb(80.046082%, 41.078186%, 77.812195%)" offset="0.621094"/><stop stop-opacity="1" stop-color="rgb(80.198669%, 40.974426%, 77.374268%)" offset="0.625"/><stop stop-opacity="1" stop-color="rgb(80.351257%, 40.870667%, 76.93634%)" offset="0.628906"/><stop stop-opacity="1" stop-color="rgb(80.505371%, 40.766907%, 76.498413%)" offset="0.632812"/><stop stop-opacity="1" stop-color="rgb(80.657959%, 40.661621%, 76.05896%)" offset="0.636719"/><stop stop-opacity="1" stop-color="rgb(80.812073%, 40.557861%, 75.621033%)" offset="0.640625"/><stop stop-opacity="1" stop-color="rgb(80.964661%, 40.454102%, 75.183105%)" offset="0.644531"/><stop stop-opacity="1" stop-color="rgb(81.117249%, 40.350342%, 74.745178%)" offset="0.648437"/><stop stop-opacity="1" stop-color="rgb(81.269836%, 40.246582%, 74.305725%)" offset="0.652344"/><stop stop-opacity="1" stop-color="rgb(81.42395%, 40.142822%, 73.867798%)" offset="0.65625"/><stop stop-opacity="1" stop-color="rgb(81.576538%, 40.039062%, 73.429871%)" offset="0.660156"/><stop stop-opacity="1" stop-color="rgb(81.730652%, 39.935303%, 72.991943%)" offset="0.664062"/><stop stop-opacity="1" stop-color="rgb(81.88324%, 39.831543%, 72.55249%)" offset="0.667969"/><stop stop-opacity="1" stop-color="rgb(82.037354%, 39.727783%, 72.114563%)" offset="0.671875"/><stop stop-opacity="1" stop-color="rgb(82.189941%, 39.624023%, 71.676636%)" offset="0.675781"/><stop stop-opacity="1" stop-color="rgb(82.342529%, 39.520264%, 71.238708%)" offset="0.679687"/><stop stop-opacity="1" stop-color="rgb(82.495117%, 39.414978%, 70.799255%)" offset="0.683594"/><stop stop-opacity="1" stop-color="rgb(82.649231%, 39.311218%, 70.361328%)" offset="0.6875"/><stop stop-opacity="1" stop-color="rgb(82.801819%, 39.207458%, 69.923401%)" offset="0.691406"/><stop stop-opacity="1" stop-color="rgb(82.955933%, 39.103699%, 69.485474%)" offset="0.695312"/><stop stop-opacity="1" stop-color="rgb(83.108521%, 38.999939%, 69.046021%)" offset="0.699219"/><stop stop-opacity="1" stop-color="rgb(83.261108%, 38.896179%, 68.608093%)" offset="0.703125"/><stop stop-opacity="1" stop-color="rgb(83.413696%, 38.792419%, 68.170166%)" offset="0.707031"/><stop stop-opacity="1" stop-color="rgb(83.56781%, 38.68866%, 67.732239%)" offset="0.710937"/><stop stop-opacity="1" stop-color="rgb(83.720398%, 38.5849%, 67.292786%)" offset="0.714844"/><stop stop-opacity="1" stop-color="rgb(83.874512%, 38.48114%, 66.854858%)" offset="0.71875"/><stop stop-opacity="1" stop-color="rgb(84.0271%, 38.375854%, 66.416931%)" offset="0.722656"/><stop stop-opacity="1" stop-color="rgb(84.181213%, 38.272095%, 65.979004%)" offset="0.726563"/><stop stop-opacity="1" stop-color="rgb(84.333801%, 38.168335%, 65.539551%)" offset="0.730469"/><stop stop-opacity="1" stop-color="rgb(84.486389%, 38.064575%, 65.101624%)" offset="0.734375"/><stop stop-opacity="1" stop-color="rgb(84.638977%, 37.960815%, 64.663696%)" offset="0.738281"/><stop stop-opacity="1" stop-color="rgb(84.793091%, 37.857056%, 64.225769%)" offset="0.742188"/><stop stop-opacity="1" stop-color="rgb(84.945679%, 37.753296%, 63.787842%)" offset="0.746094"/><stop stop-opacity="1" stop-color="rgb(85.099792%, 37.649536%, 63.349915%)" offset="0.75"/><stop stop-opacity="1" stop-color="rgb(85.25238%, 37.545776%, 62.910461%)" offset="0.753906"/><stop stop-opacity="1" stop-color="rgb(85.404968%, 37.442017%, 62.472534%)" offset="0.757813"/><stop stop-opacity="1" stop-color="rgb(85.557556%, 37.336731%, 62.034607%)" offset="0.761719"/><stop stop-opacity="1" stop-color="rgb(85.71167%, 37.232971%, 61.59668%)" offset="0.765625"/><stop stop-opacity="1" stop-color="rgb(85.864258%, 37.129211%, 61.157227%)" offset="0.769531"/><stop stop-opacity="1" stop-color="rgb(86.018372%, 37.025452%, 60.719299%)" offset="0.773438"/><stop stop-opacity="1" stop-color="rgb(86.170959%, 36.921692%, 60.281372%)" offset="0.777344"/><stop stop-opacity="1" stop-color="rgb(86.323547%, 36.817932%, 59.843445%)" offset="0.78125"/><stop stop-opacity="1" stop-color="rgb(86.476135%, 36.714172%, 59.403992%)" offset="0.785156"/><stop stop-opacity="1" stop-color="rgb(86.630249%, 36.610413%, 58.966064%)" offset="0.789063"/><stop stop-opacity="1" stop-color="rgb(86.782837%, 36.506653%, 58.528137%)" offset="0.792969"/><stop stop-opacity="1" stop-color="rgb(86.936951%, 36.402893%, 58.09021%)" offset="0.796875"/><stop stop-opacity="1" stop-color="rgb(87.089539%, 36.297607%, 57.650757%)" offset="0.800781"/><stop stop-opacity="1" stop-color="rgb(87.243652%, 36.193848%, 57.21283%)" offset="0.804688"/><stop stop-opacity="1" stop-color="rgb(87.39624%, 36.090088%, 56.774902%)" offset="0.808594"/><stop stop-opacity="1" stop-color="rgb(87.548828%, 35.986328%, 56.336975%)" offset="0.8125"/><stop stop-opacity="1" stop-color="rgb(87.701416%, 35.882568%, 55.897522%)" offset="0.816406"/><stop stop-opacity="1" stop-color="rgb(87.85553%, 35.778809%, 55.459595%)" offset="0.820313"/><stop stop-opacity="1" stop-color="rgb(88.008118%, 35.675049%, 55.021667%)" offset="0.824219"/><stop stop-opacity="1" stop-color="rgb(88.162231%, 35.571289%, 54.58374%)" offset="0.828125"/><stop stop-opacity="1" stop-color="rgb(88.314819%, 35.467529%, 54.144287%)" offset="0.832031"/><stop stop-opacity="1" stop-color="rgb(88.467407%, 35.36377%, 53.70636%)" offset="0.835938"/><stop stop-opacity="1" stop-color="rgb(88.619995%, 35.258484%, 53.268433%)" offset="0.839844"/><stop stop-opacity="1" stop-color="rgb(88.774109%, 35.154724%, 52.830505%)" offset="0.84375"/><stop stop-opacity="1" stop-color="rgb(88.926697%, 35.050964%, 52.392578%)" offset="0.847656"/><stop stop-opacity="1" stop-color="rgb(89.080811%, 34.947205%, 51.954651%)" offset="0.851562"/><stop stop-opacity="1" stop-color="rgb(89.233398%, 34.843445%, 51.515198%)" offset="0.855469"/><stop stop-opacity="1" stop-color="rgb(89.385986%, 34.739685%, 51.077271%)" offset="0.859375"/><stop stop-opacity="1" stop-color="rgb(89.538574%, 34.635925%, 50.639343%)" offset="0.863281"/><stop stop-opacity="1" stop-color="rgb(89.692688%, 34.532166%, 50.201416%)" offset="0.867188"/><stop stop-opacity="1" stop-color="rgb(89.845276%, 34.428406%, 49.761963%)" offset="0.871094"/><stop stop-opacity="1" stop-color="rgb(89.99939%, 34.324646%, 49.324036%)" offset="0.875"/><stop stop-opacity="1" stop-color="rgb(90.151978%, 34.220886%, 48.886108%)" offset="0.878906"/><stop stop-opacity="1" stop-color="rgb(90.306091%, 34.117126%, 48.448181%)" offset="0.882812"/><stop stop-opacity="1" stop-color="rgb(90.458679%, 34.011841%, 48.008728%)" offset="0.886719"/><stop stop-opacity="1" stop-color="rgb(90.611267%, 33.908081%, 47.570801%)" offset="0.890625"/><stop stop-opacity="1" stop-color="rgb(90.763855%, 33.804321%, 47.132874%)" offset="0.894531"/><stop stop-opacity="1" stop-color="rgb(90.917969%, 33.700562%, 46.694946%)" offset="0.898438"/><stop stop-opacity="1" stop-color="rgb(91.070557%, 33.596802%, 46.255493%)" offset="0.902344"/><stop stop-opacity="1" stop-color="rgb(91.22467%, 33.493042%, 45.817566%)" offset="0.90625"/><stop stop-opacity="1" stop-color="rgb(91.377258%, 33.389282%, 45.379639%)" offset="0.910156"/><stop stop-opacity="1" stop-color="rgb(91.529846%, 33.285522%, 44.941711%)" offset="0.914062"/><stop stop-opacity="1" stop-color="rgb(91.682434%, 33.181763%, 44.502258%)" offset="0.917969"/><stop stop-opacity="1" stop-color="rgb(91.836548%, 33.078003%, 44.064331%)" offset="0.921875"/><stop stop-opacity="1" stop-color="rgb(91.989136%, 32.972717%, 43.626404%)" offset="0.925781"/><stop stop-opacity="1" stop-color="rgb(92.14325%, 32.868958%, 43.188477%)" offset="0.929687"/><stop stop-opacity="1" stop-color="rgb(92.295837%, 32.765198%, 42.749023%)" offset="0.933594"/><stop stop-opacity="1" stop-color="rgb(92.449951%, 32.661438%, 42.311096%)" offset="0.9375"/><stop stop-opacity="1" stop-color="rgb(92.602539%, 32.557678%, 41.873169%)" offset="0.941406"/><stop stop-opacity="1" stop-color="rgb(92.755127%, 32.453918%, 41.435242%)" offset="0.945312"/><stop stop-opacity="1" stop-color="rgb(92.907715%, 32.350159%, 40.995789%)" offset="0.949219"/><stop stop-opacity="1" stop-color="rgb(93.061829%, 32.246399%, 40.557861%)" offset="0.953125"/><stop stop-opacity="1" stop-color="rgb(93.214417%, 32.142639%, 40.119934%)" offset="0.957031"/><stop stop-opacity="1" stop-color="rgb(93.36853%, 32.038879%, 39.682007%)" offset="0.960937"/><stop stop-opacity="1" stop-color="rgb(93.521118%, 31.933594%, 39.24408%)" offset="0.964844"/><stop stop-opacity="1" stop-color="rgb(93.673706%, 31.829834%, 38.806152%)" offset="0.96875"/><stop stop-opacity="1" stop-color="rgb(93.826294%, 31.726074%, 38.366699%)" offset="0.972656"/><stop stop-opacity="1" stop-color="rgb(93.980408%, 31.622314%, 37.928772%)" offset="0.976562"/><stop stop-opacity="1" stop-color="rgb(94.132996%, 31.518555%, 37.490845%)" offset="0.980469"/><stop stop-opacity="1" stop-color="rgb(94.287109%, 31.414795%, 37.052917%)" offset="0.984375"/><stop stop-opacity="1" stop-color="rgb(94.439697%, 31.311035%, 36.613464%)" offset="0.988281"/><stop stop-opacity="1" stop-color="rgb(94.592285%, 31.207275%, 36.175537%)" offset="0.992187"/><stop stop-opacity="1" stop-color="rgb(94.744873%, 31.103516%, 35.73761%)" offset="0.996094"/><stop stop-opacity="1" stop-color="rgb(94.898987%, 30.999756%, 35.299683%)" offset="1"/></linearGradient></defs><g clip-path="url(#1ef1e7d3d8)"><g clip-path="url(#3d811408a0)"><path fill="url(#4ba9fc52e8)" d="M 2.699219 1.496094 L 2.699219 73.46875 L 72.449219 73.46875 L 72.449219 1.496094 Z M 2.699219 1.496094 " fill-rule="nonzero"/></g></g></svg>