<svg xmlns="http://www.w3.org/2000/svg" xmlns:xlink="http://www.w3.org/1999/xlink" width="100" zoomAndPan="magnify" viewBox="0 0 75 74.999997" height="100" preserveAspectRatio="xMidYMid meet" version="1.0"><defs><clipPath id="0ffbf1bc0d"><path d="M 1.589844 1.589844 L 73.589844 1.589844 L 73.589844 73.589844 L 1.589844 73.589844 Z M 1.589844 1.589844 " clip-rule="nonzero"/></clipPath><clipPath id="f918a46ceb"><path d="M 72.410156 12.851562 L 69.320312 12.851562 C 69.234375 12.628906 69.136719 12.417969 69.039062 12.191406 L 70.964844 10.265625 C 71.398438 9.832031 71.398438 9.113281 70.964844 8.679688 L 66.464844 4.183594 C 66.03125 3.746094 65.3125 3.746094 64.878906 4.183594 L 62.953125 6.109375 C 62.742188 6.011719 62.519531 5.910156 62.292969 5.828125 L 62.292969 2.734375 C 62.292969 2.117188 61.789062 1.613281 61.167969 1.613281 L 54.425781 1.613281 C 53.804688 1.613281 53.300781 2.117188 53.300781 2.734375 L 53.300781 5.828125 C 53.074219 5.910156 52.863281 6.011719 52.640625 6.109375 L 50.714844 4.183594 C 50.277344 3.746094 49.5625 3.746094 49.125 4.183594 L 44.628906 8.679688 C 44.195312 9.113281 44.195312 9.832031 44.628906 10.265625 L 46.554688 12.191406 C 46.457031 12.402344 46.359375 12.628906 46.273438 12.851562 L 43.183594 12.851562 C 42.566406 12.851562 42.058594 13.359375 42.058594 13.976562 L 42.058594 20.722656 C 42.058594 21.339844 42.566406 21.847656 43.183594 21.847656 L 46.273438 21.847656 C 46.359375 22.070312 46.457031 22.28125 46.554688 22.507812 L 44.628906 24.429688 C 44.195312 24.867188 44.195312 25.582031 44.628906 26.019531 L 49.125 30.515625 C 49.5625 30.953125 50.277344 30.953125 50.714844 30.515625 L 52.640625 28.589844 C 52.851562 28.6875 53.074219 28.789062 53.300781 28.871094 L 53.300781 31.964844 C 53.300781 32.582031 53.804688 33.085938 54.425781 33.085938 L 61.167969 33.085938 C 61.789062 33.085938 62.292969 32.582031 62.292969 31.964844 L 62.292969 28.871094 C 62.519531 28.789062 62.730469 28.6875 62.953125 28.589844 L 64.878906 30.515625 C 65.3125 30.953125 66.03125 30.953125 66.464844 30.515625 L 70.964844 26.019531 C 71.398438 25.582031 71.398438 24.867188 70.964844 24.429688 L 69.039062 22.507812 C 69.136719 22.296875 69.234375 22.070312 69.320312 21.847656 L 72.410156 21.847656 C 73.027344 21.847656 73.535156 21.339844 73.535156 20.722656 L 73.535156 13.976562 C 73.535156 13.359375 73.027344 12.851562 72.410156 12.851562 Z M 71.285156 19.597656 L 68.519531 19.597656 C 68.027344 19.597656 67.589844 19.921875 67.449219 20.382812 C 67.253906 21.003906 67 21.605469 66.691406 22.183594 C 66.453125 22.617188 66.535156 23.167969 66.886719 23.519531 L 68.589844 25.21875 L 65.664062 28.125 L 63.964844 26.425781 C 63.613281 26.074219 63.066406 25.992188 62.628906 26.230469 C 62.054688 26.539062 61.449219 26.804688 60.832031 26.988281 C 60.367188 27.128906 60.042969 27.566406 60.042969 28.054688 L 60.042969 30.839844 L 55.546875 30.839844 L 55.546875 28.070312 C 55.546875 27.578125 55.226562 27.144531 54.761719 27.003906 C 54.144531 26.804688 53.539062 26.554688 52.964844 26.242188 C 52.527344 26.003906 51.980469 26.089844 51.628906 26.441406 L 49.929688 28.125 L 47.019531 25.21875 L 48.71875 23.519531 C 49.070312 23.167969 49.15625 22.617188 48.917969 22.183594 C 48.605469 21.605469 48.339844 21.003906 48.15625 20.382812 C 48.015625 19.921875 47.582031 19.597656 47.089844 19.597656 L 44.308594 19.597656 L 44.308594 15.101562 L 47.074219 15.101562 C 47.566406 15.101562 48.003906 14.777344 48.144531 14.3125 C 48.339844 13.695312 48.59375 13.089844 48.902344 12.515625 C 49.140625 12.078125 49.054688 11.53125 48.707031 11.179688 L 47.019531 9.480469 L 49.929688 6.570312 L 51.628906 8.273438 C 51.980469 8.625 52.527344 8.707031 52.964844 8.46875 C 53.539062 8.160156 54.144531 7.894531 54.761719 7.710938 C 55.226562 7.570312 55.546875 7.132812 55.546875 6.640625 L 55.546875 3.859375 L 60.042969 3.859375 L 60.042969 6.628906 C 60.042969 7.121094 60.367188 7.554688 60.832031 7.695312 C 61.449219 7.894531 62.054688 8.144531 62.628906 8.453125 C 63.066406 8.695312 63.613281 8.609375 63.964844 8.257812 L 65.664062 6.570312 L 68.574219 9.480469 L 66.875 11.179688 C 66.523438 11.53125 66.4375 12.078125 66.675781 12.515625 C 66.988281 13.089844 67.253906 13.695312 67.4375 14.3125 C 67.578125 14.777344 68.011719 15.101562 68.503906 15.101562 L 71.285156 15.101562 Z M 57.796875 8.355469 C 52.835938 8.355469 48.804688 12.390625 48.804688 17.347656 C 48.804688 22.308594 52.835938 26.34375 57.796875 26.34375 C 62.757812 26.34375 66.789062 22.308594 66.789062 17.347656 C 66.789062 12.390625 62.757812 8.355469 57.796875 8.355469 Z M 57.796875 24.09375 C 54.074219 24.09375 51.050781 21.074219 51.050781 17.347656 C 51.050781 13.625 54.074219 10.605469 57.796875 10.605469 C 61.519531 10.605469 64.542969 13.625 64.542969 17.347656 C 64.542969 21.074219 61.519531 24.09375 57.796875 24.09375 Z M 57.796875 12.851562 C 55.324219 12.851562 53.300781 14.875 53.300781 17.347656 C 53.300781 19.824219 55.324219 21.847656 57.796875 21.847656 C 60.269531 21.847656 62.292969 19.824219 62.292969 17.347656 C 62.292969 14.875 60.269531 12.851562 57.796875 12.851562 Z M 57.796875 19.597656 C 56.558594 19.597656 55.546875 18.585938 55.546875 17.347656 C 55.546875 16.113281 56.558594 15.101562 57.796875 15.101562 C 59.03125 15.101562 60.042969 16.113281 60.042969 17.347656 C 60.042969 18.585938 59.03125 19.597656 57.796875 19.597656 Z M 56.671875 57.816406 C 53.566406 57.816406 51.050781 60.332031 51.050781 63.4375 C 51.050781 66.542969 53.566406 69.058594 56.671875 69.058594 C 59.777344 69.058594 62.292969 66.542969 62.292969 63.4375 C 62.292969 60.332031 59.777344 57.816406 56.671875 57.816406 Z M 56.671875 66.8125 C 54.816406 66.8125 53.300781 65.292969 53.300781 63.4375 C 53.300781 61.582031 54.816406 60.066406 56.671875 60.066406 C 58.527344 60.066406 60.042969 61.582031 60.042969 63.4375 C 60.042969 65.292969 58.527344 66.8125 56.671875 66.8125 Z M 6.085938 34.210938 C 6.085938 33.59375 6.59375 33.085938 7.210938 33.085938 C 7.828125 33.085938 8.335938 33.59375 8.335938 34.210938 C 8.335938 34.828125 7.828125 35.335938 7.210938 35.335938 C 6.59375 35.335938 6.085938 34.828125 6.085938 34.210938 Z M 57.796875 63.4375 C 57.796875 64.054688 57.289062 64.5625 56.671875 64.5625 C 56.054688 64.5625 55.546875 64.054688 55.546875 63.4375 C 55.546875 62.820312 56.054688 62.3125 56.671875 62.3125 C 57.289062 62.3125 57.796875 62.820312 57.796875 63.4375 Z M 6.085938 40.957031 C 6.085938 40.335938 6.59375 39.832031 7.210938 39.832031 C 7.828125 39.832031 8.335938 40.335938 8.335938 40.957031 C 8.335938 41.574219 7.828125 42.078125 7.210938 42.078125 C 6.59375 42.078125 6.085938 41.574219 6.085938 40.957031 Z M 8.335938 47.699219 C 8.335938 48.320312 7.828125 48.824219 7.210938 48.824219 C 6.59375 48.824219 6.085938 48.320312 6.085938 47.699219 C 6.085938 47.082031 6.59375 46.578125 7.210938 46.578125 C 7.828125 46.578125 8.335938 47.082031 8.335938 47.699219 Z M 61.167969 35.335938 L 54.425781 35.335938 C 53.804688 35.335938 53.300781 35.839844 53.300781 36.460938 L 53.300781 44.328125 L 51.050781 44.328125 C 50.601562 44.328125 50.179688 44.59375 50.011719 45.015625 C 49.84375 45.4375 49.929688 45.917969 50.25 46.238281 L 56.996094 52.984375 C 57.21875 53.207031 57.5 53.308594 57.796875 53.308594 C 58.089844 53.308594 58.371094 53.195312 58.597656 52.984375 L 65.34375 46.238281 C 65.664062 45.917969 65.765625 45.4375 65.582031 45.015625 C 65.398438 44.59375 64.992188 44.328125 64.542969 44.328125 L 62.292969 44.328125 L 62.292969 36.460938 C 62.292969 35.839844 61.789062 35.335938 61.167969 35.335938 Z M 57.796875 50.609375 L 53.765625 46.578125 L 54.425781 46.578125 C 55.042969 46.578125 55.546875 46.070312 55.546875 45.453125 L 55.546875 37.582031 L 60.042969 37.582031 L 60.042969 45.453125 C 60.042969 46.070312 60.550781 46.578125 61.167969 46.578125 L 61.828125 46.578125 Z M 22.316406 51.929688 C 22.976562 51.664062 23.566406 51.367188 24.074219 51.042969 L 24.074219 54.964844 C 24.074219 55.414062 24.339844 55.835938 24.761719 56.003906 C 25.183594 56.171875 25.660156 56.089844 25.984375 55.765625 L 27.570312 54.179688 L 33.136719 59.742188 C 33.359375 59.96875 33.640625 60.066406 33.9375 60.066406 C 34.230469 60.066406 34.511719 59.953125 34.738281 59.742188 L 39.5 54.980469 C 39.9375 54.542969 39.9375 53.828125 39.5 53.390625 L 33.9375 47.828125 L 35.523438 46.238281 C 35.847656 45.917969 35.945312 45.4375 35.765625 45.015625 C 35.582031 44.59375 35.171875 44.328125 34.722656 44.328125 L 26.308594 44.328125 L 26.308594 30.839844 L 34.722656 30.839844 C 35.171875 30.839844 35.59375 30.570312 35.765625 30.148438 C 35.933594 29.730469 35.847656 29.25 35.523438 28.929688 L 33.9375 27.324219 L 39.5 21.761719 C 39.9375 21.324219 39.9375 20.609375 39.5 20.171875 L 34.738281 15.410156 C 34.300781 14.976562 33.585938 14.976562 33.148438 15.410156 L 27.585938 20.976562 L 26 19.386719 C 25.675781 19.0625 25.195312 18.964844 24.777344 19.148438 C 24.355469 19.316406 24.085938 19.738281 24.085938 20.1875 L 24.085938 24.136719 C 23.582031 23.8125 22.992188 23.519531 22.332031 23.25 C 20.082031 22.351562 17.101562 21.859375 13.96875 21.859375 C 10.835938 21.859375 7.859375 22.351562 5.609375 23.25 C 3.011719 24.277344 1.589844 25.78125 1.589844 27.464844 L 1.589844 47.699219 C 1.589844 49.386719 3.011719 50.890625 5.59375 51.929688 C 7.84375 52.828125 10.824219 53.320312 13.957031 53.320312 C 17.089844 53.320312 20.066406 52.828125 22.316406 51.929688 Z M 26.320312 22.886719 L 26.785156 23.347656 C 27.21875 23.785156 27.9375 23.785156 28.371094 23.347656 L 33.9375 17.785156 L 37.113281 20.960938 L 31.546875 26.523438 C 31.113281 26.960938 31.113281 27.675781 31.546875 28.113281 L 32.011719 28.578125 L 26.320312 28.578125 Z M 26.320312 46.546875 L 32.027344 46.546875 L 31.5625 47.011719 C 31.125 47.449219 31.125 48.164062 31.5625 48.601562 L 37.125 54.164062 L 33.953125 57.339844 L 28.386719 51.777344 C 28.160156 51.550781 27.882812 51.453125 27.585938 51.453125 C 27.289062 51.453125 27.011719 51.566406 26.785156 51.777344 L 26.320312 52.238281 Z M 13.957031 24.09375 C 20.136719 24.09375 24.074219 26.089844 24.074219 27.464844 C 24.074219 28.84375 20.136719 30.839844 13.957031 30.839844 C 7.773438 30.839844 3.839844 28.84375 3.839844 27.464844 C 3.839844 26.089844 7.773438 24.09375 13.957031 24.09375 Z M 3.839844 30.8125 C 4.34375 31.132812 4.933594 31.429688 5.59375 31.695312 C 7.84375 32.59375 10.824219 33.085938 13.957031 33.085938 C 17.089844 33.085938 20.066406 32.59375 22.316406 31.695312 C 22.976562 31.429688 23.566406 31.132812 24.074219 30.8125 L 24.074219 34.210938 C 24.074219 35.589844 20.136719 37.582031 13.957031 37.582031 C 7.773438 37.582031 3.839844 35.589844 3.839844 34.210938 Z M 3.839844 37.554688 C 4.34375 37.878906 4.933594 38.171875 5.59375 38.441406 C 7.84375 39.339844 10.824219 39.832031 13.957031 39.832031 C 17.089844 39.832031 20.066406 39.339844 22.316406 38.441406 C 22.976562 38.171875 23.566406 37.878906 24.074219 37.554688 L 24.074219 40.957031 C 24.074219 42.332031 20.136719 44.328125 13.957031 44.328125 C 7.773438 44.328125 3.839844 42.332031 3.839844 40.957031 Z M 3.839844 47.699219 L 3.839844 44.300781 C 4.34375 44.625 4.933594 44.917969 5.59375 45.183594 C 7.84375 46.085938 10.824219 46.578125 13.957031 46.578125 C 17.089844 46.578125 20.066406 46.085938 22.316406 45.183594 C 22.976562 44.917969 23.566406 44.625 24.074219 44.300781 L 24.074219 47.699219 C 24.074219 49.078125 20.136719 51.074219 13.957031 51.074219 C 7.773438 51.074219 3.839844 49.078125 3.839844 47.699219 Z M 69.066406 58.085938 C 65.355469 54.964844 61.070312 53.320312 56.671875 53.320312 C 52.273438 53.320312 47.988281 54.964844 44.277344 58.085938 C 41.511719 60.417969 40.035156 62.75 39.980469 62.847656 C 39.753906 63.214844 39.753906 63.675781 39.980469 64.042969 C 40.035156 64.140625 41.511719 66.472656 44.277344 68.804688 C 47.976562 71.925781 52.261719 73.570312 56.671875 73.570312 C 61.085938 73.570312 65.355469 71.925781 69.066406 68.804688 C 71.835938 66.472656 73.308594 64.140625 73.367188 64.042969 C 73.589844 63.675781 73.589844 63.214844 73.367188 62.847656 C 73.296875 62.75 71.835938 60.417969 69.066406 58.085938 Z M 67.5625 67.121094 C 64.230469 69.902344 60.578125 71.308594 56.671875 71.308594 C 52.765625 71.308594 49.113281 69.902344 45.78125 67.121094 C 44.066406 65.6875 42.875 64.226562 42.296875 63.4375 C 42.875 62.652344 44.066406 61.191406 45.78125 59.757812 C 49.113281 56.976562 52.765625 55.570312 56.671875 55.570312 C 60.578125 55.570312 64.230469 56.976562 67.5625 59.757812 C 69.277344 61.191406 70.472656 62.652344 71.046875 63.4375 C 70.457031 64.226562 69.277344 65.6875 67.5625 67.121094 Z M 67.5625 67.121094 " clip-rule="nonzero"/></clipPath><linearGradient x1="256" gradientTransform="matrix(0.140515, 0, 0, 0.140515, 1.590569, 1.611648)" y1="512.099951" x2="256" gradientUnits="userSpaceOnUse" y2="-0.00000281217" id="43b0b29f40"><stop stop-opacity="1" stop-color="rgb(7.099915%, 74.499512%, 89.7995%)" offset="0"/><stop stop-opacity="1" stop-color="rgb(7.618713%, 74.269104%, 89.811707%)" offset="0.00390625"/><stop stop-opacity="1" stop-color="rgb(8.139038%, 74.038696%, 89.823914%)" offset="0.0078125"/><stop stop-opacity="1" stop-color="rgb(8.67157%, 73.802185%, 89.836121%)" offset="0.0117188"/><stop stop-opacity="1" stop-color="rgb(9.204102%, 73.5672%, 89.848328%)" offset="0.015625"/><stop stop-opacity="1" stop-color="rgb(9.736633%, 73.330688%, 89.860535%)" offset="0.0195312"/><stop stop-opacity="1" stop-color="rgb(10.270691%, 73.095703%, 89.874268%)" offset="0.0234375"/><stop stop-opacity="1" stop-color="rgb(10.803223%, 72.859192%, 89.886475%)" offset="0.0273438"/><stop stop-opacity="1" stop-color="rgb(11.335754%, 72.622681%, 89.898682%)" offset="0.03125"/><stop stop-opacity="1" stop-color="rgb(11.868286%, 72.386169%, 89.910889%)" offset="0.0351562"/><stop stop-opacity="1" stop-color="rgb(12.402344%, 72.151184%, 89.923096%)" offset="0.0390625"/><stop stop-opacity="1" stop-color="rgb(12.934875%, 71.914673%, 89.935303%)" offset="0.0429688"/><stop stop-opacity="1" stop-color="rgb(13.467407%, 71.679688%, 89.949036%)" offset="0.046875"/><stop stop-opacity="1" stop-color="rgb(13.999939%, 71.443176%, 89.961243%)" offset="0.0507812"/><stop stop-opacity="1" stop-color="rgb(14.533997%, 71.206665%, 89.97345%)" offset="0.0546875"/><stop stop-opacity="1" stop-color="rgb(15.066528%, 70.970154%, 89.985657%)" offset="0.0585938"/><stop stop-opacity="1" stop-color="rgb(15.59906%, 70.735168%, 89.99939%)" offset="0.0625"/><stop stop-opacity="1" stop-color="rgb(16.131592%, 70.498657%, 90.011597%)" offset="0.0664062"/><stop stop-opacity="1" stop-color="rgb(16.665649%, 70.263672%, 90.023804%)" offset="0.0703125"/><stop stop-opacity="1" stop-color="rgb(17.198181%, 70.027161%, 90.036011%)" offset="0.0742188"/><stop stop-opacity="1" stop-color="rgb(17.730713%, 69.790649%, 90.048218%)" offset="0.078125"/><stop stop-opacity="1" stop-color="rgb(18.263245%, 69.554138%, 90.060425%)" offset="0.0820313"/><stop stop-opacity="1" stop-color="rgb(18.797302%, 69.319153%, 90.074158%)" offset="0.0859375"/><stop stop-opacity="1" stop-color="rgb(19.329834%, 69.082642%, 90.086365%)" offset="0.0898438"/><stop stop-opacity="1" stop-color="rgb(19.862366%, 68.847656%, 90.098572%)" offset="0.09375"/><stop stop-opacity="1" stop-color="rgb(20.394897%, 68.611145%, 90.110779%)" offset="0.0976562"/><stop stop-opacity="1" stop-color="rgb(20.928955%, 68.37616%, 90.122986%)" offset="0.101562"/><stop stop-opacity="1" stop-color="rgb(21.461487%, 68.139648%, 90.135193%)" offset="0.105469"/><stop stop-opacity="1" stop-color="rgb(21.994019%, 67.903137%, 90.148926%)" offset="0.109375"/><stop stop-opacity="1" stop-color="rgb(22.52655%, 67.666626%, 90.161133%)" offset="0.113281"/><stop stop-opacity="1" stop-color="rgb(23.060608%, 67.431641%, 90.17334%)" offset="0.117188"/><stop stop-opacity="1" stop-color="rgb(23.59314%, 67.195129%, 90.185547%)" offset="0.121094"/><stop stop-opacity="1" stop-color="rgb(24.125671%, 66.960144%, 90.19928%)" offset="0.125"/><stop stop-opacity="1" stop-color="rgb(24.658203%, 66.723633%, 90.211487%)" offset="0.128906"/><stop stop-opacity="1" stop-color="rgb(25.192261%, 66.487122%, 90.223694%)" offset="0.132812"/><stop stop-opacity="1" stop-color="rgb(25.724792%, 66.25061%, 90.235901%)" offset="0.136719"/><stop stop-opacity="1" stop-color="rgb(26.257324%, 66.015625%, 90.248108%)" offset="0.140625"/><stop stop-opacity="1" stop-color="rgb(26.789856%, 65.779114%, 90.260315%)" offset="0.144531"/><stop stop-opacity="1" stop-color="rgb(27.323914%, 65.544128%, 90.274048%)" offset="0.148438"/><stop stop-opacity="1" stop-color="rgb(27.856445%, 65.307617%, 90.286255%)" offset="0.152344"/><stop stop-opacity="1" stop-color="rgb(28.388977%, 65.071106%, 90.298462%)" offset="0.15625"/><stop stop-opacity="1" stop-color="rgb(28.921509%, 64.834595%, 90.310669%)" offset="0.160156"/><stop stop-opacity="1" stop-color="rgb(29.455566%, 64.599609%, 90.324402%)" offset="0.164063"/><stop stop-opacity="1" stop-color="rgb(29.988098%, 64.363098%, 90.336609%)" offset="0.167969"/><stop stop-opacity="1" stop-color="rgb(30.52063%, 64.128113%, 90.348816%)" offset="0.171875"/><stop stop-opacity="1" stop-color="rgb(31.053162%, 63.891602%, 90.361023%)" offset="0.175781"/><stop stop-opacity="1" stop-color="rgb(31.587219%, 63.65509%, 90.37323%)" offset="0.179688"/><stop stop-opacity="1" stop-color="rgb(32.119751%, 63.418579%, 90.385437%)" offset="0.183594"/><stop stop-opacity="1" stop-color="rgb(32.652283%, 63.183594%, 90.39917%)" offset="0.1875"/><stop stop-opacity="1" stop-color="rgb(33.184814%, 62.947083%, 90.411377%)" offset="0.191406"/><stop stop-opacity="1" stop-color="rgb(33.718872%, 62.712097%, 90.423584%)" offset="0.195312"/><stop stop-opacity="1" stop-color="rgb(34.251404%, 62.475586%, 90.435791%)" offset="0.199219"/><stop stop-opacity="1" stop-color="rgb(34.783936%, 62.240601%, 90.447998%)" offset="0.203125"/><stop stop-opacity="1" stop-color="rgb(35.316467%, 62.004089%, 90.460205%)" offset="0.207031"/><stop stop-opacity="1" stop-color="rgb(35.850525%, 61.767578%, 90.473938%)" offset="0.210937"/><stop stop-opacity="1" stop-color="rgb(36.383057%, 61.531067%, 90.486145%)" offset="0.214844"/><stop stop-opacity="1" stop-color="rgb(36.915588%, 61.296082%, 90.498352%)" offset="0.21875"/><stop stop-opacity="1" stop-color="rgb(37.44812%, 61.05957%, 90.510559%)" offset="0.222656"/><stop stop-opacity="1" stop-color="rgb(37.982178%, 60.824585%, 90.524292%)" offset="0.226562"/><stop stop-opacity="1" stop-color="rgb(38.514709%, 60.588074%, 90.536499%)" offset="0.230469"/><stop stop-opacity="1" stop-color="rgb(39.047241%, 60.351562%, 90.548706%)" offset="0.234375"/><stop stop-opacity="1" stop-color="rgb(39.579773%, 60.115051%, 90.560913%)" offset="0.238281"/><stop stop-opacity="1" stop-color="rgb(40.113831%, 59.880066%, 90.57312%)" offset="0.242188"/><stop stop-opacity="1" stop-color="rgb(40.646362%, 59.643555%, 90.585327%)" offset="0.246094"/><stop stop-opacity="1" stop-color="rgb(41.178894%, 59.408569%, 90.59906%)" offset="0.25"/><stop stop-opacity="1" stop-color="rgb(41.711426%, 59.172058%, 90.611267%)" offset="0.253906"/><stop stop-opacity="1" stop-color="rgb(42.245483%, 58.935547%, 90.623474%)" offset="0.257812"/><stop stop-opacity="1" stop-color="rgb(42.778015%, 58.699036%, 90.635681%)" offset="0.261719"/><stop stop-opacity="1" stop-color="rgb(43.310547%, 58.46405%, 90.649414%)" offset="0.265625"/><stop stop-opacity="1" stop-color="rgb(43.843079%, 58.227539%, 90.661621%)" offset="0.269531"/><stop stop-opacity="1" stop-color="rgb(44.377136%, 57.992554%, 90.673828%)" offset="0.273438"/><stop stop-opacity="1" stop-color="rgb(44.909668%, 57.756042%, 90.686035%)" offset="0.277344"/><stop stop-opacity="1" stop-color="rgb(45.4422%, 57.519531%, 90.698242%)" offset="0.28125"/><stop stop-opacity="1" stop-color="rgb(45.974731%, 57.28302%, 90.710449%)" offset="0.285156"/><stop stop-opacity="1" stop-color="rgb(46.508789%, 57.048035%, 90.724182%)" offset="0.289062"/><stop stop-opacity="1" stop-color="rgb(47.041321%, 56.811523%, 90.736389%)" offset="0.292969"/><stop stop-opacity="1" stop-color="rgb(47.573853%, 56.576538%, 90.748596%)" offset="0.296875"/><stop stop-opacity="1" stop-color="rgb(48.106384%, 56.340027%, 90.760803%)" offset="0.300781"/><stop stop-opacity="1" stop-color="rgb(48.640442%, 56.105042%, 90.774536%)" offset="0.304688"/><stop stop-opacity="1" stop-color="rgb(49.172974%, 55.86853%, 90.786743%)" offset="0.308594"/><stop stop-opacity="1" stop-color="rgb(49.705505%, 55.632019%, 90.79895%)" offset="0.3125"/><stop stop-opacity="1" stop-color="rgb(50.238037%, 55.395508%, 90.811157%)" offset="0.316406"/><stop stop-opacity="1" stop-color="rgb(50.772095%, 55.160522%, 90.823364%)" offset="0.320313"/><stop stop-opacity="1" stop-color="rgb(51.304626%, 54.924011%, 90.835571%)" offset="0.324219"/><stop stop-opacity="1" stop-color="rgb(51.837158%, 54.689026%, 90.849304%)" offset="0.328125"/><stop stop-opacity="1" stop-color="rgb(52.36969%, 54.452515%, 90.861511%)" offset="0.332031"/><stop stop-opacity="1" stop-color="rgb(52.903748%, 54.216003%, 90.873718%)" offset="0.335938"/><stop stop-opacity="1" stop-color="rgb(53.436279%, 53.979492%, 90.885925%)" offset="0.339844"/><stop stop-opacity="1" stop-color="rgb(53.968811%, 53.744507%, 90.898132%)" offset="0.34375"/><stop stop-opacity="1" stop-color="rgb(54.501343%, 53.507996%, 90.910339%)" offset="0.347656"/><stop stop-opacity="1" stop-color="rgb(55.0354%, 53.27301%, 90.924072%)" offset="0.351563"/><stop stop-opacity="1" stop-color="rgb(55.567932%, 53.036499%, 90.936279%)" offset="0.355469"/><stop stop-opacity="1" stop-color="rgb(56.100464%, 52.799988%, 90.948486%)" offset="0.359375"/><stop stop-opacity="1" stop-color="rgb(56.632996%, 52.563477%, 90.960693%)" offset="0.363281"/><stop stop-opacity="1" stop-color="rgb(57.167053%, 52.328491%, 90.974426%)" offset="0.367188"/><stop stop-opacity="1" stop-color="rgb(57.699585%, 52.09198%, 90.986633%)" offset="0.371094"/><stop stop-opacity="1" stop-color="rgb(58.232117%, 51.856995%, 90.99884%)" offset="0.375"/><stop stop-opacity="1" stop-color="rgb(58.764648%, 51.620483%, 91.011047%)" offset="0.378906"/><stop stop-opacity="1" stop-color="rgb(59.298706%, 51.383972%, 91.023254%)" offset="0.382812"/><stop stop-opacity="1" stop-color="rgb(59.831238%, 51.147461%, 91.035461%)" offset="0.386719"/><stop stop-opacity="1" stop-color="rgb(60.36377%, 50.912476%, 91.049194%)" offset="0.390625"/><stop stop-opacity="1" stop-color="rgb(60.896301%, 50.675964%, 91.061401%)" offset="0.394531"/><stop stop-opacity="1" stop-color="rgb(61.430359%, 50.440979%, 91.073608%)" offset="0.398437"/><stop stop-opacity="1" stop-color="rgb(61.962891%, 50.204468%, 91.085815%)" offset="0.402344"/><stop stop-opacity="1" stop-color="rgb(62.495422%, 49.969482%, 91.099548%)" offset="0.40625"/><stop stop-opacity="1" stop-color="rgb(63.027954%, 49.732971%, 91.111755%)" offset="0.410156"/><stop stop-opacity="1" stop-color="rgb(63.562012%, 49.49646%, 91.123962%)" offset="0.414062"/><stop stop-opacity="1" stop-color="rgb(64.094543%, 49.259949%, 91.136169%)" offset="0.417969"/><stop stop-opacity="1" stop-color="rgb(64.627075%, 49.024963%, 91.148376%)" offset="0.421875"/><stop stop-opacity="1" stop-color="rgb(65.159607%, 48.788452%, 91.160583%)" offset="0.425781"/><stop stop-opacity="1" stop-color="rgb(65.693665%, 48.553467%, 91.174316%)" offset="0.429687"/><stop stop-opacity="1" stop-color="rgb(66.226196%, 48.316956%, 91.186523%)" offset="0.433594"/><stop stop-opacity="1" stop-color="rgb(66.758728%, 48.080444%, 91.19873%)" offset="0.4375"/><stop stop-opacity="1" stop-color="rgb(67.29126%, 47.843933%, 91.210938%)" offset="0.441406"/><stop stop-opacity="1" stop-color="rgb(67.825317%, 47.608948%, 91.223145%)" offset="0.445312"/><stop stop-opacity="1" stop-color="rgb(68.357849%, 47.372437%, 91.235352%)" offset="0.449219"/><stop stop-opacity="1" stop-color="rgb(68.890381%, 47.137451%, 91.249084%)" offset="0.453125"/><stop stop-opacity="1" stop-color="rgb(69.422913%, 46.90094%, 91.261292%)" offset="0.457031"/><stop stop-opacity="1" stop-color="rgb(69.95697%, 46.664429%, 91.273499%)" offset="0.460938"/><stop stop-opacity="1" stop-color="rgb(70.489502%, 46.427917%, 91.285706%)" offset="0.464844"/><stop stop-opacity="1" stop-color="rgb(71.022034%, 46.192932%, 91.299438%)" offset="0.46875"/><stop stop-opacity="1" stop-color="rgb(71.554565%, 45.956421%, 91.311646%)" offset="0.472656"/><stop stop-opacity="1" stop-color="rgb(72.088623%, 45.721436%, 91.323853%)" offset="0.476562"/><stop stop-opacity="1" stop-color="rgb(72.621155%, 45.484924%, 91.33606%)" offset="0.480469"/><stop stop-opacity="1" stop-color="rgb(73.153687%, 45.248413%, 91.348267%)" offset="0.484375"/><stop stop-opacity="1" stop-color="rgb(73.686218%, 45.011902%, 91.360474%)" offset="0.488281"/><stop stop-opacity="1" stop-color="rgb(74.220276%, 44.776917%, 91.374207%)" offset="0.492188"/><stop stop-opacity="1" stop-color="rgb(74.752808%, 44.540405%, 91.386414%)" offset="0.496094"/><stop stop-opacity="1" stop-color="rgb(75.285339%, 44.30542%, 91.398621%)" offset="0.5"/><stop stop-opacity="1" stop-color="rgb(75.442505%, 44.198608%, 90.965271%)" offset="0.503906"/><stop stop-opacity="1" stop-color="rgb(75.601196%, 44.093323%, 90.533447%)" offset="0.507812"/><stop stop-opacity="1" stop-color="rgb(75.753784%, 43.989563%, 90.093994%)" offset="0.511719"/><stop stop-opacity="1" stop-color="rgb(75.907898%, 43.885803%, 89.656067%)" offset="0.515625"/><stop stop-opacity="1" stop-color="rgb(76.060486%, 43.782043%, 89.21814%)" offset="0.519531"/><stop stop-opacity="1" stop-color="rgb(76.2146%, 43.678284%, 88.780212%)" offset="0.523438"/><stop stop-opacity="1" stop-color="rgb(76.367188%, 43.574524%, 88.340759%)" offset="0.527344"/><stop stop-opacity="1" stop-color="rgb(76.521301%, 43.470764%, 87.902832%)" offset="0.53125"/><stop stop-opacity="1" stop-color="rgb(76.673889%, 43.367004%, 87.464905%)" offset="0.535156"/><stop stop-opacity="1" stop-color="rgb(76.826477%, 43.263245%, 87.026978%)" offset="0.539062"/><stop stop-opacity="1" stop-color="rgb(76.979065%, 43.157959%, 86.587524%)" offset="0.542969"/><stop stop-opacity="1" stop-color="rgb(77.133179%, 43.054199%, 86.149597%)" offset="0.546875"/><stop stop-opacity="1" stop-color="rgb(77.285767%, 42.950439%, 85.71167%)" offset="0.550781"/><stop stop-opacity="1" stop-color="rgb(77.43988%, 42.84668%, 85.273743%)" offset="0.554688"/><stop stop-opacity="1" stop-color="rgb(77.592468%, 42.74292%, 84.83429%)" offset="0.558594"/><stop stop-opacity="1" stop-color="rgb(77.746582%, 42.63916%, 84.396362%)" offset="0.5625"/><stop stop-opacity="1" stop-color="rgb(77.89917%, 42.5354%, 83.956909%)" offset="0.566406"/><stop stop-opacity="1" stop-color="rgb(78.051758%, 42.431641%, 83.518982%)" offset="0.570312"/><stop stop-opacity="1" stop-color="rgb(78.204346%, 42.326355%, 83.081055%)" offset="0.574219"/><stop stop-opacity="1" stop-color="rgb(78.358459%, 42.222595%, 82.643127%)" offset="0.578125"/><stop stop-opacity="1" stop-color="rgb(78.511047%, 42.118835%, 82.203674%)" offset="0.582031"/><stop stop-opacity="1" stop-color="rgb(78.665161%, 42.015076%, 81.765747%)" offset="0.585938"/><stop stop-opacity="1" stop-color="rgb(78.817749%, 41.911316%, 81.32782%)" offset="0.589844"/><stop stop-opacity="1" stop-color="rgb(78.971863%, 41.807556%, 80.889893%)" offset="0.59375"/><stop stop-opacity="1" stop-color="rgb(79.124451%, 41.703796%, 80.450439%)" offset="0.597656"/><stop stop-opacity="1" stop-color="rgb(79.277039%, 41.600037%, 80.012512%)" offset="0.601562"/><stop stop-opacity="1" stop-color="rgb(79.429626%, 41.496277%, 79.574585%)" offset="0.605469"/><stop stop-opacity="1" stop-color="rgb(79.58374%, 41.392517%, 79.136658%)" offset="0.609375"/><stop stop-opacity="1" stop-color="rgb(79.736328%, 41.287231%, 78.697205%)" offset="0.613281"/><stop stop-opacity="1" stop-color="rgb(79.890442%, 41.183472%, 78.259277%)" offset="0.617188"/><stop stop-opacity="1" stop-color="rgb(80.04303%, 41.079712%, 77.819824%)" offset="0.621094"/><stop stop-opacity="1" stop-color="rgb(80.195618%, 40.975952%, 77.381897%)" offset="0.625"/><stop stop-opacity="1" stop-color="rgb(80.348206%, 40.872192%, 76.94397%)" offset="0.628906"/><stop stop-opacity="1" stop-color="rgb(80.502319%, 40.768433%, 76.506042%)" offset="0.632812"/><stop stop-opacity="1" stop-color="rgb(80.654907%, 40.664673%, 76.066589%)" offset="0.636719"/><stop stop-opacity="1" stop-color="rgb(80.809021%, 40.560913%, 75.628662%)" offset="0.640625"/><stop stop-opacity="1" stop-color="rgb(80.961609%, 40.455627%, 75.190735%)" offset="0.644531"/><stop stop-opacity="1" stop-color="rgb(81.115723%, 40.351868%, 74.752808%)" offset="0.648438"/><stop stop-opacity="1" stop-color="rgb(81.268311%, 40.248108%, 74.313354%)" offset="0.652344"/><stop stop-opacity="1" stop-color="rgb(81.420898%, 40.144348%, 73.875427%)" offset="0.65625"/><stop stop-opacity="1" stop-color="rgb(81.573486%, 40.040588%, 73.435974%)" offset="0.660156"/><stop stop-opacity="1" stop-color="rgb(81.7276%, 39.936829%, 72.998047%)" offset="0.664062"/><stop stop-opacity="1" stop-color="rgb(81.880188%, 39.833069%, 72.56012%)" offset="0.667969"/><stop stop-opacity="1" stop-color="rgb(82.034302%, 39.729309%, 72.122192%)" offset="0.671875"/><stop stop-opacity="1" stop-color="rgb(82.18689%, 39.625549%, 71.682739%)" offset="0.675781"/><stop stop-opacity="1" stop-color="rgb(82.341003%, 39.52179%, 71.244812%)" offset="0.679688"/><stop stop-opacity="1" stop-color="rgb(82.493591%, 39.416504%, 70.806885%)" offset="0.683594"/><stop stop-opacity="1" stop-color="rgb(82.646179%, 39.312744%, 70.368958%)" offset="0.6875"/><stop stop-opacity="1" stop-color="rgb(82.798767%, 39.208984%, 69.929504%)" offset="0.691406"/><stop stop-opacity="1" stop-color="rgb(82.952881%, 39.105225%, 69.491577%)" offset="0.695312"/><stop stop-opacity="1" stop-color="rgb(83.105469%, 39.001465%, 69.05365%)" offset="0.699219"/><stop stop-opacity="1" stop-color="rgb(83.259583%, 38.897705%, 68.615723%)" offset="0.703125"/><stop stop-opacity="1" stop-color="rgb(83.41217%, 38.793945%, 68.17627%)" offset="0.707031"/><stop stop-opacity="1" stop-color="rgb(83.566284%, 38.690186%, 67.738342%)" offset="0.710938"/><stop stop-opacity="1" stop-color="rgb(83.718872%, 38.586426%, 67.298889%)" offset="0.714844"/><stop stop-opacity="1" stop-color="rgb(83.87146%, 38.482666%, 66.860962%)" offset="0.71875"/><stop stop-opacity="1" stop-color="rgb(84.024048%, 38.37738%, 66.423035%)" offset="0.722656"/><stop stop-opacity="1" stop-color="rgb(84.178162%, 38.273621%, 65.985107%)" offset="0.726562"/><stop stop-opacity="1" stop-color="rgb(84.33075%, 38.169861%, 65.545654%)" offset="0.730469"/><stop stop-opacity="1" stop-color="rgb(84.484863%, 38.066101%, 65.107727%)" offset="0.734375"/><stop stop-opacity="1" stop-color="rgb(84.637451%, 37.962341%, 64.6698%)" offset="0.738281"/><stop stop-opacity="1" stop-color="rgb(84.791565%, 37.858582%, 64.231873%)" offset="0.742187"/><stop stop-opacity="1" stop-color="rgb(84.944153%, 37.754822%, 63.792419%)" offset="0.746094"/><stop stop-opacity="1" stop-color="rgb(85.096741%, 37.651062%, 63.354492%)" offset="0.75"/><stop stop-opacity="1" stop-color="rgb(85.249329%, 37.545776%, 62.916565%)" offset="0.753906"/><stop stop-opacity="1" stop-color="rgb(85.403442%, 37.442017%, 62.478638%)" offset="0.757813"/><stop stop-opacity="1" stop-color="rgb(85.55603%, 37.338257%, 62.039185%)" offset="0.761719"/><stop stop-opacity="1" stop-color="rgb(85.710144%, 37.234497%, 61.601257%)" offset="0.765625"/><stop stop-opacity="1" stop-color="rgb(85.862732%, 37.130737%, 61.161804%)" offset="0.769531"/><stop stop-opacity="1" stop-color="rgb(86.016846%, 37.026978%, 60.723877%)" offset="0.773438"/><stop stop-opacity="1" stop-color="rgb(86.169434%, 36.923218%, 60.28595%)" offset="0.777344"/><stop stop-opacity="1" stop-color="rgb(86.322021%, 36.819458%, 59.848022%)" offset="0.78125"/><stop stop-opacity="1" stop-color="rgb(86.474609%, 36.715698%, 59.408569%)" offset="0.785156"/><stop stop-opacity="1" stop-color="rgb(86.628723%, 36.611938%, 58.970642%)" offset="0.789062"/><stop stop-opacity="1" stop-color="rgb(86.781311%, 36.506653%, 58.532715%)" offset="0.792969"/><stop stop-opacity="1" stop-color="rgb(86.935425%, 36.402893%, 58.094788%)" offset="0.796875"/><stop stop-opacity="1" stop-color="rgb(87.088013%, 36.299133%, 57.655334%)" offset="0.800781"/><stop stop-opacity="1" stop-color="rgb(87.242126%, 36.195374%, 57.217407%)" offset="0.804688"/><stop stop-opacity="1" stop-color="rgb(87.394714%, 36.091614%, 56.77948%)" offset="0.808594"/><stop stop-opacity="1" stop-color="rgb(87.547302%, 35.987854%, 56.341553%)" offset="0.8125"/><stop stop-opacity="1" stop-color="rgb(87.69989%, 35.884094%, 55.9021%)" offset="0.816406"/><stop stop-opacity="1" stop-color="rgb(87.854004%, 35.780334%, 55.464172%)" offset="0.820312"/><stop stop-opacity="1" stop-color="rgb(88.006592%, 35.675049%, 55.024719%)" offset="0.824219"/><stop stop-opacity="1" stop-color="rgb(88.160706%, 35.571289%, 54.586792%)" offset="0.828125"/><stop stop-opacity="1" stop-color="rgb(88.313293%, 35.467529%, 54.148865%)" offset="0.832031"/><stop stop-opacity="1" stop-color="rgb(88.467407%, 35.36377%, 53.710938%)" offset="0.835938"/><stop stop-opacity="1" stop-color="rgb(88.619995%, 35.26001%, 53.271484%)" offset="0.839844"/><stop stop-opacity="1" stop-color="rgb(88.772583%, 35.15625%, 52.833557%)" offset="0.84375"/><stop stop-opacity="1" stop-color="rgb(88.925171%, 35.05249%, 52.39563%)" offset="0.847656"/><stop stop-opacity="1" stop-color="rgb(89.079285%, 34.94873%, 51.957703%)" offset="0.851562"/><stop stop-opacity="1" stop-color="rgb(89.231873%, 34.844971%, 51.51825%)" offset="0.855469"/><stop stop-opacity="1" stop-color="rgb(89.385986%, 34.741211%, 51.080322%)" offset="0.859375"/><stop stop-opacity="1" stop-color="rgb(89.538574%, 34.635925%, 50.642395%)" offset="0.863281"/><stop stop-opacity="1" stop-color="rgb(89.692688%, 34.532166%, 50.204468%)" offset="0.867188"/><stop stop-opacity="1" stop-color="rgb(89.845276%, 34.428406%, 49.765015%)" offset="0.871094"/><stop stop-opacity="1" stop-color="rgb(89.997864%, 34.324646%, 49.327087%)" offset="0.875"/><stop stop-opacity="1" stop-color="rgb(90.150452%, 34.220886%, 48.887634%)" offset="0.878906"/><stop stop-opacity="1" stop-color="rgb(90.304565%, 34.117126%, 48.449707%)" offset="0.882812"/><stop stop-opacity="1" stop-color="rgb(90.457153%, 34.013367%, 48.01178%)" offset="0.886719"/><stop stop-opacity="1" stop-color="rgb(90.611267%, 33.909607%, 47.573853%)" offset="0.890625"/><stop stop-opacity="1" stop-color="rgb(90.763855%, 33.805847%, 47.134399%)" offset="0.894531"/><stop stop-opacity="1" stop-color="rgb(90.917969%, 33.702087%, 46.696472%)" offset="0.898438"/><stop stop-opacity="1" stop-color="rgb(91.070557%, 33.596802%, 46.258545%)" offset="0.902344"/><stop stop-opacity="1" stop-color="rgb(91.223145%, 33.493042%, 45.820618%)" offset="0.90625"/><stop stop-opacity="1" stop-color="rgb(91.375732%, 33.389282%, 45.381165%)" offset="0.910156"/><stop stop-opacity="1" stop-color="rgb(91.529846%, 33.285522%, 44.943237%)" offset="0.914062"/><stop stop-opacity="1" stop-color="rgb(91.682434%, 33.181763%, 44.503784%)" offset="0.917969"/><stop stop-opacity="1" stop-color="rgb(91.836548%, 33.078003%, 44.065857%)" offset="0.921875"/><stop stop-opacity="1" stop-color="rgb(91.989136%, 32.974243%, 43.62793%)" offset="0.925781"/><stop stop-opacity="1" stop-color="rgb(92.141724%, 32.870483%, 43.190002%)" offset="0.929688"/><stop stop-opacity="1" stop-color="rgb(92.294312%, 32.765198%, 42.750549%)" offset="0.933594"/><stop stop-opacity="1" stop-color="rgb(92.448425%, 32.661438%, 42.312622%)" offset="0.9375"/><stop stop-opacity="1" stop-color="rgb(92.601013%, 32.557678%, 41.874695%)" offset="0.941406"/><stop stop-opacity="1" stop-color="rgb(92.755127%, 32.453918%, 41.436768%)" offset="0.945312"/><stop stop-opacity="1" stop-color="rgb(92.907715%, 32.350159%, 40.997314%)" offset="0.949219"/><stop stop-opacity="1" stop-color="rgb(93.061829%, 32.246399%, 40.559387%)" offset="0.953125"/><stop stop-opacity="1" stop-color="rgb(93.214417%, 32.142639%, 40.12146%)" offset="0.957031"/><stop stop-opacity="1" stop-color="rgb(93.367004%, 32.038879%, 39.683533%)" offset="0.960938"/><stop stop-opacity="1" stop-color="rgb(93.519592%, 31.93512%, 39.24408%)" offset="0.964844"/><stop stop-opacity="1" stop-color="rgb(93.673706%, 31.83136%, 38.806152%)" offset="0.96875"/><stop stop-opacity="1" stop-color="rgb(93.826294%, 31.726074%, 38.366699%)" offset="0.972656"/><stop stop-opacity="1" stop-color="rgb(93.980408%, 31.622314%, 37.928772%)" offset="0.976562"/><stop stop-opacity="1" stop-color="rgb(94.132996%, 31.518555%, 37.490845%)" offset="0.980469"/><stop stop-opacity="1" stop-color="rgb(94.287109%, 31.414795%, 37.052917%)" offset="0.984375"/><stop stop-opacity="1" stop-color="rgb(94.439697%, 31.311035%, 36.613464%)" offset="0.988281"/><stop stop-opacity="1" stop-color="rgb(94.592285%, 31.207275%, 36.175537%)" offset="0.992188"/><stop stop-opacity="1" stop-color="rgb(94.744873%, 31.103516%, 35.73761%)" offset="0.996094"/><stop stop-opacity="1" stop-color="rgb(94.898987%, 30.999756%, 35.299683%)" offset="1"/></linearGradient></defs><g clip-path="url(#0ffbf1bc0d)"><g clip-path="url(#f918a46ceb)"><path fill="url(#43b0b29f40)" d="M 1.589844 1.613281 L 1.589844 73.570312 L 73.589844 73.570312 L 73.589844 1.613281 Z M 1.589844 1.613281 " fill-rule="nonzero"/></g></g></svg>