<svg xmlns="http://www.w3.org/2000/svg" xmlns:xlink="http://www.w3.org/1999/xlink" width="100" zoomAndPan="magnify" viewBox="0 0 75 74.999997" height="100" preserveAspectRatio="xMidYMid meet" version="1.0"><defs><clipPath id="40e5ccf717"><path d="M 0 14.882812 L 75 14.882812 L 75 59.882812 L 0 59.882812 Z M 0 14.882812 " clip-rule="nonzero"/></clipPath></defs><g clip-path="url(#40e5ccf717)"><path fill="#000000" d="M 17.703125 26.617188 L 31.84375 26.617188 L 31.84375 27.738281 L 19 27.738281 L 19 36.152344 L 31.078125 36.152344 L 31.078125 37.269531 L 19 37.269531 L 19 46.507812 L 31.992188 46.507812 L 31.992188 47.628906 L 17.703125 47.628906 Z M 33.109375 26.617188 L 34.613281 26.617188 L 41.273438 35.859375 L 48.078125 26.617188 L 57.332031 14.882812 L 42.125 36.828125 L 49.964844 47.628906 L 48.402344 47.628906 L 41.273438 37.800781 L 34.113281 47.628906 L 32.582031 47.628906 L 40.476562 36.828125 Z M 50.523438 27.738281 L 50.523438 26.617188 L 66.636719 26.617188 L 66.636719 27.738281 L 59.214844 27.738281 L 59.214844 47.628906 L 57.917969 47.628906 L 57.917969 27.738281 Z M 0.0117188 26.617188 L 1.632812 26.617188 L 23.976562 59.878906 L 14.742188 47.628906 L 1.367188 28.207031 L 1.308594 47.628906 L 0.0117188 47.628906 Z M 66.507812 46.171875 C 66.242188 46.171875 66.042969 45.96875 66.042969 45.703125 C 66.042969 45.441406 66.242188 45.238281 66.507812 45.238281 C 66.773438 45.238281 66.96875 45.441406 66.96875 45.703125 C 66.96875 45.96875 66.773438 46.171875 66.507812 46.171875 Z M 67.78125 44.941406 L 68.472656 44.941406 C 68.484375 45.316406 68.757812 45.566406 69.160156 45.566406 C 69.613281 45.566406 69.867188 45.296875 69.867188 44.789062 L 69.867188 41.585938 L 70.574219 41.585938 L 70.574219 44.792969 C 70.574219 45.703125 70.042969 46.230469 69.167969 46.230469 C 68.34375 46.230469 67.78125 45.71875 67.78125 44.941406 Z M 71.5 44.898438 L 72.199219 44.898438 C 72.257812 45.332031 72.679688 45.605469 73.289062 45.605469 C 73.855469 45.605469 74.273438 45.3125 74.273438 44.910156 C 74.273438 44.566406 74.007812 44.355469 73.40625 44.214844 L 72.820312 44.074219 C 71.996094 43.882812 71.621094 43.488281 71.621094 42.820312 C 71.621094 42.015625 72.28125 41.476562 73.277344 41.476562 C 74.199219 41.476562 74.875 42.015625 74.914062 42.777344 L 74.226562 42.777344 C 74.160156 42.359375 73.796875 42.097656 73.265625 42.097656 C 72.707031 42.097656 72.335938 42.367188 72.335938 42.773438 C 72.335938 43.097656 72.574219 43.28125 73.167969 43.421875 L 73.667969 43.542969 C 74.601562 43.761719 74.988281 44.136719 74.988281 44.820312 C 74.988281 45.683594 74.3125 46.230469 73.234375 46.230469 C 72.226562 46.230469 71.546875 45.710938 71.5 44.898438 Z M 71.5 44.898438 " fill-opacity="1" fill-rule="nonzero"/></g></svg>