<svg xmlns="http://www.w3.org/2000/svg" xmlns:xlink="http://www.w3.org/1999/xlink" width="100" zoomAndPan="magnify" viewBox="0 0 75 74.999997" height="100" preserveAspectRatio="xMidYMid meet" version="1.0"><defs><clipPath id="cfe3e5fed0"><path d="M 0.6875 0.6875 L 74.1875 0.6875 L 74.1875 74.1875 L 0.6875 74.1875 Z M 0.6875 0.6875 " clip-rule="nonzero"/></clipPath><clipPath id="3352c790f0"><path d="M 59 26 L 74.1875 26 L 74.1875 46 L 59 46 Z M 59 26 " clip-rule="nonzero"/></clipPath><clipPath id="748a4f28a9"><path d="M 0.6875 26 L 16 26 L 16 44 L 0.6875 44 Z M 0.6875 26 " clip-rule="nonzero"/></clipPath></defs><g clip-path="url(#cfe3e5fed0)"><path fill="#f2f2f2" d="M 74.1875 37.4375 C 74.1875 57.734375 57.734375 74.1875 37.4375 74.1875 C 18.714844 74.1875 3.257812 60.183594 0.980469 42.074219 C 0.789062 40.558594 0.6875 39.007812 0.6875 37.4375 C 0.6875 34.5625 1.019531 31.761719 1.644531 29.074219 C 5.429688 12.808594 20.019531 0.6875 37.4375 0.6875 C 54.816406 0.6875 69.375 12.75 73.203125 28.953125 C 73.707031 31.074219 74.023438 33.265625 74.136719 35.507812 C 74.171875 36.148438 74.1875 36.789062 74.1875 37.4375 Z M 74.1875 37.4375 " fill-opacity="1" fill-rule="nonzero"/></g><path fill="#3b8739" d="M 35.601562 40.390625 L 35.601562 30.835938 L 27.324219 26.058594 L 19.050781 30.835938 L 19.050781 40.390625 L 27.324219 45.167969 Z M 35.601562 40.390625 " fill-opacity="1" fill-rule="nonzero"/><g clip-path="url(#3352c790f0)"><path fill="#333333" d="M 68.1875 38.941406 L 73.582031 42.054688 L 68.1875 45.167969 L 59.914062 40.390625 L 59.914062 30.835938 L 68.1875 26.058594 L 73.203125 28.953125 C 73.707031 31.074219 74.023438 33.265625 74.136719 35.507812 L 71.070312 37.277344 L 71.070312 33.949219 L 68.1875 32.285156 L 65.304688 33.949219 L 65.304688 37.277344 Z M 68.1875 38.941406 " fill-opacity="1" fill-rule="nonzero"/></g><path fill="#66a060" d="M 69.792969 36.539062 L 69.792969 34.683594 L 68.1875 33.757812 L 66.582031 34.683594 L 66.582031 36.539062 L 68.1875 37.46875 Z M 69.792969 36.539062 " fill-opacity="1" fill-rule="nonzero"/><g clip-path="url(#748a4f28a9)"><path fill="#333333" d="M 15.140625 30.835938 L 15.140625 43.433594 L 9.625 40.289062 L 9.625 33.828125 L 6.867188 32.238281 L 4.113281 33.828125 L 4.113281 40.285156 L 0.980469 42.074219 C 0.789062 40.558594 0.6875 39.007812 0.6875 37.4375 C 0.6875 34.5625 1.019531 31.761719 1.644531 29.074219 L 6.867188 26.058594 Z M 15.140625 30.835938 " fill-opacity="1" fill-rule="nonzero"/></g><path fill="#6da75d" d="M 27.324219 26.058594 L 35.601562 40.390625 L 27.324219 45.164062 L 19.050781 30.835938 Z M 27.324219 26.058594 " fill-opacity="1" fill-rule="nonzero"/><path fill="#55a344" d="M 19.050781 40.390625 L 21.890625 35.757812 L 19.050781 30.835938 Z M 19.050781 40.390625 " fill-opacity="1" fill-rule="nonzero"/><path fill="#639d57" d="M 32.84375 35.613281 L 35.601562 30.835938 L 27.324219 26.058594 Z M 32.84375 35.613281 " fill-opacity="1" fill-rule="nonzero"/><path fill="#333333" d="M 50.4375 14.984375 L 50.4375 27.660156 L 47.664062 26.058594 L 39.390625 30.835938 L 39.390625 40.390625 L 47.664062 45.167969 L 55.9375 40.390625 L 55.9375 17.925781 Z M 50.421875 37.203125 L 47.664062 38.796875 L 44.90625 37.203125 L 44.90625 34.019531 L 47.664062 32.425781 L 50.421875 34.019531 Z M 50.421875 37.203125 " fill-opacity="1" fill-rule="nonzero"/><path fill="#66a060" d="M 41.191406 52.183594 C 41.191406 52.183594 41.03125 50.789062 39.535156 50.789062 C 38.042969 50.789062 37.019531 50.980469 37.019531 51.808594 C 37.019531 52.640625 39.925781 52.640625 41.03125 52.964844 C 42.132812 53.289062 43.109375 54.132812 42.621094 55.625 C 42.132812 57.121094 40.640625 57.285156 38.335938 57.285156 C 36.027344 57.285156 35.507812 55.367188 35.507812 54.621094 L 36.808594 54.621094 C 36.808594 54.621094 36.644531 55.789062 38.171875 55.984375 C 39.699219 56.179688 41.15625 56.289062 41.355469 55.109375 C 41.613281 53.546875 36.417969 54.328125 35.960938 52.800781 C 35.578125 51.511719 35.800781 49.8125 38.398438 49.554688 C 40.996094 49.292969 42.425781 50.441406 42.425781 52.152344 Z M 41.191406 52.183594 " fill-opacity="1" fill-rule="nonzero"/><path fill="#66a060" d="M 28.640625 58.273438 L 31.515625 59.929688 C 32.957031 60.765625 34.761719 59.722656 34.761719 58.054688 L 34.761719 49.800781 L 33.589844 49.800781 L 33.589844 57.730469 C 33.589844 58.640625 32.605469 59.210938 31.816406 58.753906 L 29.8125 57.597656 L 29.8125 49.136719 L 37.140625 44.90625 L 44.46875 49.136719 L 44.46875 57.597656 L 37.140625 61.828125 L 35.027344 60.609375 L 33.652344 61.164062 L 37.140625 63.179688 L 45.636719 58.273438 L 45.636719 48.460938 L 37.140625 43.554688 L 28.640625 48.460938 Z M 28.640625 58.273438 " fill-opacity="1" fill-rule="nonzero"/></svg>