<svg xmlns="http://www.w3.org/2000/svg" xmlns:xlink="http://www.w3.org/1999/xlink" width="100" zoomAndPan="magnify" viewBox="0 0 75 74.999997" height="100" preserveAspectRatio="xMidYMid meet" version="1.0"><defs><clipPath id="64e0850394"><path d="M 0 21.890625 L 75 21.890625 L 75 53.390625 L 0 53.390625 Z M 0 21.890625 " clip-rule="nonzero"/></clipPath></defs><g clip-path="url(#64e0850394)"><path fill="#d50000" d="M 0.0390625 21.890625 L 74.960938 21.890625 L 74.960938 48.664062 L 37.5 48.664062 L 37.5 53.390625 L 20.328125 53.390625 L 20.328125 48.664062 L 0.0390625 48.664062 Z M 0.0390625 21.890625 " fill-opacity="1" fill-rule="nonzero"/></g><path fill="#ffffff" d="M 4.71875 43.941406 L 12.523438 43.941406 L 12.523438 31.339844 L 17.207031 31.339844 L 17.207031 43.941406 L 20.328125 43.941406 L 20.328125 26.617188 L 4.71875 26.617188 Z M 25.011719 26.617188 L 25.011719 48.664062 L 32.816406 48.664062 L 32.816406 43.941406 L 40.621094 43.941406 L 40.621094 26.617188 Z M 37.5 39.214844 L 32.816406 39.214844 L 32.816406 31.339844 L 37.5 31.339844 Z M 45.304688 26.617188 L 45.304688 43.941406 L 53.109375 43.941406 L 53.109375 31.339844 L 57.792969 31.339844 L 57.792969 43.941406 L 62.476562 43.941406 L 62.476562 31.339844 L 67.15625 31.339844 L 67.15625 43.941406 L 70.28125 43.941406 L 70.28125 26.617188 Z M 45.304688 26.617188 " fill-opacity="1" fill-rule="nonzero"/></svg>