<svg xmlns="http://www.w3.org/2000/svg" xmlns:xlink="http://www.w3.org/1999/xlink" width="100" zoomAndPan="magnify" viewBox="0 0 75 74.999997" height="100" preserveAspectRatio="xMidYMid meet" version="1.0"><defs><g/></defs><g fill="#5ce1e6" fill-opacity="0.302"><g transform="translate(2.154355, 48.011723)"><g><path d="M 10.136719 -8.53125 C 11.300781 -8.53125 12.339844 -8.722656 13.253906 -9.128906 C 14.167969 -9.507812 14.921875 -10.042969 15.550781 -10.671875 C 16.183594 -11.300781 16.65625 -12.058594 16.96875 -12.875 C 17.285156 -13.695312 17.472656 -14.546875 17.472656 -15.425781 C 17.472656 -16.277344 17.316406 -17.125 17 -17.945312 C 16.6875 -18.765625 16.214844 -19.519531 15.585938 -20.179688 C 14.953125 -20.808594 14.199219 -21.34375 13.285156 -21.722656 C 12.371094 -22.101562 11.332031 -22.320312 10.167969 -22.320312 L 5.039062 -22.320312 C 4.597656 -22.320312 4.1875 -22.226562 3.871094 -22.070312 C 3.558594 -21.910156 3.273438 -21.722656 3.054688 -21.472656 C 2.800781 -21.21875 2.644531 -20.96875 2.519531 -20.683594 C 2.394531 -20.371094 2.359375 -20.085938 2.359375 -19.804688 L 2.359375 -2.488281 C 2.359375 -2.203125 2.394531 -1.921875 2.519531 -1.636719 C 2.644531 -1.324219 2.800781 -1.070312 3.023438 -0.820312 C 3.242188 -0.566406 3.527344 -0.347656 3.839844 -0.1875 C 4.15625 -0.03125 4.566406 0.03125 5.003906 0.03125 C 5.445312 0.03125 5.824219 -0.03125 6.171875 -0.1875 C 6.484375 -0.347656 6.769531 -0.535156 6.988281 -0.785156 C 7.210938 -1.039062 7.367188 -1.289062 7.492188 -1.605469 C 7.585938 -1.890625 7.648438 -2.171875 7.648438 -2.457031 L 7.648438 -8.027344 C 7.648438 -8.1875 7.683594 -8.3125 7.808594 -8.40625 C 7.902344 -8.46875 7.996094 -8.53125 8.058594 -8.53125 Z M 7.648438 -14.074219 L 7.648438 -16.84375 C 7.648438 -17 7.683594 -17.125 7.808594 -17.222656 C 7.902344 -17.285156 7.996094 -17.347656 8.058594 -17.347656 L 10.136719 -17.347656 C 10.765625 -17.347656 11.269531 -17.15625 11.617188 -16.84375 C 11.964844 -16.527344 12.152344 -16.054688 12.152344 -15.457031 C 12.152344 -14.828125 11.964844 -14.355469 11.617188 -14.042969 C 11.269531 -13.726562 10.765625 -13.570312 10.136719 -13.570312 L 8.058594 -13.570312 C 7.996094 -13.570312 7.902344 -13.601562 7.808594 -13.695312 C 7.683594 -13.757812 7.648438 -13.882812 7.648438 -14.074219 Z M 7.648438 -14.074219 "/></g></g></g><g fill="#5ce1e6" fill-opacity="0.302"><g transform="translate(22.020078, 48.011723)"><g><path d="M 13.914062 0 C 15.550781 0 17.0625 -0.25 18.480469 -0.785156 C 19.867188 -1.324219 21.09375 -2.078125 22.132812 -3.054688 C 23.140625 -4.03125 23.957031 -5.195312 24.558594 -6.578125 C 25.125 -7.964844 25.4375 -9.476562 25.4375 -11.175781 C 25.4375 -12.84375 25.125 -14.355469 24.558594 -15.742188 C 23.957031 -17.09375 23.140625 -18.261719 22.132812 -19.234375 C 21.09375 -20.210938 19.867188 -20.96875 18.480469 -21.503906 C 17.0625 -22.039062 15.550781 -22.320312 13.914062 -22.320312 C 12.277344 -22.320312 10.734375 -22.039062 9.320312 -21.503906 C 7.902344 -20.96875 6.675781 -20.210938 5.667969 -19.234375 C 4.628906 -18.261719 3.808594 -17.09375 3.242188 -15.742188 C 2.644531 -14.355469 2.359375 -12.84375 2.359375 -11.175781 C 2.359375 -9.476562 2.644531 -7.964844 3.242188 -6.578125 C 3.808594 -5.195312 4.628906 -4.03125 5.667969 -3.054688 C 6.675781 -2.078125 7.902344 -1.324219 9.320312 -0.785156 C 10.734375 -0.25 12.277344 0 13.914062 0 Z M 20.117188 -11.175781 C 20.117188 -10.292969 19.960938 -9.476562 19.707031 -8.722656 C 19.457031 -7.964844 19.046875 -7.335938 18.542969 -6.769531 C 18.039062 -6.203125 17.378906 -5.792969 16.621094 -5.476562 C 15.835938 -5.164062 14.921875 -5.003906 13.914062 -5.003906 C 12.875 -5.003906 11.964844 -5.164062 11.207031 -5.476562 C 10.421875 -5.792969 9.757812 -6.203125 9.257812 -6.769531 C 8.722656 -7.335938 8.3125 -7.964844 8.058594 -8.722656 C 7.808594 -9.476562 7.683594 -10.292969 7.683594 -11.175781 C 7.683594 -12.027344 7.808594 -12.84375 8.058594 -13.601562 C 8.3125 -14.355469 8.722656 -14.984375 9.257812 -15.550781 C 9.757812 -16.121094 10.421875 -16.558594 11.207031 -16.875 C 11.964844 -17.191406 12.875 -17.347656 13.914062 -17.347656 C 14.921875 -17.347656 15.835938 -17.191406 16.621094 -16.875 C 17.378906 -16.558594 18.039062 -16.121094 18.542969 -15.550781 C 19.046875 -14.984375 19.457031 -14.355469 19.707031 -13.601562 C 19.960938 -12.84375 20.117188 -12.027344 20.117188 -11.175781 Z M 20.117188 -11.175781 "/></g></g></g><g fill="#5ce1e6" fill-opacity="0.302"><g transform="translate(49.819497, 48.011723)"><g><path d="M 13.914062 0 C 15.550781 0 17.0625 -0.25 18.480469 -0.785156 C 19.867188 -1.324219 21.09375 -2.078125 22.132812 -3.054688 C 23.140625 -4.03125 23.957031 -5.195312 24.558594 -6.578125 C 25.125 -7.964844 25.4375 -9.476562 25.4375 -11.175781 C 25.4375 -12.84375 25.125 -14.355469 24.558594 -15.742188 C 23.957031 -17.09375 23.140625 -18.261719 22.132812 -19.234375 C 21.09375 -20.210938 19.867188 -20.96875 18.480469 -21.503906 C 17.0625 -22.039062 15.550781 -22.320312 13.914062 -22.320312 C 12.277344 -22.320312 10.734375 -22.039062 9.320312 -21.503906 C 7.902344 -20.96875 6.675781 -20.210938 5.667969 -19.234375 C 4.628906 -18.261719 3.808594 -17.09375 3.242188 -15.742188 C 2.644531 -14.355469 2.359375 -12.84375 2.359375 -11.175781 C 2.359375 -9.476562 2.644531 -7.964844 3.242188 -6.578125 C 3.808594 -5.195312 4.628906 -4.03125 5.667969 -3.054688 C 6.675781 -2.078125 7.902344 -1.324219 9.320312 -0.785156 C 10.734375 -0.25 12.277344 0 13.914062 0 Z M 20.117188 -11.175781 C 20.117188 -10.292969 19.960938 -9.476562 19.707031 -8.722656 C 19.457031 -7.964844 19.046875 -7.335938 18.542969 -6.769531 C 18.039062 -6.203125 17.378906 -5.792969 16.621094 -5.476562 C 15.835938 -5.164062 14.921875 -5.003906 13.914062 -5.003906 C 12.875 -5.003906 11.964844 -5.164062 11.207031 -5.476562 C 10.421875 -5.792969 9.757812 -6.203125 9.257812 -6.769531 C 8.722656 -7.335938 8.3125 -7.964844 8.058594 -8.722656 C 7.808594 -9.476562 7.683594 -10.292969 7.683594 -11.175781 C 7.683594 -12.027344 7.808594 -12.84375 8.058594 -13.601562 C 8.3125 -14.355469 8.722656 -14.984375 9.257812 -15.550781 C 9.757812 -16.121094 10.421875 -16.558594 11.207031 -16.875 C 11.964844 -17.191406 12.875 -17.347656 13.914062 -17.347656 C 14.921875 -17.347656 15.835938 -17.191406 16.621094 -16.875 C 17.378906 -16.558594 18.039062 -16.121094 18.542969 -15.550781 C 19.046875 -14.984375 19.457031 -14.355469 19.707031 -13.601562 C 19.960938 -12.84375 20.117188 -12.027344 20.117188 -11.175781 Z M 20.117188 -11.175781 "/></g></g></g><g fill="#5ce1e6" fill-opacity="0.502"><g transform="translate(0.961051, 48.265366)"><g><path d="M 10.136719 -8.53125 C 11.300781 -8.53125 12.339844 -8.722656 13.253906 -9.128906 C 14.167969 -9.507812 14.921875 -10.042969 15.550781 -10.671875 C 16.183594 -11.300781 16.65625 -12.058594 16.96875 -12.875 C 17.285156 -13.695312 17.472656 -14.546875 17.472656 -15.425781 C 17.472656 -16.277344 17.316406 -17.125 17 -17.945312 C 16.6875 -18.765625 16.214844 -19.519531 15.585938 -20.179688 C 14.953125 -20.808594 14.199219 -21.34375 13.285156 -21.722656 C 12.371094 -22.101562 11.332031 -22.320312 10.167969 -22.320312 L 5.039062 -22.320312 C 4.597656 -22.320312 4.1875 -22.226562 3.871094 -22.070312 C 3.558594 -21.910156 3.273438 -21.722656 3.054688 -21.472656 C 2.800781 -21.21875 2.644531 -20.96875 2.519531 -20.683594 C 2.394531 -20.371094 2.359375 -20.085938 2.359375 -19.804688 L 2.359375 -2.488281 C 2.359375 -2.203125 2.394531 -1.921875 2.519531 -1.636719 C 2.644531 -1.324219 2.800781 -1.070312 3.023438 -0.820312 C 3.242188 -0.566406 3.527344 -0.347656 3.839844 -0.1875 C 4.15625 -0.03125 4.566406 0.03125 5.003906 0.03125 C 5.445312 0.03125 5.824219 -0.03125 6.171875 -0.1875 C 6.484375 -0.347656 6.769531 -0.535156 6.988281 -0.785156 C 7.210938 -1.039062 7.367188 -1.289062 7.492188 -1.605469 C 7.585938 -1.890625 7.648438 -2.171875 7.648438 -2.457031 L 7.648438 -8.027344 C 7.648438 -8.1875 7.683594 -8.3125 7.808594 -8.40625 C 7.902344 -8.46875 7.996094 -8.53125 8.058594 -8.53125 Z M 7.648438 -14.074219 L 7.648438 -16.84375 C 7.648438 -17 7.683594 -17.125 7.808594 -17.222656 C 7.902344 -17.285156 7.996094 -17.347656 8.058594 -17.347656 L 10.136719 -17.347656 C 10.765625 -17.347656 11.269531 -17.15625 11.617188 -16.84375 C 11.964844 -16.527344 12.152344 -16.054688 12.152344 -15.457031 C 12.152344 -14.828125 11.964844 -14.355469 11.617188 -14.042969 C 11.269531 -13.726562 10.765625 -13.570312 10.136719 -13.570312 L 8.058594 -13.570312 C 7.996094 -13.570312 7.902344 -13.601562 7.808594 -13.695312 C 7.683594 -13.757812 7.648438 -13.882812 7.648438 -14.074219 Z M 7.648438 -14.074219 "/></g></g></g><g fill="#5ce1e6" fill-opacity="0.502"><g transform="translate(20.826774, 48.265366)"><g><path d="M 13.914062 0 C 15.550781 0 17.0625 -0.25 18.480469 -0.785156 C 19.867188 -1.324219 21.09375 -2.078125 22.132812 -3.054688 C 23.140625 -4.03125 23.957031 -5.195312 24.558594 -6.578125 C 25.125 -7.964844 25.4375 -9.476562 25.4375 -11.175781 C 25.4375 -12.84375 25.125 -14.355469 24.558594 -15.742188 C 23.957031 -17.09375 23.140625 -18.261719 22.132812 -19.234375 C 21.09375 -20.210938 19.867188 -20.96875 18.480469 -21.503906 C 17.0625 -22.039062 15.550781 -22.320312 13.914062 -22.320312 C 12.277344 -22.320312 10.734375 -22.039062 9.320312 -21.503906 C 7.902344 -20.96875 6.675781 -20.210938 5.667969 -19.234375 C 4.628906 -18.261719 3.808594 -17.09375 3.242188 -15.742188 C 2.644531 -14.355469 2.359375 -12.84375 2.359375 -11.175781 C 2.359375 -9.476562 2.644531 -7.964844 3.242188 -6.578125 C 3.808594 -5.195312 4.628906 -4.03125 5.667969 -3.054688 C 6.675781 -2.078125 7.902344 -1.324219 9.320312 -0.785156 C 10.734375 -0.25 12.277344 0 13.914062 0 Z M 20.117188 -11.175781 C 20.117188 -10.292969 19.960938 -9.476562 19.707031 -8.722656 C 19.457031 -7.964844 19.046875 -7.335938 18.542969 -6.769531 C 18.039062 -6.203125 17.378906 -5.792969 16.621094 -5.476562 C 15.835938 -5.164062 14.921875 -5.003906 13.914062 -5.003906 C 12.875 -5.003906 11.964844 -5.164062 11.207031 -5.476562 C 10.421875 -5.792969 9.757812 -6.203125 9.257812 -6.769531 C 8.722656 -7.335938 8.3125 -7.964844 8.058594 -8.722656 C 7.808594 -9.476562 7.683594 -10.292969 7.683594 -11.175781 C 7.683594 -12.027344 7.808594 -12.84375 8.058594 -13.601562 C 8.3125 -14.355469 8.722656 -14.984375 9.257812 -15.550781 C 9.757812 -16.121094 10.421875 -16.558594 11.207031 -16.875 C 11.964844 -17.191406 12.875 -17.347656 13.914062 -17.347656 C 14.921875 -17.347656 15.835938 -17.191406 16.621094 -16.875 C 17.378906 -16.558594 18.039062 -16.121094 18.542969 -15.550781 C 19.046875 -14.984375 19.457031 -14.355469 19.707031 -13.601562 C 19.960938 -12.84375 20.117188 -12.027344 20.117188 -11.175781 Z M 20.117188 -11.175781 "/></g></g></g><g fill="#5ce1e6" fill-opacity="0.502"><g transform="translate(48.626194, 48.265366)"><g><path d="M 13.914062 0 C 15.550781 0 17.0625 -0.25 18.480469 -0.785156 C 19.867188 -1.324219 21.09375 -2.078125 22.132812 -3.054688 C 23.140625 -4.03125 23.957031 -5.195312 24.558594 -6.578125 C 25.125 -7.964844 25.4375 -9.476562 25.4375 -11.175781 C 25.4375 -12.84375 25.125 -14.355469 24.558594 -15.742188 C 23.957031 -17.09375 23.140625 -18.261719 22.132812 -19.234375 C 21.09375 -20.210938 19.867188 -20.96875 18.480469 -21.503906 C 17.0625 -22.039062 15.550781 -22.320312 13.914062 -22.320312 C 12.277344 -22.320312 10.734375 -22.039062 9.320312 -21.503906 C 7.902344 -20.96875 6.675781 -20.210938 5.667969 -19.234375 C 4.628906 -18.261719 3.808594 -17.09375 3.242188 -15.742188 C 2.644531 -14.355469 2.359375 -12.84375 2.359375 -11.175781 C 2.359375 -9.476562 2.644531 -7.964844 3.242188 -6.578125 C 3.808594 -5.195312 4.628906 -4.03125 5.667969 -3.054688 C 6.675781 -2.078125 7.902344 -1.324219 9.320312 -0.785156 C 10.734375 -0.25 12.277344 0 13.914062 0 Z M 20.117188 -11.175781 C 20.117188 -10.292969 19.960938 -9.476562 19.707031 -8.722656 C 19.457031 -7.964844 19.046875 -7.335938 18.542969 -6.769531 C 18.039062 -6.203125 17.378906 -5.792969 16.621094 -5.476562 C 15.835938 -5.164062 14.921875 -5.003906 13.914062 -5.003906 C 12.875 -5.003906 11.964844 -5.164062 11.207031 -5.476562 C 10.421875 -5.792969 9.757812 -6.203125 9.257812 -6.769531 C 8.722656 -7.335938 8.3125 -7.964844 8.058594 -8.722656 C 7.808594 -9.476562 7.683594 -10.292969 7.683594 -11.175781 C 7.683594 -12.027344 7.808594 -12.84375 8.058594 -13.601562 C 8.3125 -14.355469 8.722656 -14.984375 9.257812 -15.550781 C 9.757812 -16.121094 10.421875 -16.558594 11.207031 -16.875 C 11.964844 -17.191406 12.875 -17.347656 13.914062 -17.347656 C 14.921875 -17.347656 15.835938 -17.191406 16.621094 -16.875 C 17.378906 -16.558594 18.039062 -16.121094 18.542969 -15.550781 C 19.046875 -14.984375 19.457031 -14.355469 19.707031 -13.601562 C 19.960938 -12.84375 20.117188 -12.027344 20.117188 -11.175781 Z M 20.117188 -11.175781 "/></g></g></g><g fill="#5bffd3" fill-opacity="1"><g transform="translate(-0.232252, 48.519011)"><g><path d="M 10.136719 -8.53125 C 11.300781 -8.53125 12.339844 -8.722656 13.253906 -9.128906 C 14.167969 -9.507812 14.921875 -10.042969 15.550781 -10.671875 C 16.183594 -11.300781 16.65625 -12.058594 16.96875 -12.875 C 17.285156 -13.695312 17.472656 -14.546875 17.472656 -15.425781 C 17.472656 -16.277344 17.316406 -17.125 17 -17.945312 C 16.6875 -18.765625 16.214844 -19.519531 15.585938 -20.179688 C 14.953125 -20.808594 14.199219 -21.34375 13.285156 -21.722656 C 12.371094 -22.101562 11.332031 -22.320312 10.167969 -22.320312 L 5.039062 -22.320312 C 4.597656 -22.320312 4.1875 -22.226562 3.871094 -22.070312 C 3.558594 -21.910156 3.273438 -21.722656 3.054688 -21.472656 C 2.800781 -21.21875 2.644531 -20.96875 2.519531 -20.683594 C 2.394531 -20.371094 2.359375 -20.085938 2.359375 -19.804688 L 2.359375 -2.488281 C 2.359375 -2.203125 2.394531 -1.921875 2.519531 -1.636719 C 2.644531 -1.324219 2.800781 -1.070312 3.023438 -0.820312 C 3.242188 -0.566406 3.527344 -0.347656 3.839844 -0.1875 C 4.15625 -0.03125 4.566406 0.03125 5.003906 0.03125 C 5.445312 0.03125 5.824219 -0.03125 6.171875 -0.1875 C 6.484375 -0.347656 6.769531 -0.535156 6.988281 -0.785156 C 7.210938 -1.039062 7.367188 -1.289062 7.492188 -1.605469 C 7.585938 -1.890625 7.648438 -2.171875 7.648438 -2.457031 L 7.648438 -8.027344 C 7.648438 -8.1875 7.683594 -8.3125 7.808594 -8.40625 C 7.902344 -8.46875 7.996094 -8.53125 8.058594 -8.53125 Z M 7.648438 -14.074219 L 7.648438 -16.84375 C 7.648438 -17 7.683594 -17.125 7.808594 -17.222656 C 7.902344 -17.285156 7.996094 -17.347656 8.058594 -17.347656 L 10.136719 -17.347656 C 10.765625 -17.347656 11.269531 -17.15625 11.617188 -16.84375 C 11.964844 -16.527344 12.152344 -16.054688 12.152344 -15.457031 C 12.152344 -14.828125 11.964844 -14.355469 11.617188 -14.042969 C 11.269531 -13.726562 10.765625 -13.570312 10.136719 -13.570312 L 8.058594 -13.570312 C 7.996094 -13.570312 7.902344 -13.601562 7.808594 -13.695312 C 7.683594 -13.757812 7.648438 -13.882812 7.648438 -14.074219 Z M 7.648438 -14.074219 "/></g></g></g><g fill="#5bffd3" fill-opacity="1"><g transform="translate(19.633471, 48.519011)"><g><path d="M 13.914062 0 C 15.550781 0 17.0625 -0.25 18.480469 -0.785156 C 19.867188 -1.324219 21.09375 -2.078125 22.132812 -3.054688 C 23.140625 -4.03125 23.957031 -5.195312 24.558594 -6.578125 C 25.125 -7.964844 25.4375 -9.476562 25.4375 -11.175781 C 25.4375 -12.84375 25.125 -14.355469 24.558594 -15.742188 C 23.957031 -17.09375 23.140625 -18.261719 22.132812 -19.234375 C 21.09375 -20.210938 19.867188 -20.96875 18.480469 -21.503906 C 17.0625 -22.039062 15.550781 -22.320312 13.914062 -22.320312 C 12.277344 -22.320312 10.734375 -22.039062 9.320312 -21.503906 C 7.902344 -20.96875 6.675781 -20.210938 5.667969 -19.234375 C 4.628906 -18.261719 3.808594 -17.09375 3.242188 -15.742188 C 2.644531 -14.355469 2.359375 -12.84375 2.359375 -11.175781 C 2.359375 -9.476562 2.644531 -7.964844 3.242188 -6.578125 C 3.808594 -5.195312 4.628906 -4.03125 5.667969 -3.054688 C 6.675781 -2.078125 7.902344 -1.324219 9.320312 -0.785156 C 10.734375 -0.25 12.277344 0 13.914062 0 Z M 20.117188 -11.175781 C 20.117188 -10.292969 19.960938 -9.476562 19.707031 -8.722656 C 19.457031 -7.964844 19.046875 -7.335938 18.542969 -6.769531 C 18.039062 -6.203125 17.378906 -5.792969 16.621094 -5.476562 C 15.835938 -5.164062 14.921875 -5.003906 13.914062 -5.003906 C 12.875 -5.003906 11.964844 -5.164062 11.207031 -5.476562 C 10.421875 -5.792969 9.757812 -6.203125 9.257812 -6.769531 C 8.722656 -7.335938 8.3125 -7.964844 8.058594 -8.722656 C 7.808594 -9.476562 7.683594 -10.292969 7.683594 -11.175781 C 7.683594 -12.027344 7.808594 -12.84375 8.058594 -13.601562 C 8.3125 -14.355469 8.722656 -14.984375 9.257812 -15.550781 C 9.757812 -16.121094 10.421875 -16.558594 11.207031 -16.875 C 11.964844 -17.191406 12.875 -17.347656 13.914062 -17.347656 C 14.921875 -17.347656 15.835938 -17.191406 16.621094 -16.875 C 17.378906 -16.558594 18.039062 -16.121094 18.542969 -15.550781 C 19.046875 -14.984375 19.457031 -14.355469 19.707031 -13.601562 C 19.960938 -12.84375 20.117188 -12.027344 20.117188 -11.175781 Z M 20.117188 -11.175781 "/></g></g></g><g fill="#5bffd3" fill-opacity="1"><g transform="translate(47.43289, 48.519011)"><g><path d="M 13.914062 0 C 15.550781 0 17.0625 -0.25 18.480469 -0.785156 C 19.867188 -1.324219 21.09375 -2.078125 22.132812 -3.054688 C 23.140625 -4.03125 23.957031 -5.195312 24.558594 -6.578125 C 25.125 -7.964844 25.4375 -9.476562 25.4375 -11.175781 C 25.4375 -12.84375 25.125 -14.355469 24.558594 -15.742188 C 23.957031 -17.09375 23.140625 -18.261719 22.132812 -19.234375 C 21.09375 -20.210938 19.867188 -20.96875 18.480469 -21.503906 C 17.0625 -22.039062 15.550781 -22.320312 13.914062 -22.320312 C 12.277344 -22.320312 10.734375 -22.039062 9.320312 -21.503906 C 7.902344 -20.96875 6.675781 -20.210938 5.667969 -19.234375 C 4.628906 -18.261719 3.808594 -17.09375 3.242188 -15.742188 C 2.644531 -14.355469 2.359375 -12.84375 2.359375 -11.175781 C 2.359375 -9.476562 2.644531 -7.964844 3.242188 -6.578125 C 3.808594 -5.195312 4.628906 -4.03125 5.667969 -3.054688 C 6.675781 -2.078125 7.902344 -1.324219 9.320312 -0.785156 C 10.734375 -0.25 12.277344 0 13.914062 0 Z M 20.117188 -11.175781 C 20.117188 -10.292969 19.960938 -9.476562 19.707031 -8.722656 C 19.457031 -7.964844 19.046875 -7.335938 18.542969 -6.769531 C 18.039062 -6.203125 17.378906 -5.792969 16.621094 -5.476562 C 15.835938 -5.164062 14.921875 -5.003906 13.914062 -5.003906 C 12.875 -5.003906 11.964844 -5.164062 11.207031 -5.476562 C 10.421875 -5.792969 9.757812 -6.203125 9.257812 -6.769531 C 8.722656 -7.335938 8.3125 -7.964844 8.058594 -8.722656 C 7.808594 -9.476562 7.683594 -10.292969 7.683594 -11.175781 C 7.683594 -12.027344 7.808594 -12.84375 8.058594 -13.601562 C 8.3125 -14.355469 8.722656 -14.984375 9.257812 -15.550781 C 9.757812 -16.121094 10.421875 -16.558594 11.207031 -16.875 C 11.964844 -17.191406 12.875 -17.347656 13.914062 -17.347656 C 14.921875 -17.347656 15.835938 -17.191406 16.621094 -16.875 C 17.378906 -16.558594 18.039062 -16.121094 18.542969 -15.550781 C 19.046875 -14.984375 19.457031 -14.355469 19.707031 -13.601562 C 19.960938 -12.84375 20.117188 -12.027344 20.117188 -11.175781 Z M 20.117188 -11.175781 "/></g></g></g></svg>