<svg xmlns="http://www.w3.org/2000/svg" xmlns:xlink="http://www.w3.org/1999/xlink" width="100" zoomAndPan="magnify" viewBox="0 0 75 74.999997" height="100" preserveAspectRatio="xMidYMid meet" version="1.0"><defs><clipPath id="64dcf40b65"><path d="M 0.515625 16.730469 L 74.765625 16.730469 L 74.765625 74.59375 L 0.515625 74.59375 Z M 0.515625 16.730469 " clip-rule="nonzero"/></clipPath></defs><path fill="#5e17eb" d="M 45.632812 19.027344 L 48.902344 15.765625 L 45.632812 12.507812 L 43.996094 14.132812 L 45.632812 15.765625 L 43.996094 17.394531 L 45.632812 19.027344 " fill-opacity="1" fill-rule="nonzero"/><path fill="#5e17eb" d="M 27.125 13.15625 L 29.96875 13.15625 L 30.242188 12.386719 C 30.664062 11.203125 31.289062 10.128906 32.097656 9.1875 L 32.632812 8.566406 L 31.210938 6.121094 L 35.765625 3.507812 L 37.1875 5.953125 L 37.984375 5.804688 C 39.292969 5.570312 40.40625 5.570312 41.710938 5.804688 L 42.511719 5.953125 L 43.933594 3.507812 L 48.488281 6.121094 L 47.066406 8.566406 L 47.601562 9.1875 C 48.410156 10.128906 49.035156 11.203125 49.457031 12.386719 L 49.730469 13.15625 L 52.574219 13.15625 L 52.574219 18.375 L 49.730469 18.375 L 49.457031 19.140625 C 49.035156 20.324219 48.410156 21.398438 47.601562 22.34375 L 47.066406 22.960938 L 48.488281 25.40625 L 43.933594 28.019531 L 42.511719 25.574219 L 41.710938 25.722656 C 40.40625 25.964844 39.292969 25.964844 37.984375 25.722656 L 37.1875 25.574219 L 35.765625 28.019531 L 31.210938 25.40625 L 32.632812 22.960938 L 32.097656 22.34375 C 31.289062 21.402344 30.664062 20.324219 30.242188 19.140625 L 29.96875 18.375 L 27.125 18.375 Z M 29.820312 23.199219 L 28.046875 26.253906 L 36.609375 31.167969 L 38.382812 28.113281 C 39.378906 28.238281 40.320312 28.238281 41.3125 28.113281 L 43.089844 31.167969 L 51.652344 26.253906 L 49.875 23.199219 C 50.460938 22.417969 50.949219 21.578125 51.335938 20.679688 L 54.890625 20.679688 L 54.890625 10.847656 L 51.335938 10.847656 C 50.949219 9.953125 50.460938 9.109375 49.875 8.332031 L 51.652344 5.277344 L 43.089844 0.363281 L 41.3125 3.414062 C 40.320312 3.292969 39.378906 3.292969 38.382812 3.414062 L 36.609375 0.363281 L 28.046875 5.277344 L 29.820312 8.332031 C 29.238281 9.109375 28.75 9.953125 28.359375 10.847656 L 24.808594 10.847656 L 24.808594 20.679688 L 28.359375 20.679688 C 28.75 21.578125 29.238281 22.421875 29.820312 23.199219 " fill-opacity="1" fill-rule="nonzero"/><path fill="#5e17eb" d="M 43.625 10.425781 L 41.429688 9.699219 L 37.230469 22.253906 L 39.425781 22.984375 L 43.625 10.425781 " fill-opacity="1" fill-rule="nonzero"/><path fill="#5e17eb" d="M 36.855469 17.394531 L 35.21875 15.765625 L 36.855469 14.132812 L 35.21875 12.507812 L 31.949219 15.765625 L 35.21875 19.027344 L 36.855469 17.394531 " fill-opacity="1" fill-rule="nonzero"/><path fill="#5e17eb" d="M 41.003906 42.273438 C 43.320312 42.273438 41.003906 42.273438 43.320312 42.273438 L 43.320312 39.964844 L 41.003906 39.964844 L 41.003906 42.273438 " fill-opacity="1" fill-rule="nonzero"/><g clip-path="url(#64dcf40b65)"><path fill="#5e17eb" d="M 72.238281 50.777344 L 65.492188 61.816406 C 64.042969 64.289062 62.917969 64.996094 61.191406 64.503906 L 57.273438 63.421875 L 56.097656 63.097656 L 54.921875 62.769531 L 49.105469 61.164062 L 47.945312 60.84375 L 44.539062 59.90625 C 44.570312 59.882812 44.597656 59.867188 44.628906 59.847656 C 44.757812 59.757812 44.878906 59.65625 45 59.558594 C 45.414062 59.214844 45.757812 58.824219 46.03125 58.40625 C 46.484375 57.714844 46.742188 56.949219 46.746094 56.152344 C 46.753906 55.546875 46.617188 54.960938 46.363281 54.410156 L 54.613281 56.625 L 55.789062 56.933594 L 56.957031 57.25 L 60.8125 58.28125 L 67.351562 46.597656 L 68.019531 45.40625 L 66 44.28125 L 59.671875 55.589844 L 56.839844 54.828125 L 56.609375 50.3125 C 56.609375 48.042969 58.992188 42.949219 60.507812 41.523438 C 61.386719 41.871094 62.332031 42.070312 63.308594 42.070312 C 64.605469 42.070312 65.828125 41.734375 66.933594 41.144531 L 67.613281 41.144531 C 70.164062 41.144531 72.238281 43.210938 72.238281 45.753906 L 72.238281 50.625 L 72.304688 50.675781 Z M 49.105469 67.625 L 2.839844 67.625 C 2.875 65.515625 3.164062 65.320312 5.269531 65.320312 L 47.222656 65.320312 C 48.261719 65.320312 49.105469 66.09375 49.105469 67.050781 Z M 14.851562 41.457031 L 15.777344 50.613281 L 15.777344 63.015625 L 8.554688 63.015625 Z M 15.152344 19.742188 C 15.519531 19.328125 16.023438 19.101562 16.574219 19.101562 L 18.199219 19.101562 L 22.492188 53.28125 L 20.390625 53.28125 C 19.433594 53.28125 18.628906 52.570312 18.507812 51.628906 L 16.933594 39.097656 L 15.792969 29.984375 L 14.691406 21.222656 C 14.625 20.679688 14.789062 20.152344 15.152344 19.742188 Z M 36.886719 60.710938 C 37.914062 61 39.007812 61.164062 40.066406 61.175781 C 40.09375 61.175781 40.125 61.175781 40.152344 61.175781 C 40.488281 61.175781 40.816406 61.152344 41.140625 61.117188 L 41.085938 61.339844 L 46.789062 62.917969 L 46.789062 63.015625 L 28.28125 63.015625 L 28.28125 60.710938 Z M 38.09375 53.472656 C 38.496094 53.4375 38.890625 53.40625 39.257812 53.359375 L 40.707031 53.171875 L 40.195312 51.8125 C 39.957031 51.179688 39.835938 50.953125 39.589844 50.625 C 41.398438 51.539062 42.191406 52.824219 42.671875 53.609375 L 42.917969 54.007812 L 43.042969 54.082031 L 43.136719 54.140625 C 43.5 54.382812 43.792969 54.652344 44.003906 54.945312 C 44.285156 55.320312 44.4375 55.722656 44.433594 56.132812 C 44.421875 57.035156 43.714844 57.671875 43.292969 57.964844 C 43.253906 57.996094 43.210938 58.019531 43.171875 58.042969 C 42.957031 58.183594 42.726562 58.300781 42.472656 58.40625 C 42.265625 58.492188 42.042969 58.570312 41.816406 58.632812 C 41.269531 58.78125 40.679688 58.863281 40.089844 58.871094 C 39.117188 58.863281 38.121094 58.683594 37.238281 58.40625 C 35.636719 57.902344 34.402344 57.058594 34.328125 56.230469 C 34.140625 54.023438 35.210938 53.71875 38.09375 53.472656 Z M 56.964844 32.09375 C 56.964844 27.863281 59.8125 24.421875 63.308594 24.421875 C 66.8125 24.421875 69.65625 27.863281 69.65625 32.09375 C 69.65625 35.003906 68.3125 37.539062 66.328125 38.839844 C 65.429688 39.429688 64.40625 39.765625 63.308594 39.765625 C 62.292969 39.765625 61.335938 39.46875 60.480469 38.953125 C 58.398438 37.691406 56.964844 35.09375 56.964844 32.09375 Z M 74.554688 50.890625 L 74.554688 45.753906 C 74.554688 42.582031 72.394531 39.910156 69.46875 39.09375 C 71.015625 37.296875 71.96875 34.820312 71.96875 32.09375 C 71.96875 26.589844 68.085938 22.117188 63.308594 22.117188 C 58.53125 22.117188 54.648438 26.589844 54.648438 32.09375 C 54.648438 35.539062 56.171875 38.578125 58.484375 40.371094 C 56.082031 43.019531 54.300781 48.371094 54.300781 50.375 L 54.492188 54.203125 L 43.964844 51.378906 C 43.261719 50.429688 42.128906 49.234375 40.238281 48.378906 C 39.246094 47.925781 38.515625 48.132812 38.078125 48.382812 C 37.527344 48.699219 37.140625 49.234375 37.015625 49.851562 C 36.921875 50.324219 36.988281 50.8125 37.199219 51.242188 C 34.851562 51.480469 31.660156 52.15625 32.027344 56.429688 C 32.085938 57.160156 32.398438 57.824219 32.890625 58.40625 L 28.28125 58.40625 C 27.003906 58.40625 25.964844 59.441406 25.964844 60.710938 L 25.964844 63.015625 L 18.089844 63.015625 L 18.089844 54.898438 C 18.757812 55.332031 19.546875 55.585938 20.390625 55.585938 L 25.109375 55.585938 L 20.246094 16.796875 L 16.574219 16.796875 C 15.371094 16.796875 14.21875 17.3125 13.421875 18.214844 C 12.621094 19.113281 12.25 20.316406 12.398438 21.511719 L 14.164062 35.566406 L 6.148438 63.015625 L 5.269531 63.015625 C 0.515625 63.015625 0.515625 65.6875 0.515625 68.777344 L 0.515625 69.933594 L 1.671875 69.933594 L 1.671875 74.539062 L 3.984375 74.539062 L 3.984375 69.933594 L 47.945312 69.933594 L 47.949219 73.386719 L 47.949219 74.539062 L 50.261719 74.539062 L 50.257812 69.933594 L 51.417969 69.933594 L 51.417969 67.050781 C 51.417969 65.632812 50.652344 64.382812 49.496094 63.664062 L 55.042969 65.195312 L 55.515625 74.59375 L 57.824219 74.480469 L 57.769531 73.386719 L 57.390625 65.847656 L 60.566406 66.722656 C 61.136719 66.886719 61.664062 66.957031 62.160156 66.957031 C 64.777344 66.957031 66.367188 64.894531 67.480469 62.992188 L 72.238281 55.207031 L 72.238281 74.539062 L 74.554688 74.539062 L 74.554688 51.425781 L 74.792969 51.03125 L 74.554688 50.890625 " fill-opacity="1" fill-rule="nonzero"/></g><path fill="#5e17eb" d="M 34.066406 42.273438 L 34.066406 39.964844 L 31.75 39.964844 L 31.75 42.273438 C 34.066406 42.273438 31.75 42.273438 34.066406 42.273438 " fill-opacity="1" fill-rule="nonzero"/><path fill="#5e17eb" d="M 47.945312 42.273438 L 47.945312 39.964844 L 45.632812 39.964844 L 45.632812 42.273438 C 47.945312 42.273438 45.632812 42.273438 47.945312 42.273438 " fill-opacity="1" fill-rule="nonzero"/><path fill="#5e17eb" d="M 36.378906 42.273438 C 38.691406 42.273438 36.378906 42.273438 38.691406 42.273438 L 38.691406 39.964844 L 36.378906 39.964844 L 36.378906 42.273438 " fill-opacity="1" fill-rule="nonzero"/></svg>