<svg xmlns="http://www.w3.org/2000/svg" xmlns:xlink="http://www.w3.org/1999/xlink" width="100" zoomAndPan="magnify" viewBox="0 0 75 74.999997" height="100" preserveAspectRatio="xMidYMid meet" version="1.0"><defs><clipPath id="6b4d425f00"><path d="M 0.410156 4 L 74.660156 4 L 74.660156 71 L 0.410156 71 Z M 0.410156 4 " clip-rule="nonzero"/></clipPath></defs><path fill="#39c1d7" d="M 44.199219 37.5 C 44.199219 37.9375 44.15625 38.371094 44.074219 38.796875 C 43.988281 39.226562 43.859375 39.644531 43.691406 40.046875 C 43.527344 40.449219 43.320312 40.835938 43.078125 41.199219 C 42.835938 41.5625 42.558594 41.898438 42.25 42.207031 C 41.941406 42.515625 41.601562 42.792969 41.238281 43.035156 C 40.875 43.277344 40.492188 43.480469 40.085938 43.648438 C 39.683594 43.816406 39.265625 43.941406 38.835938 44.027344 C 38.40625 44.113281 37.976562 44.15625 37.535156 44.15625 C 37.097656 44.15625 36.667969 44.113281 36.238281 44.027344 C 35.808594 43.941406 35.390625 43.816406 34.988281 43.648438 C 34.582031 43.480469 34.199219 43.277344 33.835938 43.035156 C 33.472656 42.792969 33.132812 42.515625 32.824219 42.207031 C 32.515625 41.898438 32.238281 41.5625 31.996094 41.199219 C 31.753906 40.835938 31.546875 40.449219 31.378906 40.046875 C 31.214844 39.644531 31.085938 39.226562 31 38.796875 C 30.917969 38.371094 30.875 37.9375 30.875 37.5 C 30.875 37.0625 30.917969 36.628906 31 36.203125 C 31.085938 35.773438 31.214844 35.355469 31.378906 34.953125 C 31.546875 34.550781 31.753906 34.164062 31.996094 33.800781 C 32.238281 33.4375 32.515625 33.101562 32.824219 32.792969 C 33.132812 32.484375 33.472656 32.207031 33.835938 31.964844 C 34.199219 31.722656 34.582031 31.519531 34.988281 31.351562 C 35.390625 31.183594 35.808594 31.058594 36.238281 30.972656 C 36.667969 30.886719 37.097656 30.84375 37.535156 30.84375 C 37.976562 30.84375 38.40625 30.886719 38.835938 30.972656 C 39.265625 31.058594 39.683594 31.183594 40.085938 31.351562 C 40.492188 31.519531 40.875 31.722656 41.238281 31.964844 C 41.601562 32.207031 41.941406 32.484375 42.25 32.792969 C 42.558594 33.101562 42.835938 33.4375 43.078125 33.800781 C 43.320312 34.164062 43.527344 34.550781 43.691406 34.953125 C 43.859375 35.355469 43.988281 35.773438 44.074219 36.203125 C 44.15625 36.628906 44.199219 37.0625 44.199219 37.5 Z M 44.199219 37.5 " fill-opacity="1" fill-rule="nonzero"/><path fill="#1f212b" d="M 37.535156 45.105469 C 33.339844 45.105469 29.921875 41.695312 29.921875 37.5 C 29.921875 33.304688 33.339844 29.894531 37.535156 29.894531 C 41.734375 29.894531 45.152344 33.304688 45.152344 37.5 C 45.152344 41.695312 41.734375 45.105469 37.535156 45.105469 Z M 37.535156 31.792969 C 34.386719 31.792969 31.824219 34.355469 31.824219 37.5 C 31.824219 40.644531 34.386719 43.207031 37.535156 43.207031 C 40.6875 43.207031 43.25 40.644531 43.25 37.5 C 43.25 34.355469 40.6875 31.792969 37.535156 31.792969 Z M 37.535156 31.792969 " fill-opacity="1" fill-rule="nonzero"/><g clip-path="url(#6b4d425f00)"><path fill="#39c1d7" d="M 74.1875 37.5 C 74.1875 32.386719 68.023438 27.964844 58.460938 25.332031 C 60.921875 15.730469 60.164062 8.183594 55.769531 5.621094 C 54.039062 4.609375 51.9375 4.425781 49.523438 5.070312 C 45.890625 6.042969 41.726562 8.882812 37.535156 13.054688 C 33.347656 8.882812 29.183594 6.042969 25.550781 5.070312 C 23.136719 4.425781 21.035156 4.609375 19.304688 5.621094 C 14.910156 8.183594 14.152344 15.730469 16.613281 25.332031 C 7.050781 27.964844 0.886719 32.386719 0.886719 37.5 C 0.886719 42.613281 7.050781 47.035156 16.613281 49.671875 C 14.152344 59.269531 14.910156 66.820312 19.304688 69.378906 C 20.363281 69.996094 21.558594 70.308594 22.878906 70.308594 C 23.71875 70.308594 24.609375 70.183594 25.550781 69.929688 C 29.183594 68.957031 33.347656 66.117188 37.535156 61.945312 C 41.726562 66.117188 45.890625 68.957031 49.523438 69.929688 C 50.464844 70.183594 51.355469 70.308594 52.195312 70.308594 C 53.515625 70.308594 54.710938 70 55.769531 69.378906 C 60.164062 66.820312 60.917969 59.269531 58.460938 49.671875 C 68.023438 47.035156 74.1875 42.613281 74.1875 37.5 Z M 50.261719 7.824219 C 50.953125 7.640625 51.59375 7.546875 52.183594 7.546875 C 53 7.546875 53.722656 7.726562 54.332031 8.082031 C 57.273438 9.800781 57.875 16.089844 55.683594 24.636719 C 52.664062 23.960938 49.367188 23.449219 45.863281 23.132812 C 43.808594 20.171875 41.671875 17.476562 39.515625 15.117188 C 43.34375 11.289062 47.09375 8.671875 50.261719 7.824219 Z M 47.773438 43.488281 C 46.652344 45.453125 45.472656 47.335938 44.257812 49.136719 C 42.109375 49.296875 39.867188 49.386719 37.535156 49.386719 C 35.207031 49.386719 32.964844 49.296875 30.816406 49.136719 C 29.605469 47.335938 28.421875 45.453125 27.300781 43.488281 C 26.140625 41.457031 25.097656 39.457031 24.164062 37.5 C 25.097656 35.542969 26.140625 33.542969 27.300781 31.511719 C 28.421875 29.546875 29.605469 27.664062 30.816406 25.863281 C 32.96875 25.703125 35.207031 25.613281 37.535156 25.613281 C 39.867188 25.613281 42.105469 25.703125 44.257812 25.863281 C 45.46875 27.664062 46.652344 29.546875 47.773438 31.511719 C 48.933594 33.542969 49.976562 35.542969 50.910156 37.5 C 49.976562 39.457031 48.933594 41.457031 47.773438 43.488281 Z M 52.429688 40.871094 C 53.417969 43.210938 54.238281 45.464844 54.902344 47.605469 C 52.734375 48.085938 50.398438 48.488281 47.902344 48.785156 C 48.703125 47.527344 49.492188 46.238281 50.253906 44.902344 C 51.027344 43.554688 51.746094 42.207031 52.429688 40.871094 Z M 37.535156 57.808594 C 35.980469 56.085938 34.425781 54.183594 32.90625 52.121094 C 34.421875 52.195312 35.964844 52.238281 37.535156 52.238281 C 39.109375 52.238281 40.652344 52.195312 42.167969 52.121094 C 40.648438 54.183594 39.09375 56.085938 37.535156 57.808594 Z M 27.171875 48.785156 C 24.675781 48.488281 22.335938 48.085938 20.171875 47.605469 C 20.835938 45.464844 21.652344 43.210938 22.644531 40.871094 C 23.324219 42.207031 24.046875 43.554688 24.820312 44.902344 C 25.582031 46.238281 26.371094 47.527344 27.171875 48.785156 Z M 22.644531 34.128906 C 21.652344 31.789062 20.835938 29.535156 20.171875 27.394531 C 22.339844 26.910156 24.675781 26.511719 27.175781 26.210938 C 26.371094 27.472656 25.582031 28.761719 24.820312 30.097656 C 24.046875 31.449219 23.328125 32.792969 22.644531 34.128906 Z M 37.535156 17.191406 C 39.09375 18.914062 40.648438 20.816406 42.167969 22.878906 C 40.652344 22.804688 39.109375 22.761719 37.535156 22.761719 C 35.964844 22.761719 34.421875 22.804688 32.90625 22.878906 C 34.425781 20.816406 35.980469 18.914062 37.535156 17.191406 Z M 50.253906 30.097656 C 49.492188 28.761719 48.703125 27.472656 47.902344 26.214844 C 50.398438 26.511719 52.734375 26.914062 54.902344 27.394531 C 54.238281 29.539062 53.421875 31.789062 52.429688 34.132812 C 51.746094 32.792969 51.027344 31.449219 50.253906 30.097656 Z M 20.742188 8.082031 C 21.355469 7.726562 22.070312 7.546875 22.890625 7.546875 C 23.480469 7.546875 24.121094 7.640625 24.8125 7.824219 C 27.980469 8.671875 31.730469 11.289062 35.558594 15.117188 C 33.402344 17.476562 31.265625 20.171875 29.210938 23.132812 C 25.707031 23.449219 22.410156 23.957031 19.390625 24.636719 C 17.199219 16.089844 17.800781 9.800781 20.742188 8.082031 Z M 3.742188 37.5 C 3.742188 34.082031 8.886719 30.425781 17.390625 28.085938 C 18.3125 31.089844 19.523438 34.253906 21.011719 37.5 C 19.523438 40.746094 18.3125 43.910156 17.390625 46.914062 C 8.886719 44.574219 3.742188 40.917969 3.742188 37.5 Z M 24.8125 67.175781 C 23.160156 67.613281 21.792969 67.527344 20.742188 66.917969 C 17.800781 65.199219 17.199219 58.910156 19.390625 50.363281 C 22.410156 51.042969 25.707031 51.550781 29.207031 51.867188 C 31.265625 54.828125 33.402344 57.523438 35.554688 59.882812 C 31.730469 63.710938 27.980469 66.328125 24.8125 67.175781 Z M 54.332031 66.917969 C 53.28125 67.53125 51.914062 67.617188 50.261719 67.175781 C 47.09375 66.328125 43.34375 63.710938 39.515625 59.882812 C 41.671875 57.523438 43.808594 54.828125 45.863281 51.867188 C 49.367188 51.550781 52.664062 51.039062 55.683594 50.363281 C 57.875 58.910156 57.273438 65.199219 54.332031 66.917969 Z M 57.683594 46.914062 C 56.761719 43.910156 55.550781 40.746094 54.0625 37.5 C 55.550781 34.253906 56.761719 31.089844 57.683594 28.085938 C 66.1875 30.425781 71.332031 34.082031 71.332031 37.5 C 71.332031 40.917969 66.1875 44.574219 57.683594 46.914062 Z M 57.683594 46.914062 " fill-opacity="1" fill-rule="nonzero"/><path fill="#1f212b" d="M 22.871094 70.78125 C 21.472656 70.78125 20.191406 70.449219 19.0625 69.789062 C 14.65625 67.21875 13.558594 60.019531 16.039062 50.003906 C 6.101562 47.179688 0.410156 42.632812 0.410156 37.5 C 0.410156 32.367188 6.101562 27.820312 16.039062 24.996094 C 13.558594 14.980469 14.65625 7.78125 19.0625 5.210938 C 20.910156 4.132812 23.132812 3.929688 25.671875 4.609375 C 29.210938 5.558594 33.308594 8.242188 37.535156 12.386719 C 41.765625 8.242188 45.863281 5.558594 49.402344 4.609375 C 51.941406 3.929688 54.164062 4.132812 56.011719 5.210938 C 60.417969 7.78125 61.515625 14.980469 59.035156 24.996094 C 68.972656 27.820312 74.660156 32.367188 74.660156 37.5 C 74.660156 42.632812 68.972656 47.179688 59.035156 50.003906 C 61.515625 60.019531 60.421875 67.21875 56.011719 69.789062 C 54.175781 70.859375 51.929688 71.066406 49.402344 70.390625 C 45.863281 69.441406 41.765625 66.757812 37.535156 62.613281 C 33.308594 66.757812 29.210938 69.445312 25.671875 70.390625 C 24.699219 70.648438 23.757812 70.78125 22.878906 70.78125 C 22.875 70.78125 22.875 70.78125 22.871094 70.78125 Z M 22.882812 5.167969 C 21.644531 5.167969 20.527344 5.457031 19.542969 6.03125 C 15.523438 8.375 14.597656 15.546875 17.074219 25.210938 C 17.136719 25.464844 16.988281 25.71875 16.738281 25.789062 C 7.113281 28.441406 1.363281 32.820312 1.363281 37.5 C 1.363281 42.179688 7.113281 46.558594 16.738281 49.210938 C 16.988281 49.28125 17.136719 49.535156 17.074219 49.789062 C 14.597656 59.453125 15.523438 66.625 19.542969 68.96875 C 20.523438 69.539062 21.644531 69.832031 22.871094 69.832031 C 22.875 69.832031 22.875 69.832031 22.878906 69.832031 C 23.675781 69.832031 24.53125 69.710938 25.425781 69.472656 C 28.898438 68.542969 32.972656 65.824219 37.199219 61.609375 C 37.386719 61.421875 37.6875 61.421875 37.875 61.609375 C 42.101562 65.824219 46.175781 68.542969 49.648438 69.472656 C 51.925781 70.078125 53.917969 69.910156 55.53125 68.96875 C 59.550781 66.625 60.476562 59.453125 58 49.789062 C 57.9375 49.535156 58.085938 49.28125 58.335938 49.210938 C 67.960938 46.558594 73.710938 42.179688 73.710938 37.5 C 73.710938 32.820312 67.960938 28.441406 58.335938 25.789062 C 58.085938 25.71875 57.9375 25.464844 58 25.210938 C 60.476562 15.546875 59.550781 8.375 55.53125 6.03125 C 53.914062 5.085938 51.933594 4.917969 49.648438 5.527344 C 46.175781 6.457031 42.101562 9.175781 37.871094 13.390625 C 37.6875 13.578125 37.386719 13.578125 37.199219 13.390625 C 32.96875 9.175781 28.898438 6.457031 25.425781 5.527344 C 24.53125 5.289062 23.679688 5.167969 22.882812 5.167969 Z M 52.183594 67.925781 C 51.550781 67.925781 50.871094 67.828125 50.140625 67.636719 C 46.96875 66.785156 43.179688 64.222656 39.179688 60.21875 C 39 60.039062 38.996094 59.75 39.164062 59.5625 C 41.320312 57.199219 43.441406 54.519531 45.472656 51.597656 C 45.554688 51.480469 45.679688 51.40625 45.820312 51.394531 C 49.261719 51.082031 52.542969 50.582031 55.578125 49.898438 C 55.828125 49.839844 56.078125 49.992188 56.144531 50.242188 C 58.367188 58.917969 57.765625 65.464844 54.570312 67.328125 C 53.886719 67.726562 53.085938 67.925781 52.183594 67.925781 Z M 40.175781 59.867188 C 43.9375 63.566406 47.460938 65.933594 50.386719 66.714844 C 51.910156 67.121094 53.15625 67.050781 54.089844 66.507812 C 56.808594 64.921875 57.285156 58.832031 55.335938 50.925781 C 52.453125 51.550781 49.359375 52.019531 46.128906 52.320312 C 44.210938 55.070312 42.210938 57.605469 40.175781 59.867188 Z M 22.890625 67.925781 C 21.988281 67.925781 21.1875 67.726562 20.503906 67.328125 C 17.308594 65.464844 16.707031 58.917969 18.929688 50.242188 C 18.996094 49.996094 19.246094 49.84375 19.496094 49.898438 C 22.53125 50.582031 25.8125 51.082031 29.253906 51.394531 C 29.390625 51.40625 29.519531 51.480469 29.601562 51.597656 C 31.632812 54.519531 33.753906 57.199219 35.910156 59.5625 C 36.082031 59.75 36.074219 60.039062 35.894531 60.21875 C 31.894531 64.222656 28.105469 66.785156 24.933594 67.636719 C 24.203125 67.828125 23.519531 67.925781 22.890625 67.925781 Z M 19.738281 50.925781 C 17.789062 58.828125 18.265625 64.921875 20.984375 66.507812 C 21.917969 67.050781 23.164062 67.121094 24.6875 66.714844 C 27.613281 65.933594 31.136719 63.566406 34.898438 59.867188 C 32.867188 57.605469 30.863281 55.070312 28.945312 52.320312 C 25.714844 52.019531 22.621094 51.550781 19.738281 50.925781 Z M 37.535156 58.28125 C 37.402344 58.28125 37.273438 58.226562 37.183594 58.125 C 35.601562 56.375 34.03125 54.453125 32.523438 52.402344 C 32.414062 52.253906 32.402344 52.058594 32.488281 51.894531 C 32.574219 51.734375 32.734375 51.636719 32.929688 51.644531 C 36.078125 51.800781 38.996094 51.800781 42.144531 51.644531 C 42.335938 51.632812 42.5 51.734375 42.585938 51.894531 C 42.671875 52.058594 42.660156 52.253906 42.550781 52.402344 C 41.042969 54.449219 39.472656 56.375 37.890625 58.125 C 37.800781 58.226562 37.671875 58.28125 37.535156 58.28125 Z M 33.886719 52.640625 C 35.078125 54.214844 36.304688 55.710938 37.535156 57.09375 C 38.773438 55.710938 39.996094 54.214844 41.1875 52.640625 C 38.699219 52.738281 36.375 52.738281 33.886719 52.640625 Z M 37.535156 49.863281 C 35.28125 49.863281 33.007812 49.777344 30.78125 49.609375 C 30.632812 49.601562 30.5 49.523438 30.417969 49.402344 C 29.148438 47.511719 27.957031 45.601562 26.886719 43.726562 C 25.761719 41.757812 24.703125 39.734375 23.734375 37.703125 C 23.671875 37.574219 23.671875 37.425781 23.734375 37.296875 C 24.703125 35.265625 25.761719 33.242188 26.886719 31.273438 C 27.957031 29.402344 29.144531 27.492188 30.421875 25.597656 C 30.5 25.476562 30.632812 25.398438 30.78125 25.386719 C 35.238281 25.054688 39.835938 25.054688 44.292969 25.386719 C 44.441406 25.398438 44.570312 25.476562 44.652344 25.597656 C 45.929688 27.492188 47.117188 29.402344 48.1875 31.273438 C 49.3125 33.242188 50.371094 35.265625 51.339844 37.296875 C 51.402344 37.425781 51.402344 37.574219 51.339844 37.703125 C 50.371094 39.734375 49.3125 41.757812 48.1875 43.726562 C 47.117188 45.601562 45.925781 47.511719 44.65625 49.402344 C 44.574219 49.523438 44.441406 49.601562 44.292969 49.609375 C 42.066406 49.777344 39.792969 49.863281 37.535156 49.863281 Z M 31.082031 48.679688 C 35.34375 48.984375 39.730469 48.984375 43.992188 48.679688 C 45.203125 46.871094 46.335938 45.046875 47.359375 43.253906 C 48.433594 41.371094 49.449219 39.4375 50.382812 37.5 C 49.449219 35.5625 48.433594 33.625 47.359375 31.746094 C 46.335938 29.957031 45.203125 28.132812 43.992188 26.320312 C 39.726562 26.011719 35.34375 26.011719 31.082031 26.320312 C 29.867188 28.132812 28.734375 29.957031 27.710938 31.746094 C 26.636719 33.628906 25.621094 35.5625 24.691406 37.5 C 25.621094 39.4375 26.636719 41.375 27.710938 43.253906 C 28.738281 45.046875 29.871094 46.871094 31.082031 48.679688 Z M 47.902344 49.261719 C 47.738281 49.261719 47.585938 49.179688 47.5 49.042969 C 47.402344 48.886719 47.402344 48.6875 47.5 48.53125 C 48.382812 47.144531 49.148438 45.878906 49.839844 44.667969 C 50.570312 43.394531 51.296875 42.046875 52.003906 40.65625 C 52.089844 40.492188 52.265625 40.394531 52.445312 40.398438 C 52.628906 40.402344 52.796875 40.515625 52.867188 40.6875 C 53.835938 42.96875 54.671875 45.25 55.355469 47.464844 C 55.394531 47.59375 55.378906 47.730469 55.3125 47.84375 C 55.246094 47.960938 55.132812 48.042969 55.003906 48.070312 C 52.769531 48.570312 50.398438 48.96875 47.957031 49.261719 C 47.9375 49.261719 47.917969 49.261719 47.902344 49.261719 Z M 52.382812 42 C 51.816406 43.082031 51.242188 44.132812 50.667969 45.136719 C 50.113281 46.109375 49.511719 47.113281 48.839844 48.191406 C 50.714844 47.941406 52.542969 47.625 54.292969 47.25 C 53.742188 45.527344 53.105469 43.765625 52.382812 42 Z M 27.171875 49.261719 C 27.152344 49.261719 27.132812 49.261719 27.117188 49.261719 C 24.675781 48.96875 22.304688 48.566406 20.070312 48.070312 C 19.941406 48.039062 19.828125 47.957031 19.761719 47.84375 C 19.695312 47.730469 19.679688 47.589844 19.71875 47.464844 C 20.402344 45.246094 21.238281 42.96875 22.207031 40.6875 C 22.277344 40.515625 22.445312 40.402344 22.628906 40.394531 C 22.800781 40.378906 22.984375 40.492188 23.070312 40.65625 C 23.777344 42.042969 24.503906 43.394531 25.234375 44.667969 C 25.925781 45.878906 26.691406 47.144531 27.574219 48.53125 C 27.671875 48.6875 27.671875 48.886719 27.574219 49.039062 C 27.488281 49.179688 27.335938 49.261719 27.171875 49.261719 Z M 20.78125 47.25 C 22.53125 47.625 24.359375 47.941406 26.234375 48.191406 C 25.5625 47.113281 24.960938 46.109375 24.40625 45.136719 C 23.832031 44.132812 23.257812 43.078125 22.691406 42 C 21.96875 43.765625 21.332031 45.527344 20.78125 47.25 Z M 57.683594 47.390625 C 57.480469 47.390625 57.292969 47.257812 57.230469 47.054688 C 56.300781 44.03125 55.089844 40.882812 53.628906 37.699219 C 53.570312 37.574219 53.570312 37.425781 53.628906 37.300781 C 55.089844 34.117188 56.300781 30.96875 57.230469 27.945312 C 57.304688 27.699219 57.566406 27.5625 57.8125 27.628906 C 66.445312 30.003906 71.804688 33.785156 71.804688 37.5 C 71.804688 41.214844 66.441406 44.996094 57.808594 47.371094 C 57.769531 47.382812 57.726562 47.390625 57.683594 47.390625 Z M 54.585938 37.5 C 55.953125 40.5 57.101562 43.46875 58 46.332031 C 65.824219 44.105469 70.855469 40.660156 70.855469 37.5 C 70.855469 34.339844 65.824219 30.894531 58 28.667969 C 57.101562 31.53125 55.949219 34.5 54.585938 37.5 Z M 17.390625 47.390625 C 17.347656 47.390625 17.304688 47.382812 17.261719 47.371094 C 8.632812 44.996094 3.269531 41.214844 3.269531 37.5 C 3.269531 33.785156 8.628906 30.003906 17.261719 27.628906 C 17.507812 27.5625 17.769531 27.699219 17.84375 27.945312 C 18.773438 30.96875 19.984375 34.117188 21.445312 37.300781 C 21.503906 37.425781 21.503906 37.574219 21.445312 37.699219 C 19.984375 40.882812 18.773438 44.03125 17.84375 47.054688 C 17.78125 47.257812 17.59375 47.390625 17.390625 47.390625 Z M 17.074219 28.667969 C 9.25 30.894531 4.21875 34.339844 4.21875 37.5 C 4.21875 40.660156 9.25 44.105469 17.074219 46.332031 C 17.972656 43.46875 19.121094 40.5 20.488281 37.5 C 19.125 34.5 17.972656 31.53125 17.074219 28.667969 Z M 52.429688 34.605469 C 52.25 34.605469 52.085938 34.507812 52.003906 34.347656 C 51.285156 32.933594 50.578125 31.617188 49.84375 30.335938 C 49.152344 29.125 48.386719 27.859375 47.5 26.46875 C 47.402344 26.3125 47.402344 26.113281 47.5 25.960938 C 47.597656 25.804688 47.773438 25.71875 47.957031 25.742188 C 50.398438 26.03125 52.769531 26.433594 55.007812 26.929688 C 55.136719 26.960938 55.246094 27.042969 55.316406 27.15625 C 55.382812 27.269531 55.398438 27.410156 55.359375 27.535156 C 54.671875 29.757812 53.835938 32.039062 52.871094 34.316406 C 52.796875 34.484375 52.632812 34.597656 52.449219 34.605469 C 52.441406 34.605469 52.433594 34.605469 52.429688 34.605469 Z M 50.667969 29.863281 C 51.25 30.878906 51.816406 31.914062 52.382812 33.003906 C 53.101562 31.238281 53.742188 29.476562 54.289062 27.75 C 52.542969 27.375 50.714844 27.058594 48.839844 26.808594 C 49.511719 27.886719 50.113281 28.890625 50.667969 29.863281 Z M 22.644531 34.605469 C 22.636719 34.605469 22.632812 34.605469 22.628906 34.605469 C 22.441406 34.601562 22.277344 34.488281 22.207031 34.316406 C 21.242188 32.039062 20.402344 29.757812 19.71875 27.535156 C 19.675781 27.410156 19.691406 27.269531 19.761719 27.15625 C 19.828125 27.042969 19.9375 26.960938 20.066406 26.933594 C 22.304688 26.433594 24.675781 26.03125 27.117188 25.742188 C 27.300781 25.722656 27.476562 25.804688 27.574219 25.960938 C 27.675781 26.117188 27.671875 26.3125 27.574219 26.46875 C 26.691406 27.859375 25.921875 29.125 25.234375 30.335938 C 24.5 31.621094 23.789062 32.933594 23.070312 34.347656 C 22.988281 34.507812 22.824219 34.605469 22.644531 34.605469 Z M 20.78125 27.75 C 21.332031 29.476562 21.972656 31.238281 22.691406 33.003906 C 23.257812 31.914062 23.824219 30.878906 24.40625 29.863281 C 24.960938 28.890625 25.5625 27.886719 26.234375 26.808594 C 24.359375 27.058594 22.53125 27.375 20.78125 27.75 Z M 55.683594 25.113281 C 55.648438 25.113281 55.613281 25.109375 55.578125 25.101562 C 52.542969 24.417969 49.261719 23.917969 45.820312 23.605469 C 45.683594 23.59375 45.554688 23.519531 45.472656 23.402344 C 43.441406 20.480469 41.320312 17.800781 39.164062 15.4375 C 38.992188 15.25 39 14.960938 39.179688 14.78125 C 43.179688 10.78125 46.96875 8.214844 50.140625 7.367188 C 51.917969 6.890625 53.414062 6.996094 54.570312 7.671875 C 57.765625 9.535156 58.367188 16.082031 56.144531 24.757812 C 56.089844 24.96875 55.898438 25.113281 55.683594 25.113281 Z M 46.128906 22.679688 C 49.359375 22.980469 52.453125 23.449219 55.335938 24.074219 C 57.285156 16.171875 56.808594 10.078125 54.089844 8.492188 C 53.15625 7.949219 51.910156 7.878906 50.386719 8.285156 C 47.460938 9.066406 43.933594 11.433594 40.175781 15.136719 C 42.207031 17.394531 44.210938 19.929688 46.128906 22.679688 Z M 19.390625 25.113281 C 19.175781 25.113281 18.984375 24.96875 18.929688 24.757812 C 16.707031 16.082031 17.308594 9.535156 20.503906 7.671875 C 21.660156 6.996094 23.15625 6.890625 24.933594 7.367188 C 28.105469 8.214844 31.894531 10.78125 35.894531 14.78125 C 36.070312 14.960938 36.078125 15.25 35.910156 15.4375 C 33.753906 17.800781 31.628906 20.480469 29.601562 23.402344 C 29.519531 23.519531 29.390625 23.59375 29.25 23.605469 C 25.8125 23.917969 22.53125 24.417969 19.496094 25.101562 C 19.460938 25.109375 19.425781 25.113281 19.390625 25.113281 Z M 20.984375 8.492188 C 18.265625 10.078125 17.789062 16.171875 19.738281 24.074219 C 22.621094 23.449219 25.714844 22.980469 28.945312 22.679688 C 30.863281 19.929688 32.863281 17.394531 34.898438 15.132812 C 31.136719 11.433594 27.613281 9.066406 24.6875 8.28125 C 23.167969 7.878906 21.917969 7.949219 20.984375 8.492188 Z M 42.167969 23.351562 C 42.160156 23.351562 42.152344 23.351562 42.144531 23.351562 C 38.996094 23.199219 36.078125 23.199219 32.929688 23.351562 C 32.734375 23.359375 32.574219 23.261719 32.488281 23.101562 C 32.402344 22.941406 32.414062 22.746094 32.523438 22.597656 C 34.035156 20.546875 35.601562 18.621094 37.183594 16.875 C 37.367188 16.675781 37.710938 16.675781 37.890625 16.875 C 39.472656 18.621094 41.039062 20.546875 42.550781 22.597656 C 42.660156 22.742188 42.675781 22.941406 42.589844 23.101562 C 42.503906 23.257812 42.339844 23.351562 42.167969 23.351562 Z M 37.535156 22.285156 C 38.71875 22.285156 39.941406 22.3125 41.1875 22.359375 C 39.992188 20.785156 38.769531 19.289062 37.535156 17.90625 C 36.304688 19.289062 35.082031 20.785156 33.886719 22.359375 C 35.132812 22.3125 36.355469 22.285156 37.535156 22.285156 Z M 37.535156 22.285156 " fill-opacity="1" fill-rule="nonzero"/></g></svg>