<svg xmlns="http://www.w3.org/2000/svg" xmlns:xlink="http://www.w3.org/1999/xlink" width="100" zoomAndPan="magnify" viewBox="0 0 75 74.999997" height="100" preserveAspectRatio="xMidYMid meet" version="1.0"><defs><filter x="0%" y="0%" width="100%" height="100%" id="7c7e3dcdf4"><feColorMatrix values="0 0 0 0 1 0 0 0 0 1 0 0 0 0 1 0 0 0 1 0" color-interpolation-filters="sRGB"/></filter><mask id="c4f4d5521a"><g filter="url(#7c7e3dcdf4)"><rect x="-7.5" width="90" fill="#000000" y="-7.5" height="89.999996" fill-opacity="0.9882"/></g></mask><clipPath id="0ef1bc0f95"><path d="M 0.761719 0.761719 L 72.011719 0.761719 L 72.011719 72.011719 L 0.761719 72.011719 Z M 0.761719 0.761719 " clip-rule="nonzero"/></clipPath><clipPath id="edd13c5fc8"><rect x="0" width="73" y="0" height="73"/></clipPath><clipPath id="719248611f"><path d="M 0.882812 0.882812 L 74.382812 0.882812 L 74.382812 74.382812 L 0.882812 74.382812 Z M 0.882812 0.882812 " clip-rule="nonzero"/></clipPath><clipPath id="27f3485845"><path d="M 37.632812 69.703125 C 19.921875 69.703125 5.5625 55.347656 5.5625 37.632812 C 5.5625 19.921875 19.921875 5.5625 37.632812 5.5625 C 55.347656 5.5625 69.703125 19.921875 69.703125 37.632812 C 69.703125 55.347656 55.347656 69.703125 37.632812 69.703125 Z M 37.632812 0.882812 C 17.335938 0.882812 0.882812 17.335938 0.882812 37.632812 C 0.882812 57.929688 17.335938 74.386719 37.632812 74.386719 C 57.929688 74.386719 74.386719 57.929688 74.386719 37.632812 C 74.386719 17.335938 57.929688 0.882812 37.632812 0.882812 Z M 37.632812 0.882812 " clip-rule="nonzero"/></clipPath><linearGradient x1="517.677605" gradientTransform="matrix(0.120236, 0, 0, 0.120236, 0.881624, 0.881621)" y1="666.333969" x2="93.632753" gradientUnits="userSpaceOnUse" y2="-55.040078" id="bf6af6c59f"><stop stop-opacity="1" stop-color="rgb(70.710754%, 39.057922%, 77.375793%)" offset="0"/><stop stop-opacity="1" stop-color="rgb(70.506287%, 39.215088%, 77.36969%)" offset="0.00390625"/><stop stop-opacity="1" stop-color="rgb(70.301819%, 39.373779%, 77.365112%)" offset="0.0078125"/><stop stop-opacity="1" stop-color="rgb(70.097351%, 39.530945%, 77.359009%)" offset="0.0117188"/><stop stop-opacity="1" stop-color="rgb(69.892883%, 39.68811%, 77.354431%)" offset="0.015625"/><stop stop-opacity="1" stop-color="rgb(69.688416%, 39.845276%, 77.348328%)" offset="0.0195313"/><stop stop-opacity="1" stop-color="rgb(69.483948%, 40.003967%, 77.34375%)" offset="0.0234375"/><stop stop-opacity="1" stop-color="rgb(69.27948%, 40.161133%, 77.337646%)" offset="0.0273437"/><stop stop-opacity="1" stop-color="rgb(69.075012%, 40.319824%, 77.333069%)" offset="0.03125"/><stop stop-opacity="1" stop-color="rgb(68.870544%, 40.47699%, 77.326965%)" offset="0.0351562"/><stop stop-opacity="1" stop-color="rgb(68.667603%, 40.635681%, 77.322388%)" offset="0.0390625"/><stop stop-opacity="1" stop-color="rgb(68.463135%, 40.792847%, 77.316284%)" offset="0.0429687"/><stop stop-opacity="1" stop-color="rgb(68.258667%, 40.951538%, 77.310181%)" offset="0.046875"/><stop stop-opacity="1" stop-color="rgb(68.054199%, 41.108704%, 77.304077%)" offset="0.0507813"/><stop stop-opacity="1" stop-color="rgb(67.849731%, 41.267395%, 77.2995%)" offset="0.0546875"/><stop stop-opacity="1" stop-color="rgb(67.645264%, 41.424561%, 77.293396%)" offset="0.0585938"/><stop stop-opacity="1" stop-color="rgb(67.440796%, 41.583252%, 77.288818%)" offset="0.0625"/><stop stop-opacity="1" stop-color="rgb(67.236328%, 41.740417%, 77.282715%)" offset="0.0664062"/><stop stop-opacity="1" stop-color="rgb(67.033386%, 41.897583%, 77.278137%)" offset="0.0703125"/><stop stop-opacity="1" stop-color="rgb(66.828918%, 42.054749%, 77.272034%)" offset="0.0742187"/><stop stop-opacity="1" stop-color="rgb(66.624451%, 42.21344%, 77.267456%)" offset="0.078125"/><stop stop-opacity="1" stop-color="rgb(66.419983%, 42.370605%, 77.261353%)" offset="0.0820312"/><stop stop-opacity="1" stop-color="rgb(66.215515%, 42.529297%, 77.256775%)" offset="0.0859375"/><stop stop-opacity="1" stop-color="rgb(66.011047%, 42.686462%, 77.250671%)" offset="0.0898437"/><stop stop-opacity="1" stop-color="rgb(65.80658%, 42.845154%, 77.246094%)" offset="0.09375"/><stop stop-opacity="1" stop-color="rgb(65.602112%, 43.002319%, 77.23999%)" offset="0.0976563"/><stop stop-opacity="1" stop-color="rgb(65.397644%, 43.161011%, 77.235413%)" offset="0.101563"/><stop stop-opacity="1" stop-color="rgb(65.193176%, 43.318176%, 77.229309%)" offset="0.105469"/><stop stop-opacity="1" stop-color="rgb(64.990234%, 43.476868%, 77.224731%)" offset="0.109375"/><stop stop-opacity="1" stop-color="rgb(64.785767%, 43.634033%, 77.218628%)" offset="0.113281"/><stop stop-opacity="1" stop-color="rgb(64.581299%, 43.792725%, 77.21405%)" offset="0.117188"/><stop stop-opacity="1" stop-color="rgb(64.376831%, 43.94989%, 77.207947%)" offset="0.121094"/><stop stop-opacity="1" stop-color="rgb(64.172363%, 44.108582%, 77.203369%)" offset="0.125"/><stop stop-opacity="1" stop-color="rgb(63.967896%, 44.265747%, 77.197266%)" offset="0.128906"/><stop stop-opacity="1" stop-color="rgb(63.763428%, 44.422913%, 77.192688%)" offset="0.132812"/><stop stop-opacity="1" stop-color="rgb(63.55896%, 44.580078%, 77.186584%)" offset="0.136719"/><stop stop-opacity="1" stop-color="rgb(63.356018%, 44.73877%, 77.182007%)" offset="0.140625"/><stop stop-opacity="1" stop-color="rgb(63.15155%, 44.895935%, 77.175903%)" offset="0.144531"/><stop stop-opacity="1" stop-color="rgb(62.947083%, 45.054626%, 77.171326%)" offset="0.148437"/><stop stop-opacity="1" stop-color="rgb(62.742615%, 45.211792%, 77.165222%)" offset="0.152344"/><stop stop-opacity="1" stop-color="rgb(62.538147%, 45.370483%, 77.160645%)" offset="0.15625"/><stop stop-opacity="1" stop-color="rgb(62.333679%, 45.527649%, 77.154541%)" offset="0.160156"/><stop stop-opacity="1" stop-color="rgb(62.129211%, 45.68634%, 77.149963%)" offset="0.164062"/><stop stop-opacity="1" stop-color="rgb(61.924744%, 45.843506%, 77.14386%)" offset="0.167969"/><stop stop-opacity="1" stop-color="rgb(61.721802%, 46.002197%, 77.139282%)" offset="0.171875"/><stop stop-opacity="1" stop-color="rgb(61.517334%, 46.159363%, 77.133179%)" offset="0.175781"/><stop stop-opacity="1" stop-color="rgb(61.312866%, 46.318054%, 77.128601%)" offset="0.179687"/><stop stop-opacity="1" stop-color="rgb(61.108398%, 46.47522%, 77.122498%)" offset="0.183594"/><stop stop-opacity="1" stop-color="rgb(60.903931%, 46.632385%, 77.116394%)" offset="0.1875"/><stop stop-opacity="1" stop-color="rgb(60.699463%, 46.789551%, 77.110291%)" offset="0.191406"/><stop stop-opacity="1" stop-color="rgb(60.494995%, 46.948242%, 77.105713%)" offset="0.195312"/><stop stop-opacity="1" stop-color="rgb(60.290527%, 47.105408%, 77.099609%)" offset="0.199219"/><stop stop-opacity="1" stop-color="rgb(60.08606%, 47.264099%, 77.095032%)" offset="0.203125"/><stop stop-opacity="1" stop-color="rgb(59.881592%, 47.421265%, 77.088928%)" offset="0.207031"/><stop stop-opacity="1" stop-color="rgb(59.67865%, 47.579956%, 77.084351%)" offset="0.210937"/><stop stop-opacity="1" stop-color="rgb(59.474182%, 47.737122%, 77.078247%)" offset="0.214844"/><stop stop-opacity="1" stop-color="rgb(59.269714%, 47.895813%, 77.073669%)" offset="0.21875"/><stop stop-opacity="1" stop-color="rgb(59.065247%, 48.052979%, 77.067566%)" offset="0.222656"/><stop stop-opacity="1" stop-color="rgb(58.860779%, 48.21167%, 77.062988%)" offset="0.226563"/><stop stop-opacity="1" stop-color="rgb(58.656311%, 48.368835%, 77.056885%)" offset="0.230469"/><stop stop-opacity="1" stop-color="rgb(58.451843%, 48.527527%, 77.052307%)" offset="0.234375"/><stop stop-opacity="1" stop-color="rgb(58.247375%, 48.684692%, 77.046204%)" offset="0.238281"/><stop stop-opacity="1" stop-color="rgb(58.044434%, 48.843384%, 77.041626%)" offset="0.242188"/><stop stop-opacity="1" stop-color="rgb(57.839966%, 49.000549%, 77.035522%)" offset="0.246094"/><stop stop-opacity="1" stop-color="rgb(57.635498%, 49.157715%, 77.030945%)" offset="0.25"/><stop stop-opacity="1" stop-color="rgb(57.43103%, 49.31488%, 77.024841%)" offset="0.253906"/><stop stop-opacity="1" stop-color="rgb(57.226562%, 49.473572%, 77.020264%)" offset="0.257812"/><stop stop-opacity="1" stop-color="rgb(57.022095%, 49.630737%, 77.01416%)" offset="0.261719"/><stop stop-opacity="1" stop-color="rgb(56.817627%, 49.789429%, 77.009583%)" offset="0.265625"/><stop stop-opacity="1" stop-color="rgb(56.613159%, 49.946594%, 77.003479%)" offset="0.269531"/><stop stop-opacity="1" stop-color="rgb(56.408691%, 50.105286%, 76.998901%)" offset="0.273437"/><stop stop-opacity="1" stop-color="rgb(56.204224%, 50.262451%, 76.992798%)" offset="0.277344"/><stop stop-opacity="1" stop-color="rgb(56.001282%, 50.421143%, 76.98822%)" offset="0.28125"/><stop stop-opacity="1" stop-color="rgb(55.796814%, 50.578308%, 76.982117%)" offset="0.285156"/><stop stop-opacity="1" stop-color="rgb(55.592346%, 50.737%, 76.977539%)" offset="0.289062"/><stop stop-opacity="1" stop-color="rgb(55.387878%, 50.894165%, 76.971436%)" offset="0.292969"/><stop stop-opacity="1" stop-color="rgb(55.183411%, 51.052856%, 76.966858%)" offset="0.296875"/><stop stop-opacity="1" stop-color="rgb(54.978943%, 51.210022%, 76.960754%)" offset="0.300781"/><stop stop-opacity="1" stop-color="rgb(54.774475%, 51.367188%, 76.956177%)" offset="0.304687"/><stop stop-opacity="1" stop-color="rgb(54.570007%, 51.524353%, 76.950073%)" offset="0.308594"/><stop stop-opacity="1" stop-color="rgb(54.367065%, 51.683044%, 76.945496%)" offset="0.3125"/><stop stop-opacity="1" stop-color="rgb(54.162598%, 51.84021%, 76.939392%)" offset="0.316406"/><stop stop-opacity="1" stop-color="rgb(53.95813%, 51.998901%, 76.934814%)" offset="0.320313"/><stop stop-opacity="1" stop-color="rgb(53.753662%, 52.156067%, 76.928711%)" offset="0.324219"/><stop stop-opacity="1" stop-color="rgb(53.549194%, 52.314758%, 76.922607%)" offset="0.328125"/><stop stop-opacity="1" stop-color="rgb(53.344727%, 52.471924%, 76.916504%)" offset="0.332031"/><stop stop-opacity="1" stop-color="rgb(53.140259%, 52.630615%, 76.911926%)" offset="0.335938"/><stop stop-opacity="1" stop-color="rgb(52.935791%, 52.787781%, 76.905823%)" offset="0.339844"/><stop stop-opacity="1" stop-color="rgb(52.732849%, 52.946472%, 76.901245%)" offset="0.34375"/><stop stop-opacity="1" stop-color="rgb(52.528381%, 53.103638%, 76.895142%)" offset="0.347656"/><stop stop-opacity="1" stop-color="rgb(52.323914%, 53.262329%, 76.890564%)" offset="0.351562"/><stop stop-opacity="1" stop-color="rgb(52.119446%, 53.419495%, 76.88446%)" offset="0.355469"/><stop stop-opacity="1" stop-color="rgb(51.914978%, 53.57666%, 76.879883%)" offset="0.359375"/><stop stop-opacity="1" stop-color="rgb(51.71051%, 53.733826%, 76.873779%)" offset="0.363281"/><stop stop-opacity="1" stop-color="rgb(51.506042%, 53.892517%, 76.869202%)" offset="0.367188"/><stop stop-opacity="1" stop-color="rgb(51.301575%, 54.049683%, 76.863098%)" offset="0.371094"/><stop stop-opacity="1" stop-color="rgb(51.097107%, 54.208374%, 76.858521%)" offset="0.375"/><stop stop-opacity="1" stop-color="rgb(50.892639%, 54.36554%, 76.852417%)" offset="0.378906"/><stop stop-opacity="1" stop-color="rgb(50.689697%, 54.524231%, 76.847839%)" offset="0.382812"/><stop stop-opacity="1" stop-color="rgb(50.485229%, 54.681396%, 76.841736%)" offset="0.386719"/><stop stop-opacity="1" stop-color="rgb(50.280762%, 54.840088%, 76.837158%)" offset="0.390625"/><stop stop-opacity="1" stop-color="rgb(50.076294%, 54.997253%, 76.831055%)" offset="0.394531"/><stop stop-opacity="1" stop-color="rgb(49.871826%, 55.155945%, 76.826477%)" offset="0.398437"/><stop stop-opacity="1" stop-color="rgb(49.667358%, 55.31311%, 76.820374%)" offset="0.402344"/><stop stop-opacity="1" stop-color="rgb(49.462891%, 55.471802%, 76.815796%)" offset="0.40625"/><stop stop-opacity="1" stop-color="rgb(49.258423%, 55.628967%, 76.809692%)" offset="0.410156"/><stop stop-opacity="1" stop-color="rgb(49.055481%, 55.787659%, 76.805115%)" offset="0.414063"/><stop stop-opacity="1" stop-color="rgb(48.851013%, 55.944824%, 76.799011%)" offset="0.417969"/><stop stop-opacity="1" stop-color="rgb(48.646545%, 56.10199%, 76.794434%)" offset="0.421875"/><stop stop-opacity="1" stop-color="rgb(48.442078%, 56.259155%, 76.78833%)" offset="0.425781"/><stop stop-opacity="1" stop-color="rgb(48.23761%, 56.417847%, 76.783752%)" offset="0.429688"/><stop stop-opacity="1" stop-color="rgb(48.033142%, 56.575012%, 76.777649%)" offset="0.433594"/><stop stop-opacity="1" stop-color="rgb(47.828674%, 56.733704%, 76.773071%)" offset="0.4375"/><stop stop-opacity="1" stop-color="rgb(47.624207%, 56.890869%, 76.766968%)" offset="0.441406"/><stop stop-opacity="1" stop-color="rgb(47.419739%, 57.049561%, 76.76239%)" offset="0.445312"/><stop stop-opacity="1" stop-color="rgb(47.215271%, 57.206726%, 76.756287%)" offset="0.449219"/><stop stop-opacity="1" stop-color="rgb(47.012329%, 57.365417%, 76.751709%)" offset="0.453125"/><stop stop-opacity="1" stop-color="rgb(46.807861%, 57.522583%, 76.745605%)" offset="0.457031"/><stop stop-opacity="1" stop-color="rgb(46.603394%, 57.681274%, 76.739502%)" offset="0.460938"/><stop stop-opacity="1" stop-color="rgb(46.398926%, 57.83844%, 76.733398%)" offset="0.464844"/><stop stop-opacity="1" stop-color="rgb(46.194458%, 57.997131%, 76.728821%)" offset="0.46875"/><stop stop-opacity="1" stop-color="rgb(45.98999%, 58.154297%, 76.722717%)" offset="0.472656"/><stop stop-opacity="1" stop-color="rgb(45.785522%, 58.311462%, 76.71814%)" offset="0.476562"/><stop stop-opacity="1" stop-color="rgb(45.581055%, 58.468628%, 76.712036%)" offset="0.480469"/><stop stop-opacity="1" stop-color="rgb(45.378113%, 58.627319%, 76.707458%)" offset="0.484375"/><stop stop-opacity="1" stop-color="rgb(45.173645%, 58.784485%, 76.701355%)" offset="0.488281"/><stop stop-opacity="1" stop-color="rgb(44.969177%, 58.943176%, 76.696777%)" offset="0.492187"/><stop stop-opacity="1" stop-color="rgb(44.764709%, 59.100342%, 76.690674%)" offset="0.496094"/><stop stop-opacity="1" stop-color="rgb(44.560242%, 59.259033%, 76.686096%)" offset="0.5"/><stop stop-opacity="1" stop-color="rgb(44.355774%, 59.416199%, 76.679993%)" offset="0.503906"/><stop stop-opacity="1" stop-color="rgb(44.151306%, 59.57489%, 76.675415%)" offset="0.507813"/><stop stop-opacity="1" stop-color="rgb(43.946838%, 59.732056%, 76.669312%)" offset="0.511719"/><stop stop-opacity="1" stop-color="rgb(43.743896%, 59.890747%, 76.664734%)" offset="0.515625"/><stop stop-opacity="1" stop-color="rgb(43.539429%, 60.047913%, 76.65863%)" offset="0.519531"/><stop stop-opacity="1" stop-color="rgb(43.334961%, 60.206604%, 76.654053%)" offset="0.523438"/><stop stop-opacity="1" stop-color="rgb(43.130493%, 60.36377%, 76.647949%)" offset="0.527344"/><stop stop-opacity="1" stop-color="rgb(42.926025%, 60.522461%, 76.643372%)" offset="0.53125"/><stop stop-opacity="1" stop-color="rgb(42.721558%, 60.679626%, 76.637268%)" offset="0.535156"/><stop stop-opacity="1" stop-color="rgb(42.51709%, 60.836792%, 76.63269%)" offset="0.539062"/><stop stop-opacity="1" stop-color="rgb(42.312622%, 60.993958%, 76.626587%)" offset="0.542969"/><stop stop-opacity="1" stop-color="rgb(42.108154%, 61.152649%, 76.622009%)" offset="0.546875"/><stop stop-opacity="1" stop-color="rgb(41.903687%, 61.309814%, 76.615906%)" offset="0.550781"/><stop stop-opacity="1" stop-color="rgb(41.700745%, 61.468506%, 76.611328%)" offset="0.554688"/><stop stop-opacity="1" stop-color="rgb(41.496277%, 61.625671%, 76.605225%)" offset="0.558594"/><stop stop-opacity="1" stop-color="rgb(41.291809%, 61.784363%, 76.600647%)" offset="0.5625"/><stop stop-opacity="1" stop-color="rgb(41.087341%, 61.941528%, 76.594543%)" offset="0.566406"/><stop stop-opacity="1" stop-color="rgb(40.882874%, 62.10022%, 76.589966%)" offset="0.570312"/><stop stop-opacity="1" stop-color="rgb(40.678406%, 62.257385%, 76.583862%)" offset="0.574219"/><stop stop-opacity="1" stop-color="rgb(40.473938%, 62.416077%, 76.579285%)" offset="0.578125"/><stop stop-opacity="1" stop-color="rgb(40.26947%, 62.573242%, 76.573181%)" offset="0.582031"/><stop stop-opacity="1" stop-color="rgb(40.066528%, 62.731934%, 76.568604%)" offset="0.585937"/><stop stop-opacity="1" stop-color="rgb(39.862061%, 62.889099%, 76.5625%)" offset="0.589844"/><stop stop-opacity="1" stop-color="rgb(39.657593%, 63.046265%, 76.557922%)" offset="0.59375"/><stop stop-opacity="1" stop-color="rgb(39.453125%, 63.20343%, 76.551819%)" offset="0.597656"/><stop stop-opacity="1" stop-color="rgb(39.248657%, 63.362122%, 76.545715%)" offset="0.601562"/><stop stop-opacity="1" stop-color="rgb(39.044189%, 63.519287%, 76.539612%)" offset="0.605469"/><stop stop-opacity="1" stop-color="rgb(38.839722%, 63.677979%, 76.535034%)" offset="0.609375"/><stop stop-opacity="1" stop-color="rgb(38.635254%, 63.835144%, 76.528931%)" offset="0.613281"/><stop stop-opacity="1" stop-color="rgb(38.430786%, 63.993835%, 76.524353%)" offset="0.617188"/><stop stop-opacity="1" stop-color="rgb(38.226318%, 64.151001%, 76.51825%)" offset="0.621094"/><stop stop-opacity="1" stop-color="rgb(38.023376%, 64.309692%, 76.513672%)" offset="0.625"/><stop stop-opacity="1" stop-color="rgb(37.818909%, 64.466858%, 76.507568%)" offset="0.628906"/><stop stop-opacity="1" stop-color="rgb(37.614441%, 64.625549%, 76.502991%)" offset="0.632812"/><stop stop-opacity="1" stop-color="rgb(37.409973%, 64.782715%, 76.496887%)" offset="0.636719"/><stop stop-opacity="1" stop-color="rgb(37.205505%, 64.941406%, 76.49231%)" offset="0.640625"/><stop stop-opacity="1" stop-color="rgb(37.001038%, 65.098572%, 76.486206%)" offset="0.644531"/><stop stop-opacity="1" stop-color="rgb(36.79657%, 65.255737%, 76.481628%)" offset="0.648438"/><stop stop-opacity="1" stop-color="rgb(36.592102%, 65.412903%, 76.475525%)" offset="0.652344"/><stop stop-opacity="1" stop-color="rgb(36.38916%, 65.571594%, 76.470947%)" offset="0.65625"/><stop stop-opacity="1" stop-color="rgb(36.184692%, 65.72876%, 76.464844%)" offset="0.660156"/><stop stop-opacity="1" stop-color="rgb(35.980225%, 65.887451%, 76.460266%)" offset="0.664063"/><stop stop-opacity="1" stop-color="rgb(35.775757%, 66.044617%, 76.454163%)" offset="0.667969"/><stop stop-opacity="1" stop-color="rgb(35.571289%, 66.203308%, 76.449585%)" offset="0.671875"/><stop stop-opacity="1" stop-color="rgb(35.366821%, 66.360474%, 76.443481%)" offset="0.675781"/><stop stop-opacity="1" stop-color="rgb(35.162354%, 66.519165%, 76.438904%)" offset="0.679688"/><stop stop-opacity="1" stop-color="rgb(34.957886%, 66.676331%, 76.4328%)" offset="0.683594"/><stop stop-opacity="1" stop-color="rgb(34.754944%, 66.835022%, 76.428223%)" offset="0.6875"/><stop stop-opacity="1" stop-color="rgb(34.550476%, 66.992188%, 76.422119%)" offset="0.691406"/><stop stop-opacity="1" stop-color="rgb(34.346008%, 67.150879%, 76.417542%)" offset="0.695312"/><stop stop-opacity="1" stop-color="rgb(34.141541%, 67.308044%, 76.411438%)" offset="0.699219"/><stop stop-opacity="1" stop-color="rgb(33.937073%, 67.466736%, 76.40686%)" offset="0.703125"/><stop stop-opacity="1" stop-color="rgb(33.732605%, 67.623901%, 76.400757%)" offset="0.707031"/><stop stop-opacity="1" stop-color="rgb(33.528137%, 67.781067%, 76.396179%)" offset="0.710938"/><stop stop-opacity="1" stop-color="rgb(33.323669%, 67.938232%, 76.390076%)" offset="0.714844"/><stop stop-opacity="1" stop-color="rgb(33.119202%, 68.096924%, 76.385498%)" offset="0.71875"/><stop stop-opacity="1" stop-color="rgb(32.914734%, 68.254089%, 76.379395%)" offset="0.722656"/><stop stop-opacity="1" stop-color="rgb(32.711792%, 68.412781%, 76.374817%)" offset="0.726562"/><stop stop-opacity="1" stop-color="rgb(32.507324%, 68.569946%, 76.368713%)" offset="0.730469"/><stop stop-opacity="1" stop-color="rgb(32.302856%, 68.728638%, 76.364136%)" offset="0.734375"/><stop stop-opacity="1" stop-color="rgb(32.098389%, 68.885803%, 76.358032%)" offset="0.738281"/><stop stop-opacity="1" stop-color="rgb(31.893921%, 69.044495%, 76.351929%)" offset="0.742188"/><stop stop-opacity="1" stop-color="rgb(31.689453%, 69.20166%, 76.345825%)" offset="0.746094"/><stop stop-opacity="1" stop-color="rgb(31.484985%, 69.360352%, 76.341248%)" offset="0.75"/><stop stop-opacity="1" stop-color="rgb(31.280518%, 69.517517%, 76.335144%)" offset="0.753906"/><stop stop-opacity="1" stop-color="rgb(31.077576%, 69.676208%, 76.330566%)" offset="0.757812"/><stop stop-opacity="1" stop-color="rgb(30.873108%, 69.833374%, 76.324463%)" offset="0.761719"/><stop stop-opacity="1" stop-color="rgb(30.66864%, 69.99054%, 76.319885%)" offset="0.765625"/><stop stop-opacity="1" stop-color="rgb(30.464172%, 70.147705%, 76.313782%)" offset="0.769531"/><stop stop-opacity="1" stop-color="rgb(30.259705%, 70.306396%, 76.309204%)" offset="0.773437"/><stop stop-opacity="1" stop-color="rgb(30.055237%, 70.463562%, 76.303101%)" offset="0.777344"/><stop stop-opacity="1" stop-color="rgb(29.850769%, 70.622253%, 76.298523%)" offset="0.78125"/><stop stop-opacity="1" stop-color="rgb(29.646301%, 70.779419%, 76.292419%)" offset="0.785156"/><stop stop-opacity="1" stop-color="rgb(29.441833%, 70.93811%, 76.287842%)" offset="0.789062"/><stop stop-opacity="1" stop-color="rgb(29.237366%, 71.095276%, 76.281738%)" offset="0.792969"/><stop stop-opacity="1" stop-color="rgb(29.034424%, 71.253967%, 76.277161%)" offset="0.796875"/><stop stop-opacity="1" stop-color="rgb(28.829956%, 71.411133%, 76.271057%)" offset="0.800781"/><stop stop-opacity="1" stop-color="rgb(28.625488%, 71.569824%, 76.266479%)" offset="0.804688"/><stop stop-opacity="1" stop-color="rgb(28.421021%, 71.72699%, 76.260376%)" offset="0.808594"/><stop stop-opacity="1" stop-color="rgb(28.216553%, 71.885681%, 76.255798%)" offset="0.8125"/><stop stop-opacity="1" stop-color="rgb(28.012085%, 72.042847%, 76.249695%)" offset="0.816406"/><stop stop-opacity="1" stop-color="rgb(27.807617%, 72.201538%, 76.245117%)" offset="0.820312"/><stop stop-opacity="1" stop-color="rgb(27.603149%, 72.358704%, 76.239014%)" offset="0.824219"/><stop stop-opacity="1" stop-color="rgb(27.400208%, 72.515869%, 76.234436%)" offset="0.828125"/><stop stop-opacity="1" stop-color="rgb(27.19574%, 72.673035%, 76.228333%)" offset="0.832031"/><stop stop-opacity="1" stop-color="rgb(26.991272%, 72.831726%, 76.223755%)" offset="0.835938"/><stop stop-opacity="1" stop-color="rgb(26.786804%, 72.988892%, 76.217651%)" offset="0.839844"/><stop stop-opacity="1" stop-color="rgb(26.582336%, 73.147583%, 76.213074%)" offset="0.84375"/><stop stop-opacity="1" stop-color="rgb(26.377869%, 73.304749%, 76.20697%)" offset="0.847656"/><stop stop-opacity="1" stop-color="rgb(26.173401%, 73.46344%, 76.202393%)" offset="0.851563"/><stop stop-opacity="1" stop-color="rgb(25.968933%, 73.620605%, 76.196289%)" offset="0.855469"/><stop stop-opacity="1" stop-color="rgb(25.765991%, 73.779297%, 76.191711%)" offset="0.859375"/><stop stop-opacity="1" stop-color="rgb(25.561523%, 73.936462%, 76.185608%)" offset="0.863281"/><stop stop-opacity="1" stop-color="rgb(25.357056%, 74.095154%, 76.18103%)" offset="0.867188"/><stop stop-opacity="1" stop-color="rgb(25.152588%, 74.252319%, 76.174927%)" offset="0.871094"/><stop stop-opacity="1" stop-color="rgb(24.94812%, 74.411011%, 76.170349%)" offset="0.875"/><stop stop-opacity="1" stop-color="rgb(24.743652%, 74.568176%, 76.164246%)" offset="0.878906"/><stop stop-opacity="1" stop-color="rgb(24.539185%, 74.725342%, 76.158142%)" offset="0.882812"/><stop stop-opacity="1" stop-color="rgb(24.334717%, 74.882507%, 76.152039%)" offset="0.886719"/><stop stop-opacity="1" stop-color="rgb(24.130249%, 75.041199%, 76.147461%)" offset="0.890625"/><stop stop-opacity="1" stop-color="rgb(23.925781%, 75.198364%, 76.141357%)" offset="0.894531"/><stop stop-opacity="1" stop-color="rgb(23.722839%, 75.357056%, 76.13678%)" offset="0.898438"/><stop stop-opacity="1" stop-color="rgb(23.518372%, 75.514221%, 76.130676%)" offset="0.902344"/><stop stop-opacity="1" stop-color="rgb(23.313904%, 75.672913%, 76.126099%)" offset="0.90625"/><stop stop-opacity="1" stop-color="rgb(23.109436%, 75.830078%, 76.119995%)" offset="0.910156"/><stop stop-opacity="1" stop-color="rgb(22.904968%, 75.98877%, 76.115417%)" offset="0.914062"/><stop stop-opacity="1" stop-color="rgb(22.7005%, 76.145935%, 76.109314%)" offset="0.917969"/><stop stop-opacity="1" stop-color="rgb(22.496033%, 76.304626%, 76.104736%)" offset="0.921875"/><stop stop-opacity="1" stop-color="rgb(22.291565%, 76.461792%, 76.098633%)" offset="0.925781"/><stop stop-opacity="1" stop-color="rgb(22.088623%, 76.620483%, 76.094055%)" offset="0.929688"/><stop stop-opacity="1" stop-color="rgb(21.884155%, 76.777649%, 76.087952%)" offset="0.933594"/><stop stop-opacity="1" stop-color="rgb(21.679688%, 76.934814%, 76.083374%)" offset="0.9375"/><stop stop-opacity="1" stop-color="rgb(21.47522%, 77.09198%, 76.077271%)" offset="0.941406"/><stop stop-opacity="1" stop-color="rgb(21.270752%, 77.250671%, 76.072693%)" offset="0.945312"/><stop stop-opacity="1" stop-color="rgb(21.066284%, 77.407837%, 76.066589%)" offset="0.949219"/><stop stop-opacity="1" stop-color="rgb(20.861816%, 77.566528%, 76.062012%)" offset="0.953125"/><stop stop-opacity="1" stop-color="rgb(20.657349%, 77.723694%, 76.055908%)" offset="0.957031"/><stop stop-opacity="1" stop-color="rgb(20.452881%, 77.882385%, 76.051331%)" offset="0.960937"/><stop stop-opacity="1" stop-color="rgb(20.248413%, 78.039551%, 76.045227%)" offset="0.964844"/><stop stop-opacity="1" stop-color="rgb(20.045471%, 78.198242%, 76.040649%)" offset="0.96875"/><stop stop-opacity="1" stop-color="rgb(19.841003%, 78.355408%, 76.034546%)" offset="0.972656"/><stop stop-opacity="1" stop-color="rgb(19.636536%, 78.514099%, 76.029968%)" offset="0.976562"/><stop stop-opacity="1" stop-color="rgb(19.432068%, 78.671265%, 76.023865%)" offset="0.980469"/><stop stop-opacity="1" stop-color="rgb(19.2276%, 78.829956%, 76.019287%)" offset="0.984375"/><stop stop-opacity="1" stop-color="rgb(19.023132%, 78.987122%, 76.013184%)" offset="0.988281"/><stop stop-opacity="1" stop-color="rgb(18.818665%, 79.145813%, 76.008606%)" offset="0.992188"/><stop stop-opacity="1" stop-color="rgb(18.614197%, 79.302979%, 76.002502%)" offset="0.996094"/><stop stop-opacity="1" stop-color="rgb(18.411255%, 79.460144%, 75.997925%)" offset="1"/></linearGradient></defs><g mask="url(#c4f4d5521a)"><g transform="matrix(1, 0, 0, 1, 1, 1)"><g clip-path="url(#edd13c5fc8)"><path fill="#7c2ae8" d="M 32 31.820312 L 29.296875 31.820312 C 28.738281 31.820312 28.285156 31.367188 28.285156 30.808594 L 28.285156 25.882812 C 28.285156 25.324219 28.738281 24.871094 29.296875 24.871094 L 32 24.871094 C 32.558594 24.871094 33.011719 25.324219 33.011719 25.882812 L 33.011719 30.808594 C 33.011719 31.367188 32.558594 31.820312 32 31.820312 Z M 29.296875 25.820312 C 29.261719 25.820312 29.234375 25.851562 29.234375 25.882812 L 29.234375 30.808594 C 29.234375 30.84375 29.261719 30.871094 29.296875 30.871094 L 32 30.871094 C 32.035156 30.871094 32.0625 30.84375 32.0625 30.808594 L 32.0625 25.882812 C 32.0625 25.851562 32.035156 25.820312 32 25.820312 Z M 29.296875 25.820312 " fill-opacity="1" fill-rule="nonzero"/><path fill="#7c2ae8" d="M 32 39.269531 L 29.296875 39.269531 C 28.738281 39.269531 28.285156 38.816406 28.285156 38.257812 L 28.285156 33.332031 C 28.285156 32.773438 28.738281 32.320312 29.296875 32.320312 L 32 32.320312 C 32.558594 32.320312 33.011719 32.773438 33.011719 33.332031 L 33.011719 38.257812 C 33.011719 38.816406 32.558594 39.269531 32 39.269531 Z M 29.296875 33.269531 C 29.261719 33.269531 29.234375 33.296875 29.234375 33.328125 L 29.234375 38.257812 C 29.234375 38.289062 29.261719 38.316406 29.296875 38.316406 L 32 38.316406 C 32.035156 38.316406 32.0625 38.289062 32.0625 38.257812 L 32.0625 33.328125 C 32.0625 33.296875 32.035156 33.269531 32 33.269531 Z M 29.296875 33.269531 " fill-opacity="1" fill-rule="nonzero"/><path fill="#7c2ae8" d="M 26.851562 26.332031 L 23.671875 26.332031 C 23.410156 26.332031 23.195312 26.117188 23.195312 25.855469 C 23.195312 25.59375 23.40625 25.378906 23.671875 25.378906 L 26.851562 25.378906 C 27.113281 25.378906 27.328125 25.589844 27.328125 25.855469 C 27.324219 26.117188 27.113281 26.332031 26.851562 26.332031 Z M 21.957031 26.332031 L 17.964844 26.332031 C 17.703125 26.332031 17.488281 26.117188 17.488281 25.855469 C 17.488281 25.59375 17.703125 25.378906 17.964844 25.378906 L 21.957031 25.378906 C 22.21875 25.378906 22.433594 25.589844 22.433594 25.855469 C 22.429688 26.117188 22.21875 26.332031 21.957031 26.332031 Z M 21.957031 26.332031 " fill-opacity="1" fill-rule="nonzero"/><path fill="#7c2ae8" d="M 26.851562 27.992188 L 17.964844 27.992188 C 17.703125 27.992188 17.488281 27.777344 17.488281 27.515625 C 17.488281 27.253906 17.703125 27.039062 17.964844 27.039062 L 26.851562 27.039062 C 27.113281 27.039062 27.328125 27.253906 27.328125 27.515625 C 27.328125 27.777344 27.113281 27.992188 26.851562 27.992188 Z M 26.851562 27.992188 " fill-opacity="1" fill-rule="nonzero"/><path fill="#7c2ae8" d="M 26.851562 29.652344 L 22.921875 29.652344 C 22.660156 29.652344 22.445312 29.4375 22.445312 29.175781 C 22.445312 28.914062 22.65625 28.699219 22.921875 28.699219 L 26.851562 28.699219 C 27.113281 28.699219 27.328125 28.914062 27.328125 29.175781 C 27.324219 29.4375 27.113281 29.652344 26.851562 29.652344 Z M 21.046875 29.652344 L 17.964844 29.652344 C 17.703125 29.652344 17.488281 29.4375 17.488281 29.175781 C 17.488281 28.914062 17.703125 28.699219 17.964844 28.699219 L 21.046875 28.699219 C 21.308594 28.699219 21.523438 28.914062 21.523438 29.175781 C 21.519531 29.4375 21.308594 29.652344 21.046875 29.652344 Z M 21.046875 29.652344 " fill-opacity="1" fill-rule="nonzero"/><path fill="#7c2ae8" d="M 26.851562 31.3125 L 24.886719 31.3125 C 24.625 31.3125 24.410156 31.101562 24.410156 30.835938 C 24.410156 30.574219 24.621094 30.359375 24.886719 30.359375 L 26.851562 30.359375 C 27.113281 30.359375 27.328125 30.574219 27.328125 30.835938 C 27.324219 31.101562 27.113281 31.3125 26.851562 31.3125 Z M 23.296875 31.3125 L 17.964844 31.3125 C 17.703125 31.3125 17.488281 31.101562 17.488281 30.835938 C 17.488281 30.574219 17.703125 30.359375 17.964844 30.359375 L 23.296875 30.359375 C 23.558594 30.359375 23.769531 30.574219 23.769531 30.835938 C 23.769531 31.101562 23.558594 31.3125 23.296875 31.3125 Z M 23.296875 31.3125 " fill-opacity="1" fill-rule="nonzero"/><path fill="#7c2ae8" d="M 26.851562 33.777344 L 21.957031 33.777344 C 21.695312 33.777344 21.480469 33.5625 21.480469 33.300781 C 21.480469 33.039062 21.691406 32.824219 21.957031 32.824219 L 26.851562 32.824219 C 27.113281 32.824219 27.328125 33.039062 27.328125 33.300781 C 27.328125 33.5625 27.113281 33.777344 26.851562 33.777344 Z M 20.511719 33.777344 L 17.964844 33.777344 C 17.703125 33.777344 17.488281 33.5625 17.488281 33.300781 C 17.488281 33.039062 17.703125 32.824219 17.964844 32.824219 L 20.511719 32.824219 C 20.773438 32.824219 20.988281 33.039062 20.988281 33.300781 C 20.988281 33.5625 20.773438 33.777344 20.511719 33.777344 Z M 20.511719 33.777344 " fill-opacity="1" fill-rule="nonzero"/><path fill="#7c2ae8" d="M 26.851562 35.4375 L 23.957031 35.4375 C 23.695312 35.4375 23.480469 35.226562 23.480469 34.960938 C 23.480469 34.699219 23.691406 34.484375 23.957031 34.484375 L 26.851562 34.484375 C 27.113281 34.484375 27.328125 34.699219 27.328125 34.960938 C 27.324219 35.226562 27.113281 35.4375 26.851562 35.4375 Z M 22.332031 35.4375 L 17.964844 35.4375 C 17.703125 35.4375 17.488281 35.226562 17.488281 34.960938 C 17.488281 34.699219 17.703125 34.484375 17.964844 34.484375 L 22.332031 34.484375 C 22.59375 34.484375 22.808594 34.699219 22.808594 34.960938 C 22.804688 35.226562 22.59375 35.4375 22.332031 35.4375 Z M 22.332031 35.4375 " fill-opacity="1" fill-rule="nonzero"/><path fill="#7c2ae8" d="M 26.851562 37.097656 L 17.964844 37.097656 C 17.703125 37.097656 17.488281 36.886719 17.488281 36.625 C 17.488281 36.363281 17.703125 36.148438 17.964844 36.148438 L 26.851562 36.148438 C 27.113281 36.148438 27.328125 36.359375 27.328125 36.625 C 27.328125 36.886719 27.113281 37.097656 26.851562 37.097656 Z M 26.851562 37.097656 " fill-opacity="1" fill-rule="nonzero"/><path fill="#7c2ae8" d="M 26.851562 38.761719 L 22.8125 38.761719 C 22.550781 38.761719 22.335938 38.546875 22.335938 38.285156 C 22.335938 38.019531 22.550781 37.808594 22.8125 37.808594 L 26.851562 37.808594 C 27.113281 37.808594 27.328125 38.019531 27.328125 38.285156 C 27.328125 38.546875 27.113281 38.761719 26.851562 38.761719 Z M 20.964844 38.761719 L 17.964844 38.761719 C 17.703125 38.761719 17.488281 38.546875 17.488281 38.285156 C 17.488281 38.019531 17.703125 37.808594 17.964844 37.808594 L 20.96875 37.808594 C 21.230469 37.808594 21.441406 38.019531 21.441406 38.285156 C 21.441406 38.546875 21.230469 38.761719 20.964844 38.761719 Z M 20.964844 38.761719 " fill-opacity="1" fill-rule="nonzero"/><path fill="#7c2ae8" d="M 33.222656 41.589844 L 16.898438 41.589844 C 16.082031 41.589844 15.417969 40.921875 15.417969 40.109375 L 15.417969 20.414062 C 15.417969 19.597656 16.082031 18.933594 16.898438 18.933594 L 33.222656 18.933594 C 34.039062 18.933594 34.703125 19.597656 34.703125 20.414062 L 34.703125 40.109375 C 34.703125 40.921875 34.042969 41.589844 33.222656 41.589844 Z M 16.898438 19.882812 C 16.605469 19.882812 16.367188 20.121094 16.367188 20.414062 L 16.367188 40.109375 C 16.367188 40.398438 16.605469 40.636719 16.898438 40.636719 L 33.222656 40.636719 C 33.515625 40.636719 33.753906 40.402344 33.753906 40.109375 L 33.753906 20.414062 C 33.753906 20.121094 33.519531 19.882812 33.222656 19.882812 Z M 16.898438 19.882812 " fill-opacity="1" fill-rule="nonzero"/><path fill="#7c2ae8" d="M 34.230469 23.503906 L 15.894531 23.503906 C 15.632812 23.503906 15.417969 23.289062 15.417969 23.027344 C 15.417969 22.765625 15.628906 22.550781 15.894531 22.550781 L 34.230469 22.550781 C 34.492188 22.550781 34.707031 22.761719 34.707031 23.027344 C 34.703125 23.289062 34.492188 23.503906 34.230469 23.503906 Z M 34.230469 23.503906 " fill-opacity="1" fill-rule="nonzero"/><path fill="#7c2ae8" d="M 17.976562 21.675781 C 18.226562 21.675781 18.433594 21.472656 18.433594 21.21875 C 18.433594 20.96875 18.230469 20.761719 17.976562 20.761719 C 17.726562 20.761719 17.523438 20.964844 17.523438 21.21875 C 17.523438 21.46875 17.726562 21.675781 17.976562 21.675781 Z M 17.976562 21.675781 " fill-opacity="1" fill-rule="evenodd"/><path fill="#7c2ae8" d="M 20.964844 21.675781 C 21.214844 21.675781 21.421875 21.472656 21.421875 21.21875 C 21.421875 20.96875 21.21875 20.761719 20.964844 20.761719 C 20.714844 20.761719 20.507812 20.964844 20.507812 21.21875 C 20.511719 21.46875 20.714844 21.675781 20.964844 21.675781 Z M 20.964844 21.675781 " fill-opacity="1" fill-rule="evenodd"/><path fill="#7c2ae8" d="M 23.957031 21.675781 C 24.207031 21.675781 24.414062 21.472656 24.414062 21.21875 C 24.414062 20.96875 24.207031 20.761719 23.957031 20.761719 C 23.707031 20.761719 23.5 20.964844 23.5 21.21875 C 23.5 21.46875 23.703125 21.675781 23.957031 21.675781 Z M 23.957031 21.675781 " fill-opacity="1" fill-rule="evenodd"/><path fill="#7c2ae8" d="M 32.960938 21.691406 L 26.128906 21.691406 C 25.867188 21.691406 25.652344 21.480469 25.652344 21.21875 C 25.652344 20.957031 25.863281 20.742188 26.128906 20.742188 L 32.960938 20.742188 C 33.222656 20.742188 33.4375 20.953125 33.4375 21.21875 C 33.433594 21.480469 33.222656 21.691406 32.960938 21.691406 Z M 32.960938 21.691406 " fill-opacity="1" fill-rule="nonzero"/><path fill="#7c2ae8" d="M 55.246094 53.984375 L 42.222656 53.984375 C 41.027344 53.984375 40.058594 53.011719 40.058594 51.820312 L 40.058594 31.257812 C 40.058594 30.066406 41.027344 29.097656 42.222656 29.097656 L 55.246094 29.097656 C 56.4375 29.097656 57.410156 30.066406 57.410156 31.257812 L 57.410156 51.820312 C 57.410156 53.011719 56.4375 53.984375 55.246094 53.984375 Z M 42.222656 30.046875 C 41.554688 30.046875 41.007812 30.589844 41.007812 31.257812 L 41.007812 51.816406 C 41.007812 52.488281 41.554688 53.03125 42.222656 53.03125 L 55.246094 53.03125 C 55.914062 53.03125 56.457031 52.488281 56.457031 51.816406 L 56.457031 31.257812 C 56.457031 30.589844 55.914062 30.046875 55.246094 30.046875 Z M 42.222656 30.046875 " fill-opacity="1" fill-rule="nonzero"/><path fill="#7c2ae8" d="M 55.789062 33.421875 L 41.679688 33.421875 C 40.785156 33.421875 40.058594 32.695312 40.058594 31.800781 C 40.058594 31.539062 40.269531 31.324219 40.535156 31.324219 C 40.796875 31.324219 41.007812 31.539062 41.007812 31.800781 C 41.007812 32.171875 41.308594 32.472656 41.679688 32.472656 L 55.789062 32.472656 C 56.15625 32.472656 56.457031 32.171875 56.457031 31.800781 C 56.457031 31.539062 56.667969 31.324219 56.933594 31.324219 C 57.195312 31.324219 57.410156 31.539062 57.410156 31.800781 C 57.410156 32.695312 56.679688 33.421875 55.789062 33.421875 Z M 55.789062 33.421875 " fill-opacity="1" fill-rule="nonzero"/><path fill="#7c2ae8" d="M 56.933594 51.753906 C 56.671875 51.753906 56.457031 51.539062 56.457031 51.277344 C 56.457031 50.90625 56.15625 50.605469 55.789062 50.605469 L 50.511719 50.605469 C 50.25 50.605469 50.035156 50.394531 50.035156 50.128906 C 50.035156 49.867188 50.246094 49.65625 50.511719 49.65625 L 55.789062 49.65625 C 56.679688 49.65625 57.410156 50.382812 57.410156 51.277344 C 57.410156 51.539062 57.195312 51.753906 56.933594 51.753906 Z M 40.535156 51.753906 C 40.273438 51.753906 40.058594 51.539062 40.058594 51.277344 C 40.058594 50.382812 40.785156 49.65625 41.679688 49.65625 L 46.957031 49.65625 C 47.21875 49.65625 47.433594 49.867188 47.433594 50.128906 C 47.433594 50.390625 47.21875 50.605469 46.957031 50.605469 L 41.679688 50.605469 C 41.308594 50.605469 41.007812 50.90625 41.007812 51.277344 C 41.007812 51.539062 40.796875 51.753906 40.535156 51.753906 Z M 40.535156 51.753906 " fill-opacity="1" fill-rule="nonzero"/><path fill="#7c2ae8" d="M 48.734375 52.324219 C 47.488281 52.324219 46.480469 51.3125 46.480469 50.070312 C 46.480469 48.828125 47.488281 47.816406 48.734375 47.816406 C 49.976562 47.816406 50.988281 48.828125 50.988281 50.070312 C 50.988281 51.3125 49.976562 52.324219 48.734375 52.324219 Z M 48.734375 48.765625 C 48.011719 48.765625 47.429688 49.351562 47.429688 50.070312 C 47.429688 50.789062 48.015625 51.371094 48.734375 51.371094 C 49.453125 51.371094 50.035156 50.789062 50.035156 50.070312 C 50.035156 49.351562 49.453125 48.765625 48.734375 48.765625 Z M 48.734375 48.765625 " fill-opacity="1" fill-rule="nonzero"/><path fill="#7c2ae8" d="M 48.515625 31.734375 L 46.496094 31.734375 C 46.234375 31.734375 46.019531 31.519531 46.019531 31.257812 C 46.019531 30.996094 46.230469 30.78125 46.496094 30.78125 L 48.515625 30.78125 C 48.777344 30.78125 48.992188 30.996094 48.992188 31.257812 C 48.992188 31.519531 48.777344 31.734375 48.515625 31.734375 Z M 48.515625 31.734375 " fill-opacity="1" fill-rule="nonzero"/><path fill="#7c2ae8" d="M 50.972656 31.734375 L 50.15625 31.734375 C 49.894531 31.734375 49.679688 31.519531 49.679688 31.257812 C 49.679688 30.996094 49.894531 30.78125 50.15625 30.78125 L 50.972656 30.78125 C 51.234375 30.78125 51.445312 30.996094 51.445312 31.257812 C 51.445312 31.519531 51.234375 31.734375 50.972656 31.734375 Z M 50.972656 31.734375 " fill-opacity="1" fill-rule="nonzero"/><path fill="#7c2ae8" d="M 40.535156 48.074219 L 18.585938 48.074219 C 16.851562 48.074219 15.441406 46.660156 15.441406 44.925781 L 15.441406 40.320312 C 15.441406 40.058594 15.652344 39.84375 15.917969 39.84375 C 16.179688 39.84375 16.390625 40.058594 16.390625 40.320312 L 16.390625 44.925781 C 16.390625 46.136719 17.378906 47.125 18.589844 47.125 L 40.535156 47.125 C 40.796875 47.125 41.011719 47.335938 41.011719 47.597656 C 41.007812 47.859375 40.796875 48.074219 40.535156 48.074219 Z M 47.726562 30.046875 C 47.464844 30.046875 47.25 29.832031 47.25 29.570312 L 47.25 27.929688 C 47.25 26.71875 46.265625 25.730469 45.054688 25.730469 L 34.226562 25.730469 C 33.964844 25.730469 33.753906 25.519531 33.753906 25.253906 C 33.753906 24.992188 33.964844 24.78125 34.226562 24.78125 L 45.054688 24.78125 C 46.789062 24.78125 48.199219 26.191406 48.199219 27.925781 L 48.199219 29.570312 C 48.203125 29.832031 47.988281 30.046875 47.726562 30.046875 Z M 47.726562 30.046875 " fill-opacity="1" fill-rule="nonzero"/><path fill="#7c2ae8" d="M 40.535156 45.742188 L 18.585938 45.742188 C 18.144531 45.742188 17.773438 45.367188 17.773438 44.925781 L 17.773438 41.109375 C 17.773438 40.847656 17.984375 40.636719 18.246094 40.636719 C 18.507812 40.636719 18.722656 40.847656 18.722656 41.109375 L 18.722656 44.792969 L 40.535156 44.792969 C 40.796875 44.792969 41.011719 45.003906 41.011719 45.265625 C 41.007812 45.527344 40.796875 45.742188 40.535156 45.742188 Z M 45.394531 30.046875 C 45.132812 30.046875 44.917969 29.832031 44.917969 29.570312 L 44.917969 28.0625 L 34.230469 28.0625 C 33.96875 28.0625 33.753906 27.851562 33.753906 27.589844 C 33.753906 27.328125 33.964844 27.113281 34.230469 27.113281 L 45.054688 27.113281 C 45.496094 27.113281 45.871094 27.488281 45.871094 27.929688 L 45.871094 29.570312 C 45.867188 29.832031 45.65625 30.046875 45.394531 30.046875 Z M 45.394531 30.046875 " fill-opacity="1" fill-rule="nonzero"/><path fill="#7c2ae8" d="M 35.300781 51.511719 C 35.140625 51.511719 34.980469 51.429688 34.890625 51.28125 C 33.910156 49.613281 33.910156 49.027344 34.890625 47.355469 C 35.023438 47.132812 35.316406 47.054688 35.542969 47.1875 C 35.765625 47.320312 35.84375 47.609375 35.710938 47.835938 C 34.90625 49.207031 34.90625 49.429688 35.710938 50.796875 C 35.84375 51.023438 35.765625 51.3125 35.542969 51.449219 C 35.464844 51.492188 35.382812 51.511719 35.300781 51.511719 Z M 28.339844 51.511719 C 28.257812 51.511719 28.175781 51.492188 28.101562 51.449219 C 27.875 51.316406 27.796875 51.023438 27.929688 50.796875 C 28.734375 49.429688 28.734375 49.207031 27.929688 47.835938 C 27.800781 47.613281 27.875 47.320312 28.101562 47.1875 C 28.324219 47.054688 28.617188 47.132812 28.75 47.355469 C 29.730469 49.023438 29.730469 49.609375 28.75 51.28125 C 28.660156 51.429688 28.503906 51.511719 28.339844 51.511719 Z M 28.339844 51.511719 " fill-opacity="1" fill-rule="nonzero"/><path fill="#7c2ae8" d="M 37.222656 53.984375 L 26.417969 53.984375 C 26.15625 53.984375 25.941406 53.769531 25.941406 53.507812 L 25.941406 52.273438 C 25.941406 51.332031 26.707031 50.5625 27.652344 50.5625 L 35.988281 50.5625 C 36.929688 50.5625 37.695312 51.332031 37.695312 52.273438 L 37.695312 53.507812 C 37.699219 53.769531 37.484375 53.984375 37.222656 53.984375 Z M 26.894531 53.03125 L 36.75 53.03125 L 36.75 52.273438 C 36.75 51.855469 36.410156 51.511719 35.988281 51.511719 L 27.652344 51.511719 C 27.234375 51.511719 26.894531 51.855469 26.894531 52.273438 Z M 26.894531 53.03125 " fill-opacity="1" fill-rule="nonzero"/><g clip-path="url(#0ef1bc0f95)"><path fill="#7c2ae8" d="M 36.386719 72.011719 C 31.578125 72.011719 26.914062 71.070312 22.519531 69.214844 C 18.277344 67.417969 14.46875 64.851562 11.195312 61.582031 C 7.925781 58.308594 5.355469 54.5 3.5625 50.253906 C 1.707031 45.863281 0.761719 41.195312 0.761719 36.386719 C 0.761719 31.578125 1.707031 26.914062 3.5625 22.519531 C 5.355469 18.277344 7.925781 14.46875 11.195312 11.195312 C 14.46875 7.925781 18.277344 5.355469 22.519531 3.5625 C 26.914062 1.707031 31.578125 0.761719 36.386719 0.761719 C 41.195312 0.761719 45.863281 1.707031 50.253906 3.5625 C 54.496094 5.355469 58.308594 7.925781 61.582031 11.195312 C 64.851562 14.46875 67.417969 18.277344 69.214844 22.519531 C 71.074219 26.914062 72.011719 31.578125 72.011719 36.386719 C 72.011719 41.195312 71.070312 45.863281 69.214844 50.253906 C 67.417969 54.496094 64.851562 58.308594 61.582031 61.582031 C 58.308594 64.851562 54.5 67.417969 50.253906 69.214844 C 45.863281 71.070312 41.195312 72.011719 36.386719 72.011719 Z M 36.386719 1.699219 C 17.261719 1.699219 1.699219 17.261719 1.699219 36.386719 C 1.699219 55.515625 17.261719 71.074219 36.386719 71.074219 C 55.515625 71.074219 71.074219 55.515625 71.074219 36.386719 C 71.074219 17.261719 55.515625 1.699219 36.386719 1.699219 Z M 36.386719 1.699219 " fill-opacity="1" fill-rule="nonzero"/></g></g></g></g><g clip-path="url(#719248611f)"><g clip-path="url(#27f3485845)"><path fill="url(#bf6af6c59f)" d="M 0.882812 0.882812 L 0.882812 74.382812 L 74.382812 74.382812 L 74.382812 0.882812 Z M 0.882812 0.882812 " fill-rule="nonzero"/></g></g></svg>