<svg xmlns="http://www.w3.org/2000/svg" xmlns:xlink="http://www.w3.org/1999/xlink" width="100" zoomAndPan="magnify" viewBox="0 0 75 74.999997" height="100" preserveAspectRatio="xMidYMid meet" version="1.0"><defs><clipPath id="ccfdfdcdda"><path d="M 4.039062 1.03125 L 70.789062 1.03125 L 70.789062 73.78125 L 4.039062 73.78125 Z M 4.039062 1.03125 " clip-rule="nonzero"/></clipPath><clipPath id="25241c2b13"><path d="M 4.039062 45 L 21 45 L 21 57 L 4.039062 57 Z M 4.039062 45 " clip-rule="nonzero"/></clipPath><clipPath id="f148c94b34"><path d="M 35 18 L 70.789062 18 L 70.789062 40 L 35 40 Z M 35 18 " clip-rule="nonzero"/></clipPath><clipPath id="7ca48a7c54"><path d="M 4.039062 18 L 40 18 L 40 40 L 4.039062 40 Z M 4.039062 18 " clip-rule="nonzero"/></clipPath><clipPath id="391abd02b9"><path d="M 53 45 L 70.789062 45 L 70.789062 57 L 53 57 Z M 53 45 " clip-rule="nonzero"/></clipPath><clipPath id="52d3992902"><path d="M 35 35 L 40 35 L 40 73.78125 L 35 73.78125 Z M 35 35 " clip-rule="nonzero"/></clipPath><clipPath id="59a8aa129a"><path d="M 35 1.03125 L 40 1.03125 L 40 18 L 35 18 Z M 35 1.03125 " clip-rule="nonzero"/></clipPath></defs><path fill="#1b75bb" d="M 38.632812 56.292969 L 55.664062 47.082031 L 55.664062 28.828125 L 38.632812 38.5 Z M 38.632812 56.292969 " fill-opacity="1" fill-rule="nonzero"/><path fill="#8ad0f3" d="M 68.234375 21.6875 L 58.09375 27.441406 L 58.09375 48.164062 L 68.234375 53.925781 Z M 68.234375 21.6875 " fill-opacity="1" fill-rule="nonzero"/><path fill="#1b75bb" d="M 54.519531 26.71875 L 37.417969 17.464844 L 20.324219 26.71875 L 37.417969 36.425781 Z M 54.519531 26.71875 " fill-opacity="1" fill-rule="nonzero"/><path fill="#8ad0f3" d="M 55.898438 49.679688 L 38.632812 59.019531 L 38.632812 71.03125 L 66.339844 55.613281 Z M 55.898438 49.679688 " fill-opacity="1" fill-rule="nonzero"/><path fill="#8ad0f3" d="M 36.203125 59.019531 L 18.9375 49.679688 L 8.492188 55.613281 L 36.203125 71.03125 Z M 36.203125 59.019531 " fill-opacity="1" fill-rule="nonzero"/><path fill="#8ad0f3" d="M 6.597656 53.925781 L 16.738281 48.164062 L 16.738281 27.441406 L 6.597656 21.6875 Z M 6.597656 53.925781 " fill-opacity="1" fill-rule="nonzero"/><path fill="#8ad0f3" d="M 17.855469 25.320312 L 36.199219 15.394531 L 36.199219 3.785156 L 7.785156 19.597656 Z M 17.855469 25.320312 " fill-opacity="1" fill-rule="nonzero"/><path fill="#1b75bb" d="M 36.203125 38.5 L 19.171875 28.828125 L 19.171875 47.082031 L 36.203125 56.292969 Z M 36.203125 38.5 " fill-opacity="1" fill-rule="nonzero"/><path fill="#8ad0f3" d="M 38.632812 15.394531 L 56.976562 25.324219 L 67.046875 19.597656 L 38.632812 3.785156 Z M 38.632812 15.394531 " fill-opacity="1" fill-rule="nonzero"/><g clip-path="url(#ccfdfdcdda)"><path fill="#000000" d="M 37.414062 73.488281 C 37.035156 73.488281 36.65625 73.394531 36.3125 73.203125 L 5.492188 55.910156 C 4.78125 55.511719 4.339844 54.761719 4.339844 53.945312 L 4.339844 20.871094 C 4.339844 20.054688 4.78125 19.304688 5.492188 18.902344 L 36.3125 1.613281 C 37 1.230469 37.832031 1.230469 38.519531 1.613281 L 69.339844 18.902344 C 70.050781 19.304688 70.492188 20.054688 70.492188 20.871094 L 70.492188 53.945312 C 70.492188 54.761719 70.050781 55.511719 69.339844 55.910156 L 38.519531 73.203125 C 38.175781 73.394531 37.796875 73.488281 37.414062 73.488281 Z M 8.851562 52.625 L 37.414062 68.648438 L 65.980469 52.625 L 65.980469 22.191406 L 37.414062 6.164062 L 8.851562 22.191406 Z M 68.234375 53.945312 L 68.265625 53.945312 Z M 68.234375 53.945312 " fill-opacity="1" fill-rule="nonzero"/></g><g clip-path="url(#25241c2b13)"><path fill="#000000" d="M 6.601562 56.199219 C 5.800781 56.199219 5.03125 55.777344 4.617188 55.027344 C 4.023438 53.9375 4.421875 52.566406 5.515625 51.964844 L 17.542969 45.378906 C 18.640625 44.78125 20.007812 45.1875 20.605469 46.273438 C 21.199219 47.367188 20.800781 48.738281 19.710938 49.339844 L 7.683594 55.921875 C 7.335938 56.113281 6.964844 56.199219 6.601562 56.199219 Z M 6.601562 56.199219 " fill-opacity="1" fill-rule="nonzero"/></g><g clip-path="url(#f148c94b34)"><path fill="#000000" d="M 37.417969 39.664062 C 36.605469 39.664062 35.828125 39.226562 35.421875 38.460938 C 34.84375 37.367188 35.261719 36 36.359375 35.414062 L 55.152344 25.460938 L 67.148438 18.886719 C 68.25 18.289062 69.613281 18.695312 70.214844 19.785156 C 70.808594 20.875 70.410156 22.246094 69.316406 22.847656 L 57.289062 29.433594 L 38.46875 39.398438 C 38.132812 39.578125 37.773438 39.664062 37.417969 39.664062 Z M 37.417969 39.664062 " fill-opacity="1" fill-rule="nonzero"/></g><path fill="#000000" d="M 37.414062 61.460938 C 37.011719 61.460938 36.609375 61.355469 36.253906 61.144531 L 17.464844 49.867188 C 16.785156 49.457031 16.367188 48.726562 16.367188 47.929688 L 16.367188 26.882812 C 16.367188 26.089844 16.785156 25.355469 17.464844 24.945312 L 36.253906 13.671875 C 36.964844 13.242188 37.863281 13.242188 38.574219 13.671875 L 57.367188 24.945312 C 58.046875 25.355469 58.464844 26.089844 58.464844 26.882812 L 58.464844 47.929688 C 58.464844 48.726562 58.046875 49.457031 57.367188 49.867188 L 38.578125 61.144531 C 38.222656 61.355469 37.820312 61.460938 37.414062 61.460938 Z M 20.878906 46.652344 L 37.414062 56.578125 L 53.953125 46.652344 L 53.953125 28.160156 L 37.414062 18.238281 L 20.878906 28.160156 Z M 56.207031 47.929688 L 56.238281 47.929688 Z M 56.207031 47.929688 " fill-opacity="1" fill-rule="nonzero"/><g clip-path="url(#7ca48a7c54)"><path fill="#000000" d="M 37.414062 39.664062 C 37.058594 39.664062 36.699219 39.578125 36.359375 39.402344 L 17.566406 29.449219 L 5.515625 22.847656 C 4.417969 22.25 4.023438 20.878906 4.617188 19.785156 C 5.214844 18.695312 6.582031 18.289062 7.679688 18.890625 L 19.707031 25.476562 L 38.46875 35.414062 C 39.570312 35.996094 39.988281 37.363281 39.40625 38.460938 C 39.003906 39.226562 38.226562 39.664062 37.414062 39.664062 Z M 37.414062 39.664062 " fill-opacity="1" fill-rule="nonzero"/></g><g clip-path="url(#391abd02b9)"><path fill="#000000" d="M 68.230469 56.199219 C 67.867188 56.199219 67.496094 56.113281 67.152344 55.921875 L 55.125 49.339844 C 54.035156 48.742188 53.632812 47.371094 54.230469 46.273438 C 54.828125 45.1875 56.195312 44.78125 57.292969 45.378906 L 69.320312 51.964844 C 70.410156 52.5625 70.8125 53.933594 70.214844 55.027344 C 69.800781 55.777344 69.03125 56.199219 68.230469 56.199219 Z M 68.230469 56.199219 " fill-opacity="1" fill-rule="nonzero"/></g><g clip-path="url(#52d3992902)"><path fill="#000000" d="M 37.414062 73.488281 C 36.171875 73.488281 35.160156 72.480469 35.160156 71.234375 L 35.160156 37.40625 C 35.160156 36.164062 36.171875 35.152344 37.414062 35.152344 C 38.660156 35.152344 39.671875 36.164062 39.671875 37.40625 L 39.671875 71.234375 C 39.671875 72.480469 38.660156 73.488281 37.414062 73.488281 Z M 37.414062 73.488281 " fill-opacity="1" fill-rule="nonzero"/></g><g clip-path="url(#59a8aa129a)"><path fill="#000000" d="M 37.414062 17.863281 C 36.171875 17.863281 35.160156 16.851562 35.160156 15.609375 L 35.160156 3.578125 C 35.160156 2.335938 36.171875 1.324219 37.414062 1.324219 C 38.660156 1.324219 39.671875 2.335938 39.671875 3.578125 L 39.671875 15.609375 C 39.671875 16.851562 38.660156 17.863281 37.414062 17.863281 Z M 37.414062 17.863281 " fill-opacity="1" fill-rule="nonzero"/></g></svg>