<svg xmlns="http://www.w3.org/2000/svg" xmlns:xlink="http://www.w3.org/1999/xlink" width="100" zoomAndPan="magnify" viewBox="0 0 75 74.999997" height="100" preserveAspectRatio="xMidYMid meet" version="1.0"><path stroke-linecap="butt" transform="matrix(0.653938, 0, 0, 0.653938, 0.0000015, -5.659913)" fill="none" stroke-linejoin="miter" d="M 30.123983 97.002086 L 41.772163 97.002086 C 42.823486 97.002086 43.504456 96.62576 43.880782 95.448995 L 56.090464 57.959776 C 56.395109 56.998055 56.867009 56.621729 57.332937 56.621729 C 57.828731 56.621729 58.294658 56.998055 58.599303 57.959776 L 70.808985 95.448995 C 71.18531 96.62576 71.866281 97.002086 72.923577 97.002086 L 84.565784 97.002086 C 85.62308 97.002086 86.375732 96.530185 86.775951 95.448995 L 107.151306 38.546143 C 107.246881 38.235525 107.336482 37.954774 107.336482 37.769598 C 107.336482 36.897478 106.679405 36.312082 105.628082 36.312082 L 98.113513 36.312082 C 97.056217 36.312082 96.279671 36.807876 95.903346 37.865173 L 80.223103 83.430463 C 79.942352 84.29661 79.470452 84.792404 78.980631 84.792404 C 78.50873 84.792404 78.018909 84.29661 77.738158 83.430463 L 63.605033 37.954774 C 63.294415 36.897478 62.547737 36.312082 61.490441 36.312082 L 53.199326 36.312082 C 52.148003 36.312082 51.395351 36.897478 51.090707 37.954774 L 36.957582 83.334888 C 36.676831 84.29661 36.181037 84.792404 35.715109 84.792404 C 35.338784 84.792404 34.842989 84.29661 34.562238 83.430463 L 18.786421 37.865173 C 18.410095 36.807876 17.63355 36.312082 16.576254 36.312082 L 9.067658 36.312082 C 8.010361 36.312082 7.353285 36.897478 7.353285 37.769598 C 7.353285 37.954774 7.448859 38.235525 7.538461 38.546143 L 27.919789 95.448995 C 28.320008 96.530185 29.066687 97.002086 30.123983 97.002086 Z M 30.123983 97.002086 " stroke="#1b75bb" stroke-width="3.6063" stroke-opacity="1" stroke-miterlimit="4"/></svg>